<mxfile host="app.diagrams.net" modified="2024-05-16T02:28:56.867Z" agent="Mozilla/5.0 (Macintosh; Intel Mac OS X 10_15_7) AppleWebKit/537.36 (KHTML, like Gecko) Chrome/124.0.0.0 Safari/537.36" etag="R2BZc2kMG9FawqE4lDGM" version="24.4.2" type="device" pages="3">
  <diagram name="Blockshield - UseCase" id="uYXnW42_KbKzhxBh2Ke2">
    <mxGraphModel dx="954" dy="581" grid="1" gridSize="10" guides="1" tooltips="1" connect="1" arrows="1" fold="1" page="1" pageScale="1" pageWidth="827" pageHeight="1169" math="0" shadow="0">
      <root>
        <mxCell id="0" />
        <mxCell id="1" parent="0" />
        <mxCell id="VSP9IDwHl78DQXSJRnXH-1" value="create&lt;div&gt;asset&lt;/div&gt;" style="ellipse;whiteSpace=wrap;html=1;fillColor=#dae8fc;strokeColor=#6c8ebf;" vertex="1" parent="1">
          <mxGeometry x="49" y="240" width="100" height="70" as="geometry" />
        </mxCell>
        <mxCell id="VSP9IDwHl78DQXSJRnXH-2" value="inactivate&lt;div&gt;asset&lt;/div&gt;" style="ellipse;whiteSpace=wrap;html=1;fillColor=#dae8fc;strokeColor=#6c8ebf;" vertex="1" parent="1">
          <mxGeometry x="549" y="240" width="100" height="70" as="geometry" />
        </mxCell>
        <mxCell id="VSP9IDwHl78DQXSJRnXH-3" value="&lt;div&gt;find all assets&lt;/div&gt;" style="ellipse;whiteSpace=wrap;html=1;fillColor=#dae8fc;strokeColor=#6c8ebf;" vertex="1" parent="1">
          <mxGeometry x="289" y="240" width="100" height="70" as="geometry" />
        </mxCell>
        <mxCell id="VSP9IDwHl78DQXSJRnXH-4" value="&lt;div&gt;get asset detail by id&lt;span style=&quot;background-color: initial;&quot;&gt;&amp;nbsp;&lt;/span&gt;&lt;/div&gt;" style="ellipse;whiteSpace=wrap;html=1;fillColor=#dae8fc;strokeColor=#6c8ebf;" vertex="1" parent="1">
          <mxGeometry x="409" y="240" width="110" height="70" as="geometry" />
        </mxCell>
        <mxCell id="VSP9IDwHl78DQXSJRnXH-5" value="update&lt;div&gt;asset&lt;/div&gt;" style="ellipse;whiteSpace=wrap;html=1;fillColor=#dae8fc;strokeColor=#6c8ebf;" vertex="1" parent="1">
          <mxGeometry x="169" y="240" width="100" height="70" as="geometry" />
        </mxCell>
        <mxCell id="VSP9IDwHl78DQXSJRnXH-6" value="&lt;div&gt;get assets&amp;nbsp; by wallet&lt;/div&gt;" style="ellipse;whiteSpace=wrap;html=1;fillColor=#dae8fc;strokeColor=#6c8ebf;" vertex="1" parent="1">
          <mxGeometry x="669" y="240" width="110" height="70" as="geometry" />
        </mxCell>
        <mxCell id="VSP9IDwHl78DQXSJRnXH-8" style="edgeStyle=orthogonalEdgeStyle;rounded=0;orthogonalLoop=1;jettySize=auto;html=1;entryX=0.5;entryY=0;entryDx=0;entryDy=0;" edge="1" parent="1" source="VSP9IDwHl78DQXSJRnXH-7" target="VSP9IDwHl78DQXSJRnXH-1">
          <mxGeometry relative="1" as="geometry" />
        </mxCell>
        <mxCell id="VSP9IDwHl78DQXSJRnXH-9" style="edgeStyle=orthogonalEdgeStyle;rounded=0;orthogonalLoop=1;jettySize=auto;html=1;" edge="1" parent="1" source="VSP9IDwHl78DQXSJRnXH-7" target="VSP9IDwHl78DQXSJRnXH-5">
          <mxGeometry relative="1" as="geometry" />
        </mxCell>
        <mxCell id="VSP9IDwHl78DQXSJRnXH-10" style="edgeStyle=orthogonalEdgeStyle;rounded=0;orthogonalLoop=1;jettySize=auto;html=1;entryX=0.5;entryY=0;entryDx=0;entryDy=0;" edge="1" parent="1" source="VSP9IDwHl78DQXSJRnXH-7" target="VSP9IDwHl78DQXSJRnXH-3">
          <mxGeometry relative="1" as="geometry" />
        </mxCell>
        <mxCell id="VSP9IDwHl78DQXSJRnXH-11" style="edgeStyle=orthogonalEdgeStyle;rounded=0;orthogonalLoop=1;jettySize=auto;html=1;" edge="1" parent="1" source="VSP9IDwHl78DQXSJRnXH-7" target="VSP9IDwHl78DQXSJRnXH-4">
          <mxGeometry relative="1" as="geometry" />
        </mxCell>
        <mxCell id="VSP9IDwHl78DQXSJRnXH-12" style="edgeStyle=orthogonalEdgeStyle;rounded=0;orthogonalLoop=1;jettySize=auto;html=1;" edge="1" parent="1" source="VSP9IDwHl78DQXSJRnXH-7" target="VSP9IDwHl78DQXSJRnXH-2">
          <mxGeometry relative="1" as="geometry" />
        </mxCell>
        <mxCell id="VSP9IDwHl78DQXSJRnXH-13" style="edgeStyle=orthogonalEdgeStyle;rounded=0;orthogonalLoop=1;jettySize=auto;html=1;" edge="1" parent="1" source="VSP9IDwHl78DQXSJRnXH-7" target="VSP9IDwHl78DQXSJRnXH-6">
          <mxGeometry relative="1" as="geometry" />
        </mxCell>
        <mxCell id="VSP9IDwHl78DQXSJRnXH-7" value="Admin" style="shape=umlActor;verticalLabelPosition=bottom;verticalAlign=top;html=1;outlineConnect=0;fillColor=#f8cecc;strokeColor=#b85450;" vertex="1" parent="1">
          <mxGeometry x="384" y="60" width="30" height="60" as="geometry" />
        </mxCell>
        <mxCell id="VSP9IDwHl78DQXSJRnXH-15" style="edgeStyle=orthogonalEdgeStyle;rounded=0;orthogonalLoop=1;jettySize=auto;html=1;entryX=0.5;entryY=1;entryDx=0;entryDy=0;" edge="1" parent="1" source="VSP9IDwHl78DQXSJRnXH-14" target="VSP9IDwHl78DQXSJRnXH-3">
          <mxGeometry relative="1" as="geometry" />
        </mxCell>
        <mxCell id="VSP9IDwHl78DQXSJRnXH-16" style="edgeStyle=orthogonalEdgeStyle;rounded=0;orthogonalLoop=1;jettySize=auto;html=1;entryX=0.5;entryY=1;entryDx=0;entryDy=0;" edge="1" parent="1" source="VSP9IDwHl78DQXSJRnXH-14" target="VSP9IDwHl78DQXSJRnXH-4">
          <mxGeometry relative="1" as="geometry" />
        </mxCell>
        <mxCell id="VSP9IDwHl78DQXSJRnXH-18" style="edgeStyle=orthogonalEdgeStyle;rounded=0;orthogonalLoop=1;jettySize=auto;html=1;entryX=0.5;entryY=1;entryDx=0;entryDy=0;" edge="1" parent="1" source="VSP9IDwHl78DQXSJRnXH-14" target="VSP9IDwHl78DQXSJRnXH-6">
          <mxGeometry relative="1" as="geometry" />
        </mxCell>
        <mxCell id="VSP9IDwHl78DQXSJRnXH-20" style="edgeStyle=orthogonalEdgeStyle;rounded=0;orthogonalLoop=1;jettySize=auto;html=1;" edge="1" parent="1" source="VSP9IDwHl78DQXSJRnXH-14" target="VSP9IDwHl78DQXSJRnXH-19">
          <mxGeometry relative="1" as="geometry" />
        </mxCell>
        <mxCell id="ca3NleYC3k1WaUoK3iP5-4" style="edgeStyle=orthogonalEdgeStyle;rounded=0;orthogonalLoop=1;jettySize=auto;html=1;" edge="1" parent="1" source="VSP9IDwHl78DQXSJRnXH-14" target="ca3NleYC3k1WaUoK3iP5-1">
          <mxGeometry relative="1" as="geometry" />
        </mxCell>
        <mxCell id="ca3NleYC3k1WaUoK3iP5-6" style="edgeStyle=orthogonalEdgeStyle;rounded=0;orthogonalLoop=1;jettySize=auto;html=1;" edge="1" parent="1" source="VSP9IDwHl78DQXSJRnXH-14" target="ca3NleYC3k1WaUoK3iP5-5">
          <mxGeometry relative="1" as="geometry" />
        </mxCell>
        <mxCell id="VSP9IDwHl78DQXSJRnXH-14" value="WebClient" style="shape=umlActor;verticalLabelPosition=bottom;verticalAlign=top;html=1;outlineConnect=0;fillColor=#d5e8d4;strokeColor=#82b366;" vertex="1" parent="1">
          <mxGeometry x="384" y="380" width="30" height="60" as="geometry" />
        </mxCell>
        <mxCell id="VSP9IDwHl78DQXSJRnXH-19" value="insurance&lt;div&gt;checkout&lt;/div&gt;" style="ellipse;whiteSpace=wrap;html=1;fillColor=#f8cecc;strokeColor=#b85450;" vertex="1" parent="1">
          <mxGeometry x="49" y="375" width="100" height="70" as="geometry" />
        </mxCell>
        <mxCell id="VSP9IDwHl78DQXSJRnXH-22" style="edgeStyle=orthogonalEdgeStyle;rounded=0;orthogonalLoop=1;jettySize=auto;html=1;entryX=0.5;entryY=1;entryDx=0;entryDy=0;dashed=1;" edge="1" parent="1" source="VSP9IDwHl78DQXSJRnXH-21" target="VSP9IDwHl78DQXSJRnXH-19">
          <mxGeometry relative="1" as="geometry" />
        </mxCell>
        <mxCell id="VSP9IDwHl78DQXSJRnXH-23" value="depends on" style="edgeLabel;html=1;align=center;verticalAlign=middle;resizable=0;points=[];" vertex="1" connectable="0" parent="VSP9IDwHl78DQXSJRnXH-22">
          <mxGeometry x="0.0286" relative="1" as="geometry">
            <mxPoint as="offset" />
          </mxGeometry>
        </mxCell>
        <mxCell id="VSP9IDwHl78DQXSJRnXH-21" value="create&lt;div&gt;transaction&lt;/div&gt;" style="ellipse;whiteSpace=wrap;html=1;fillColor=#f8cecc;strokeColor=#b85450;" vertex="1" parent="1">
          <mxGeometry x="49" y="515" width="100" height="70" as="geometry" />
        </mxCell>
        <mxCell id="VSP9IDwHl78DQXSJRnXH-24" value="blockchain&lt;br&gt;event&lt;br&gt;listener" style="ellipse;whiteSpace=wrap;html=1;fillColor=#f8cecc;strokeColor=#b85450;" vertex="1" parent="1">
          <mxGeometry x="49" y="640" width="100" height="70" as="geometry" />
        </mxCell>
        <mxCell id="VSP9IDwHl78DQXSJRnXH-26" style="edgeStyle=orthogonalEdgeStyle;rounded=0;orthogonalLoop=1;jettySize=auto;html=1;entryX=1;entryY=0.5;entryDx=0;entryDy=0;" edge="1" parent="1" source="VSP9IDwHl78DQXSJRnXH-25" target="VSP9IDwHl78DQXSJRnXH-21">
          <mxGeometry relative="1" as="geometry" />
        </mxCell>
        <mxCell id="VSP9IDwHl78DQXSJRnXH-27" style="edgeStyle=orthogonalEdgeStyle;rounded=0;orthogonalLoop=1;jettySize=auto;html=1;entryX=1;entryY=0.5;entryDx=0;entryDy=0;" edge="1" parent="1" source="VSP9IDwHl78DQXSJRnXH-25" target="VSP9IDwHl78DQXSJRnXH-24">
          <mxGeometry relative="1" as="geometry" />
        </mxCell>
        <mxCell id="VSP9IDwHl78DQXSJRnXH-25" value="System" style="shape=umlActor;verticalLabelPosition=bottom;verticalAlign=top;html=1;outlineConnect=0;fillColor=#e1d5e7;strokeColor=#9673a6;" vertex="1" parent="1">
          <mxGeometry x="384" y="680" width="30" height="60" as="geometry" />
        </mxCell>
        <mxCell id="VSP9IDwHl78DQXSJRnXH-29" style="edgeStyle=orthogonalEdgeStyle;rounded=0;orthogonalLoop=1;jettySize=auto;html=1;dashed=1;" edge="1" parent="1" source="VSP9IDwHl78DQXSJRnXH-28" target="VSP9IDwHl78DQXSJRnXH-24">
          <mxGeometry relative="1" as="geometry" />
        </mxCell>
        <mxCell id="VSP9IDwHl78DQXSJRnXH-30" value="depends on" style="edgeLabel;html=1;align=center;verticalAlign=middle;resizable=0;points=[];" vertex="1" connectable="0" parent="VSP9IDwHl78DQXSJRnXH-29">
          <mxGeometry x="-0.04" y="1" relative="1" as="geometry">
            <mxPoint as="offset" />
          </mxGeometry>
        </mxCell>
        <mxCell id="VSP9IDwHl78DQXSJRnXH-28" value="update asset after event" style="ellipse;whiteSpace=wrap;html=1;fillColor=#f8cecc;strokeColor=#b85450;" vertex="1" parent="1">
          <mxGeometry x="49" y="760" width="100" height="70" as="geometry" />
        </mxCell>
        <mxCell id="ca3NleYC3k1WaUoK3iP5-2" style="edgeStyle=orthogonalEdgeStyle;rounded=0;orthogonalLoop=1;jettySize=auto;html=1;entryX=0.5;entryY=1;entryDx=0;entryDy=0;exitX=0;exitY=0.5;exitDx=0;exitDy=0;dashed=1;" edge="1" parent="1" source="ca3NleYC3k1WaUoK3iP5-1" target="VSP9IDwHl78DQXSJRnXH-21">
          <mxGeometry relative="1" as="geometry" />
        </mxCell>
        <mxCell id="ca3NleYC3k1WaUoK3iP5-3" value="depends on" style="edgeLabel;html=1;align=center;verticalAlign=middle;resizable=0;points=[];" vertex="1" connectable="0" parent="ca3NleYC3k1WaUoK3iP5-2">
          <mxGeometry x="0.1778" relative="1" as="geometry">
            <mxPoint as="offset" />
          </mxGeometry>
        </mxCell>
        <mxCell id="ca3NleYC3k1WaUoK3iP5-1" value="get transactions by wallet" style="ellipse;whiteSpace=wrap;html=1;fillColor=#ffe6cc;strokeColor=#d79b00;" vertex="1" parent="1">
          <mxGeometry x="349" y="570" width="100" height="70" as="geometry" />
        </mxCell>
        <mxCell id="ca3NleYC3k1WaUoK3iP5-7" style="edgeStyle=orthogonalEdgeStyle;rounded=0;orthogonalLoop=1;jettySize=auto;html=1;entryX=1;entryY=0.5;entryDx=0;entryDy=0;dashed=1;" edge="1" parent="1" source="ca3NleYC3k1WaUoK3iP5-5" target="ca3NleYC3k1WaUoK3iP5-1">
          <mxGeometry relative="1" as="geometry" />
        </mxCell>
        <mxCell id="ca3NleYC3k1WaUoK3iP5-8" value="depends on" style="edgeLabel;html=1;align=center;verticalAlign=middle;resizable=0;points=[];" vertex="1" connectable="0" parent="ca3NleYC3k1WaUoK3iP5-7">
          <mxGeometry x="-0.0857" y="-2" relative="1" as="geometry">
            <mxPoint as="offset" />
          </mxGeometry>
        </mxCell>
        <mxCell id="ca3NleYC3k1WaUoK3iP5-5" value="validate if wallet has any asset" style="ellipse;whiteSpace=wrap;html=1;fillColor=#ffe6cc;strokeColor=#d79b00;" vertex="1" parent="1">
          <mxGeometry x="550" y="570" width="100" height="70" as="geometry" />
        </mxCell>
        <mxCell id="ca3NleYC3k1WaUoK3iP5-10" style="edgeStyle=orthogonalEdgeStyle;rounded=0;orthogonalLoop=1;jettySize=auto;html=1;entryX=1;entryY=0.5;entryDx=0;entryDy=0;dashed=1;" edge="1" parent="1" source="ca3NleYC3k1WaUoK3iP5-9" target="VSP9IDwHl78DQXSJRnXH-28">
          <mxGeometry relative="1" as="geometry" />
        </mxCell>
        <mxCell id="ca3NleYC3k1WaUoK3iP5-11" value="depends on" style="edgeLabel;html=1;align=center;verticalAlign=middle;resizable=0;points=[];" vertex="1" connectable="0" parent="ca3NleYC3k1WaUoK3iP5-10">
          <mxGeometry x="-0.2369" y="-1" relative="1" as="geometry">
            <mxPoint as="offset" />
          </mxGeometry>
        </mxCell>
        <mxCell id="ca3NleYC3k1WaUoK3iP5-9" value="validate if asset was settled by event" style="ellipse;whiteSpace=wrap;html=1;fillColor=#e1d5e7;strokeColor=#9673a6;" vertex="1" parent="1">
          <mxGeometry x="550" y="760" width="100" height="70" as="geometry" />
        </mxCell>
        <mxCell id="ca3NleYC3k1WaUoK3iP5-13" style="edgeStyle=orthogonalEdgeStyle;rounded=0;orthogonalLoop=1;jettySize=auto;html=1;entryX=0.5;entryY=1;entryDx=0;entryDy=0;" edge="1" parent="1" source="ca3NleYC3k1WaUoK3iP5-12" target="ca3NleYC3k1WaUoK3iP5-9">
          <mxGeometry relative="1" as="geometry" />
        </mxCell>
        <mxCell id="ca3NleYC3k1WaUoK3iP5-12" value="Chainlink Function" style="shape=umlActor;verticalLabelPosition=bottom;verticalAlign=top;html=1;outlineConnect=0;fillColor=#dae8fc;strokeColor=#6c8ebf;" vertex="1" parent="1">
          <mxGeometry x="585" y="930" width="30" height="60" as="geometry" />
        </mxCell>
      </root>
    </mxGraphModel>
  </diagram>
  <diagram id="MV-vjvl67PbJlXR9eXKl" name="Blockshield - Solution Architecture">
    <mxGraphModel dx="954" dy="581" grid="1" gridSize="10" guides="1" tooltips="1" connect="1" arrows="1" fold="1" page="1" pageScale="1" pageWidth="827" pageHeight="1169" math="0" shadow="0">
      <root>
        <mxCell id="0" />
        <mxCell id="1" parent="0" />
        <mxCell id="8q4tUTvbmkVYXoXBBJad-35" value="" style="rounded=0;whiteSpace=wrap;html=1;fillColor=#f8cecc;strokeColor=#b85450;dashed=1;dashPattern=12 12;" vertex="1" parent="1">
          <mxGeometry x="610" y="540" width="190" height="110" as="geometry" />
        </mxCell>
        <mxCell id="8q4tUTvbmkVYXoXBBJad-33" value="" style="rounded=0;whiteSpace=wrap;html=1;fillColor=#f8cecc;strokeColor=#b85450;dashed=1;dashPattern=12 12;" vertex="1" parent="1">
          <mxGeometry x="610" y="160" width="190" height="210" as="geometry" />
        </mxCell>
        <mxCell id="8q4tUTvbmkVYXoXBBJad-20" value="" style="rounded=0;whiteSpace=wrap;html=1;fillColor=#f5f5f5;strokeColor=#666666;fontColor=#333333;dashed=1;dashPattern=12 12;" vertex="1" parent="1">
          <mxGeometry x="40" y="550" width="390" height="110" as="geometry" />
        </mxCell>
        <mxCell id="8q4tUTvbmkVYXoXBBJad-17" value="" style="rounded=0;whiteSpace=wrap;html=1;fillColor=#f5f5f5;strokeColor=#666666;fontColor=#333333;dashed=1;dashPattern=12 12;" vertex="1" parent="1">
          <mxGeometry x="40" y="170" width="390" height="310" as="geometry" />
        </mxCell>
        <mxCell id="8q4tUTvbmkVYXoXBBJad-44" style="edgeStyle=orthogonalEdgeStyle;rounded=0;orthogonalLoop=1;jettySize=auto;html=1;entryX=0.5;entryY=0;entryDx=0;entryDy=0;startArrow=classic;startFill=1;" edge="1" parent="1" source="8q4tUTvbmkVYXoXBBJad-1" target="8q4tUTvbmkVYXoXBBJad-42">
          <mxGeometry relative="1" as="geometry" />
        </mxCell>
        <mxCell id="8q4tUTvbmkVYXoXBBJad-1" value="«Frontend»&lt;br&gt;&lt;b&gt;Blockshield Dapp&lt;/b&gt;" style="html=1;dropTarget=0;whiteSpace=wrap;fillColor=#dae8fc;strokeColor=#6c8ebf;" vertex="1" parent="1">
          <mxGeometry x="240" y="230" width="150" height="70" as="geometry" />
        </mxCell>
        <mxCell id="8q4tUTvbmkVYXoXBBJad-2" value="" style="shape=module;jettyWidth=8;jettyHeight=4;fillColor=#dae8fc;strokeColor=#6c8ebf;" vertex="1" parent="8q4tUTvbmkVYXoXBBJad-1">
          <mxGeometry x="1" width="20" height="20" relative="1" as="geometry">
            <mxPoint x="-27" y="7" as="offset" />
          </mxGeometry>
        </mxCell>
        <mxCell id="8q4tUTvbmkVYXoXBBJad-3" value="«Frontend»&lt;br&gt;&lt;b&gt;Blockshield Onepage&lt;/b&gt;" style="html=1;dropTarget=0;whiteSpace=wrap;fillColor=#dae8fc;strokeColor=#6c8ebf;" vertex="1" parent="1">
          <mxGeometry x="80" y="230" width="150" height="70" as="geometry" />
        </mxCell>
        <mxCell id="8q4tUTvbmkVYXoXBBJad-4" value="" style="shape=module;jettyWidth=8;jettyHeight=4;fillColor=#dae8fc;strokeColor=#6c8ebf;" vertex="1" parent="8q4tUTvbmkVYXoXBBJad-3">
          <mxGeometry x="1" width="20" height="20" relative="1" as="geometry">
            <mxPoint x="-27" y="7" as="offset" />
          </mxGeometry>
        </mxCell>
        <mxCell id="8q4tUTvbmkVYXoXBBJad-48" style="edgeStyle=orthogonalEdgeStyle;rounded=0;orthogonalLoop=1;jettySize=auto;html=1;entryX=0.25;entryY=0;entryDx=0;entryDy=0;startArrow=classic;startFill=1;" edge="1" parent="1" source="8q4tUTvbmkVYXoXBBJad-5" target="8q4tUTvbmkVYXoXBBJad-42">
          <mxGeometry relative="1" as="geometry" />
        </mxCell>
        <mxCell id="8q4tUTvbmkVYXoXBBJad-5" value="«Backend»&lt;br&gt;&lt;b&gt;Blockshield Insurance Service&lt;/b&gt;" style="html=1;dropTarget=0;whiteSpace=wrap;fillColor=#ffe6cc;strokeColor=#d79b00;" vertex="1" parent="1">
          <mxGeometry x="240" y="390" width="150" height="70" as="geometry" />
        </mxCell>
        <mxCell id="8q4tUTvbmkVYXoXBBJad-6" value="" style="shape=module;jettyWidth=8;jettyHeight=4;fillColor=#ffe6cc;strokeColor=#d79b00;" vertex="1" parent="8q4tUTvbmkVYXoXBBJad-5">
          <mxGeometry x="1" width="20" height="20" relative="1" as="geometry">
            <mxPoint x="-27" y="7" as="offset" />
          </mxGeometry>
        </mxCell>
        <mxCell id="8q4tUTvbmkVYXoXBBJad-7" value="" style="rounded=0;orthogonalLoop=1;jettySize=auto;html=1;endArrow=halfCircle;endFill=0;endSize=6;strokeWidth=1;sketch=0;exitX=0.5;exitY=1;exitDx=0;exitDy=0;" edge="1" target="8q4tUTvbmkVYXoXBBJad-9" parent="1" source="8q4tUTvbmkVYXoXBBJad-1">
          <mxGeometry relative="1" as="geometry">
            <mxPoint x="430" y="295" as="sourcePoint" />
          </mxGeometry>
        </mxCell>
        <mxCell id="8q4tUTvbmkVYXoXBBJad-11" value="rest/https" style="edgeLabel;html=1;align=center;verticalAlign=middle;resizable=0;points=[];" vertex="1" connectable="0" parent="8q4tUTvbmkVYXoXBBJad-7">
          <mxGeometry x="-0.2" y="2" relative="1" as="geometry">
            <mxPoint as="offset" />
          </mxGeometry>
        </mxCell>
        <mxCell id="8q4tUTvbmkVYXoXBBJad-8" value="" style="rounded=0;orthogonalLoop=1;jettySize=auto;html=1;endArrow=oval;endFill=0;sketch=0;sourcePerimeterSpacing=0;targetPerimeterSpacing=0;endSize=10;exitX=0.5;exitY=0;exitDx=0;exitDy=0;" edge="1" target="8q4tUTvbmkVYXoXBBJad-9" parent="1" source="8q4tUTvbmkVYXoXBBJad-5">
          <mxGeometry relative="1" as="geometry">
            <mxPoint x="390" y="295" as="sourcePoint" />
          </mxGeometry>
        </mxCell>
        <mxCell id="8q4tUTvbmkVYXoXBBJad-10" value="rest/https" style="edgeLabel;html=1;align=center;verticalAlign=middle;resizable=0;points=[];" vertex="1" connectable="0" parent="8q4tUTvbmkVYXoXBBJad-8">
          <mxGeometry x="-0.1111" y="-1" relative="1" as="geometry">
            <mxPoint as="offset" />
          </mxGeometry>
        </mxCell>
        <mxCell id="8q4tUTvbmkVYXoXBBJad-9" value="" style="ellipse;whiteSpace=wrap;html=1;align=center;aspect=fixed;fillColor=none;strokeColor=none;resizable=0;perimeter=centerPerimeter;rotatable=0;allowArrows=0;points=[];outlineConnect=1;" vertex="1" parent="1">
          <mxGeometry x="310" y="340" width="10" height="10" as="geometry" />
        </mxCell>
        <mxCell id="8q4tUTvbmkVYXoXBBJad-12" value="Insurance DB" style="shape=cylinder3;whiteSpace=wrap;html=1;boundedLbl=1;backgroundOutline=1;size=15;fillColor=#d5e8d4;strokeColor=#82b366;" vertex="1" parent="1">
          <mxGeometry x="205" y="565" width="60" height="80" as="geometry" />
        </mxCell>
        <mxCell id="8q4tUTvbmkVYXoXBBJad-15" style="edgeStyle=orthogonalEdgeStyle;rounded=0;orthogonalLoop=1;jettySize=auto;html=1;entryX=0.5;entryY=0;entryDx=0;entryDy=0;" edge="1" parent="1" source="8q4tUTvbmkVYXoXBBJad-14" target="8q4tUTvbmkVYXoXBBJad-3">
          <mxGeometry relative="1" as="geometry" />
        </mxCell>
        <mxCell id="8q4tUTvbmkVYXoXBBJad-16" style="edgeStyle=orthogonalEdgeStyle;rounded=0;orthogonalLoop=1;jettySize=auto;html=1;startArrow=classic;startFill=1;" edge="1" parent="1" source="8q4tUTvbmkVYXoXBBJad-14" target="8q4tUTvbmkVYXoXBBJad-1">
          <mxGeometry relative="1" as="geometry" />
        </mxCell>
        <mxCell id="8q4tUTvbmkVYXoXBBJad-14" value="NGINX Gateway" style="rounded=0;whiteSpace=wrap;html=1;fillColor=#d5e8d4;strokeColor=#82b366;" vertex="1" parent="1">
          <mxGeometry x="80" y="155" width="310" height="30" as="geometry" />
        </mxCell>
        <mxCell id="8q4tUTvbmkVYXoXBBJad-19" value="" style="image;sketch=0;aspect=fixed;html=1;points=[];align=center;fontSize=12;image=img/lib/mscae/Docker.svg;" vertex="1" parent="1">
          <mxGeometry x="50" y="430" width="50" height="41" as="geometry" />
        </mxCell>
        <mxCell id="8q4tUTvbmkVYXoXBBJad-21" value="" style="dashed=0;outlineConnect=0;html=1;align=center;labelPosition=center;verticalLabelPosition=bottom;verticalAlign=top;shape=mxgraph.weblogos.mongodb" vertex="1" parent="1">
          <mxGeometry x="250" y="565" width="25" height="35" as="geometry" />
        </mxCell>
        <mxCell id="8q4tUTvbmkVYXoXBBJad-22" value="&lt;b&gt;Mongo Atlas Cluster&lt;/b&gt;" style="text;html=1;align=center;verticalAlign=middle;whiteSpace=wrap;rounded=0;" vertex="1" parent="1">
          <mxGeometry x="40" y="550" width="140" height="30" as="geometry" />
        </mxCell>
        <mxCell id="8q4tUTvbmkVYXoXBBJad-23" style="edgeStyle=orthogonalEdgeStyle;rounded=0;orthogonalLoop=1;jettySize=auto;html=1;entryX=0.5;entryY=0;entryDx=0;entryDy=0;entryPerimeter=0;startArrow=classic;startFill=1;" edge="1" parent="1" source="8q4tUTvbmkVYXoXBBJad-5" target="8q4tUTvbmkVYXoXBBJad-12">
          <mxGeometry relative="1" as="geometry" />
        </mxCell>
        <mxCell id="8q4tUTvbmkVYXoXBBJad-24" value="tcp/ip" style="edgeLabel;html=1;align=center;verticalAlign=middle;resizable=0;points=[];" vertex="1" connectable="0" parent="8q4tUTvbmkVYXoXBBJad-23">
          <mxGeometry x="0.0216" y="1" relative="1" as="geometry">
            <mxPoint as="offset" />
          </mxGeometry>
        </mxCell>
        <mxCell id="8q4tUTvbmkVYXoXBBJad-26" style="edgeStyle=orthogonalEdgeStyle;rounded=0;orthogonalLoop=1;jettySize=auto;html=1;" edge="1" parent="1" source="8q4tUTvbmkVYXoXBBJad-25" target="8q4tUTvbmkVYXoXBBJad-14">
          <mxGeometry relative="1" as="geometry" />
        </mxCell>
        <mxCell id="8q4tUTvbmkVYXoXBBJad-25" value="Blockshield Client" style="shape=umlActor;verticalLabelPosition=bottom;verticalAlign=top;html=1;outlineConnect=0;fillColor=#f8cecc;strokeColor=#b85450;" vertex="1" parent="1">
          <mxGeometry x="220" y="20" width="30" height="60" as="geometry" />
        </mxCell>
        <mxCell id="8q4tUTvbmkVYXoXBBJad-27" value="«Smart Contract»&lt;br&gt;&lt;b&gt;RWA Asset&lt;/b&gt;" style="html=1;dropTarget=0;whiteSpace=wrap;fillColor=#dae8fc;strokeColor=#6c8ebf;" vertex="1" parent="1">
          <mxGeometry x="630" y="180" width="150" height="70" as="geometry" />
        </mxCell>
        <mxCell id="8q4tUTvbmkVYXoXBBJad-28" value="" style="shape=module;jettyWidth=8;jettyHeight=4;fillColor=#dae8fc;strokeColor=#6c8ebf;" vertex="1" parent="8q4tUTvbmkVYXoXBBJad-27">
          <mxGeometry x="1" width="20" height="20" relative="1" as="geometry">
            <mxPoint x="-27" y="7" as="offset" />
          </mxGeometry>
        </mxCell>
        <mxCell id="8q4tUTvbmkVYXoXBBJad-29" value="«Smart Contract»&lt;br&gt;&lt;b&gt;Blockshield RWA Asset&lt;/b&gt;" style="html=1;dropTarget=0;whiteSpace=wrap;fillColor=#dae8fc;strokeColor=#6c8ebf;" vertex="1" parent="1">
          <mxGeometry x="630" y="280" width="150" height="70" as="geometry" />
        </mxCell>
        <mxCell id="8q4tUTvbmkVYXoXBBJad-30" value="" style="shape=module;jettyWidth=8;jettyHeight=4;fillColor=#dae8fc;strokeColor=#6c8ebf;" vertex="1" parent="8q4tUTvbmkVYXoXBBJad-29">
          <mxGeometry x="1" width="20" height="20" relative="1" as="geometry">
            <mxPoint x="-27" y="7" as="offset" />
          </mxGeometry>
        </mxCell>
        <mxCell id="8q4tUTvbmkVYXoXBBJad-31" value="«Smart Contract»&lt;br&gt;&lt;b&gt;Smart Wallet&lt;/b&gt;" style="html=1;dropTarget=0;whiteSpace=wrap;fillColor=#dae8fc;strokeColor=#6c8ebf;" vertex="1" parent="1">
          <mxGeometry x="630" y="560" width="150" height="70" as="geometry" />
        </mxCell>
        <mxCell id="8q4tUTvbmkVYXoXBBJad-32" value="" style="shape=module;jettyWidth=8;jettyHeight=4;fillColor=#dae8fc;strokeColor=#6c8ebf;" vertex="1" parent="8q4tUTvbmkVYXoXBBJad-31">
          <mxGeometry x="1" width="20" height="20" relative="1" as="geometry">
            <mxPoint x="-27" y="7" as="offset" />
          </mxGeometry>
        </mxCell>
        <mxCell id="8q4tUTvbmkVYXoXBBJad-34" value="&lt;b&gt;Polygon Blockchain&lt;/b&gt;" style="text;html=1;align=center;verticalAlign=middle;whiteSpace=wrap;rounded=0;" vertex="1" parent="1">
          <mxGeometry x="630" y="130" width="140" height="30" as="geometry" />
        </mxCell>
        <mxCell id="8q4tUTvbmkVYXoXBBJad-36" value="&lt;b&gt;Avalanche Blockchain&lt;/b&gt;" style="text;html=1;align=center;verticalAlign=middle;whiteSpace=wrap;rounded=0;" vertex="1" parent="1">
          <mxGeometry x="635" y="650" width="140" height="30" as="geometry" />
        </mxCell>
        <mxCell id="8q4tUTvbmkVYXoXBBJad-38" style="edgeStyle=orthogonalEdgeStyle;rounded=0;orthogonalLoop=1;jettySize=auto;html=1;entryX=0.5;entryY=1;entryDx=0;entryDy=0;exitX=0.5;exitY=0;exitDx=0;exitDy=0;" edge="1" parent="1" source="8q4tUTvbmkVYXoXBBJad-37" target="8q4tUTvbmkVYXoXBBJad-33">
          <mxGeometry relative="1" as="geometry" />
        </mxCell>
        <mxCell id="8q4tUTvbmkVYXoXBBJad-40" style="edgeStyle=orthogonalEdgeStyle;rounded=0;orthogonalLoop=1;jettySize=auto;html=1;entryX=0.5;entryY=0;entryDx=0;entryDy=0;" edge="1" parent="1" source="8q4tUTvbmkVYXoXBBJad-37" target="8q4tUTvbmkVYXoXBBJad-35">
          <mxGeometry relative="1" as="geometry" />
        </mxCell>
        <mxCell id="8q4tUTvbmkVYXoXBBJad-49" style="edgeStyle=orthogonalEdgeStyle;rounded=0;orthogonalLoop=1;jettySize=auto;html=1;entryX=0.75;entryY=1;entryDx=0;entryDy=0;" edge="1" parent="1" source="8q4tUTvbmkVYXoXBBJad-37" target="8q4tUTvbmkVYXoXBBJad-5">
          <mxGeometry relative="1" as="geometry">
            <Array as="points">
              <mxPoint x="495" y="451" />
              <mxPoint x="495" y="520" />
              <mxPoint x="353" y="520" />
            </Array>
          </mxGeometry>
        </mxCell>
        <mxCell id="8q4tUTvbmkVYXoXBBJad-50" value="Function Request" style="edgeLabel;html=1;align=center;verticalAlign=middle;resizable=0;points=[];" vertex="1" connectable="0" parent="8q4tUTvbmkVYXoXBBJad-49">
          <mxGeometry x="-0.2546" y="-1" relative="1" as="geometry">
            <mxPoint as="offset" />
          </mxGeometry>
        </mxCell>
        <mxCell id="8q4tUTvbmkVYXoXBBJad-37" value="" style="shape=image;verticalLabelPosition=bottom;verticalAlign=top;imageAspect=0;image=data:image/png,iVBORw0KGgoAAAANSUhEUgAAAcwAAAHCCAYAAABi0fn2AAAKrWlDQ1BJQ0MgUHJvZmlsZQAASImVlwdQU1kXgO976SGhJSCd0JsgnQBSQmgBpHcbIQkQSgiBgGJHxBVYUUREUBF0VUTBtQCyFkAU2yKgYHdBFgFlXSzYUPkfMITd/ef///nPzJnzvfPOPffcO/e+OQ8AsixbKEyGZQFIEWSIgr3caJFR0TTcCEADHCACAiCyOelCRmCgH0Bkzv5dPvQBaNreNZ3O9e/v/6vIcXnpHACgQIRjuemcFITPIvqSIxRlAIA6iPh1sjKE09yOMFWEFIjwg2mOn+WxaY6dYTSYiQkNZiJMBQBPYrNF8QCQaIiflsmJR/KQXBE2F3D5AoSFCDunpKRyET6FsCESg/hI0/npsX/JE/+3nLGSnGx2vIRn1zIjeHd+ujCZvfr/3I7/LSnJ4rk59BElJYi8gxErj+zZg6RUXwkLYv0D5pjPnYmf4QSxd9gcc9KZ0XPMZbv7SsYm+/vNcRzfkyXJk8EKnWNeukfIHItSgyVzxYmYjDlmi+bnFSeFSfwJPJYkf3ZCaMQcZ/LD/ec4PSnEdz6GKfGLxMGS+nkCL7f5eT0la09J/8t6+SzJ2IyEUG/J2tnz9fMEjPmc6ZGS2rg8d4/5mDBJvDDDTTKXMDlQEs9L9pL40zNDJGMzkAM5PzZQsoeJbJ/AOQZMkAqSERUBGvBDntwByOCtypheCDNVuFrEj0/IoDGQG8ajsQQcs4U0S3NLawCm7+vscZhYPnMPIermed+WBuR4t05NTV2a93mPAnAqEQBi47zP0BYA2V4ArjdyxKLMWd/MXcIgXwEZQAXKQAPoAENgCiyBLXAErsAD+IAAEAqiwArAAQkgBak8C6wFm0AeKAA7wG5QDirBIXAMnASnQSO4AFrBNXALdIFe8Bj0gyHwCoyDD2ASgiAcRIYokDKkCelBJpAlRIecIQ/IDwqGoqAYKB4SQGJoLbQZKoCKoXKoCqqBfobOQ63QDagbeggNQKPQW+gLjIJJMBVWh/XhRTAdZsC+cCi8HI6H0+BsOBfeDpfB1fAJuAFuhW/BvXA//AqeQAGUFEoRpYUyRdFRTFQAKhoVhxKh1qPyUaWoalQdqhnVgbqL6keNoT6jsWgKmoY2RTuivdFhaA46Db0eXYguRx9DN6Db0XfRA+hx9HcMGaOGMcE4YFiYSEw8JguThynFHMGcw1zF9GKGMB+wWKwi1gBrh/XGRmETsWuwhdj92HpsC7YbO4idwOFwyjgTnBMuAMfGZeDycHtxJ3CXcT24IdwnvBReE2+J98RH4wX4HHwp/jj+Er4HP4yfJMgS9AgOhAACl7CaUEQ4TGgm3CEMESaJckQDohMxlJhI3EQsI9YRrxKfEN9JSUlpS9lLBUnxpTZKlUmdkrouNSD1mSRPMiYxSctIYtJ20lFSC+kh6R2ZTNYnu5KjyRnk7eQa8hXyM/InaYq0mTRLmiu9QbpCukG6R/q1DEFGT4Yhs0ImW6ZU5ozMHZkxWYKsvixTli27XrZC9rzsfdkJOYqchVyAXIpcodxxuRtyI/I4eX15D3mufK78Ifkr8oMUFEWHwqRwKJsphylXKUNULNWAyqImUguoJ6md1HEFeQVrhXCFVQoVChcV+hVRivqKLMVkxSLF04p9il8WqC9gLOAt2LagbkHPgo9KqkquSjylfKV6pV6lL8o0ZQ/lJOWdyo3KT1XQKsYqQSpZKgdUrqqMqVJVHVU5qvmqp1UfqcFqxmrBamvUDqndVptQ11D3Uheq71W/oj6moajhqpGoUaJxSWNUk6LprMnXLNG8rPmSpkBj0JJpZbR22riWmpa3llirSqtTa1LbQDtMO0e7XvupDlGHrhOnU6LTpjOuq6m7RHetbq3uIz2CHl0vQW+PXofeR30D/Qj9rfqN+iMGSgYsg2yDWoMnhmRDF8M0w2rDe0ZYI7pRktF+oy5j2NjGOMG4wviOCWxia8I32W/SvRCz0H6hYGH1wvumJFOGaaZpremAmaKZn1mOWaPZ60W6i6IX7VzUsei7uY15svlh88cW8hY+FjkWzRZvLY0tOZYVlvesyFaeVhusmqzeWJtY86wPWD+wodgssdlq02bzzdbOVmRbZztqp2sXY7fP7j6dSg+kF9Kv22Ps3ew32F+w/+xg65DhcNrhT0dTxyTH444jiw0W8xYfXjzopO3Edqpy6nemOcc4H3Tud9FyYbtUuzx31XHluh5xHWYYMRIZJxiv3czdRG7n3D4yHZjrmC3uKHcv93z3Tg95jzCPco9nntqe8Z61nuNeNl5rvFq8Md6+3ju977PUWRxWDWvcx85nnU+7L8k3xLfc97mfsZ/Ir3kJvMRnya4lT/z1/AX+jQEggBWwK+BpoEFgWuAvQdigwKCKoBfBFsFrgztCKCErQ46HfAh1Cy0KfRxmGCYOawuXCV8WXhP+McI9ojiiP3JR5LrIW1EqUfyopmhcdHj0keiJpR5Ldy8dWmazLG9Z33KD5auW31ihsiJ5xcWVMivZK8/EYGIiYo7HfGUHsKvZE7Gs2H2x4xwmZw/nFdeVW8Id5TnxinnDcU5xxXEj8U7xu+JHE1wSShPG+Ex+Of9NondiZeLHpICko0lTyRHJ9Sn4lJiU8wJ5QZKgPVUjdVVqt9BEmCfsT3NI2502LvIVHUmH0penN2VQkcbotthQvEU8kOmcWZH5KSs868wquVWCVbdXG6/etno42zP7pzXoNZw1bWu11m5aO7COsa5qPbQ+dn3bBp0NuRuGNnptPLaJuClp06855jnFOe83R2xuzlXP3Zg7uMVrS22edJ4o7/5Wx62VP6B/4P/Quc1q295t3/O5+TcLzAtKC74Wcgpv/mjxY9mPU9vjtncW2RYd2IHdIdjRt9Nl57FiueLs4sFdS3Y1lNBK8kve7165+0apdWnlHuIe8Z7+Mr+ypr26e3fs/VqeUN5b4VZRv09t37Z9H/dz9/cccD1QV6leWVD55SD/4IMqr6qGav3q0kPYQ5mHXhwOP9zxE/2nmiMqRwqOfDsqONp/LPhYe41dTc1xteNFtXCtuHb0xLITXSfdTzbVmdZV1SvWF5wCp8SnXv4c83Pfad/TbWfoZ+rO6p3dd45yLr8BaljdMN6Y0NjfFNXUfd7nfFuzY/O5X8x+OXpB60LFRYWLRZeIl3IvTV3OvjzRImwZa41vHWxb2fb4SuSVe+1B7Z1Xfa9ev+Z57UoHo+PydafrF2443Dh/k36z8ZbtrYbbNrfP/Wrz67lO286GO3Z3mrrsu5q7F3df6nHpab3rfvfaPda9W73+vd19YX0P7i+73/+A+2DkYfLDN48yH00+3vgE8yT/qezT0mdqz6p/M/qtvt+2/+KA+8Dt5yHPHw9yBl/9nv7716HcF+QXpcOawzUjliMXRj1Hu14ufTn0SvhqcizvD7k/9r02fH32T9c/b49Hjg+9Eb2Zelv4Tvnd0ffW79smAieefUj5MPkx/5Pyp2Of6Z87vkR8GZ7M+or7WvbN6Fvzd9/vT6ZSpqaEbBF7phVAIQrHxQHw9igA5CgAKF1I/7B0tp+eEWj2H2CGwH/i2Z57RpB+ow4x020RswXpRxDV3wiAjCsAgQiHugLYykqic73vTJ8+LVjkj+Wg9TT1KGZ+Bf+Q2R7+L3X/04LprDPD/2b/BbDpCG3MG1LEAAAAimVYSWZNTQAqAAAACAAEARoABQAAAAEAAAA+ARsABQAAAAEAAABGASgAAwAAAAEAAgAAh2kABAAAAAEAAABOAAAAAAAAAJAAAAABAAAAkAAAAAEAA5KGAAcAAAASAAAAeKACAAQAAAABAAABzKADAAQAAAABAAABwgAAAABBU0NJSQAAAFNjcmVlbnNob3Se9VzoAAAACXBIWXMAABYlAAAWJQFJUiTwAAAB1mlUWHRYTUw6Y29tLmFkb2JlLnhtcAAAAAAAPHg6eG1wbWV0YSB4bWxuczp4PSJhZG9iZTpuczptZXRhLyIgeDp4bXB0az0iWE1QIENvcmUgNi4wLjAiPgogICA8cmRmOlJERiB4bWxuczpyZGY9Imh0dHA6Ly93d3cudzMub3JnLzE5OTkvMDIvMjItcmRmLXN5bnRheC1ucyMiPgogICAgICA8cmRmOkRlc2NyaXB0aW9uIHJkZjphYm91dD0iIgogICAgICAgICAgICB4bWxuczpleGlmPSJodHRwOi8vbnMuYWRvYmUuY29tL2V4aWYvMS4wLyI+CiAgICAgICAgIDxleGlmOlBpeGVsWURpbWVuc2lvbj40NTA8L2V4aWY6UGl4ZWxZRGltZW5zaW9uPgogICAgICAgICA8ZXhpZjpQaXhlbFhEaW1lbnNpb24+NDYwPC9leGlmOlBpeGVsWERpbWVuc2lvbj4KICAgICAgICAgPGV4aWY6VXNlckNvbW1lbnQ+U2NyZWVuc2hvdDwvZXhpZjpVc2VyQ29tbWVudD4KICAgICAgPC9yZGY6RGVzY3JpcHRpb24+CiAgIDwvcmRmOlJERj4KPC94OnhtcG1ldGE+CiH+dXAAAAAcaURPVAAAAAIAAAAAAAAA4QAAACgAAADhAAAA4QAAmSjYDQLeAABAAElEQVR4AexdB2AcxdV+tiRbXbKKO8VAKKH33nvvvZgWEhJCTSeEhCQQQuAHAiH03nsxzWCagdB77+5W7932/32zO3tze3vSSb477Z1mbN1O35038/bbefPmzahlcGKdpYClgKWApYClgKVAvxQYZQGzX/rYREsBSwFLAUsBSwFFAQuYdiBYClgKWApYClgKJEABC5gJEMlmsRSwFLAUsBSwFLCAaceApYClgKWApYClQAIUsICZAJFsFksBSwFLAUsBSwELmHYMWApYClgKWApYCiRAAQuYCRDJZrEUsBSwFLAUsBSwgGnHgKWApYClgKWApUACFLCAmQCRbBZLAUsBSwFLAUsBC5h2DFgKLAcFtJ0sZS7LsJnleJ3fpby4afTrMuZtg+LM9FEMqB8zVmT06Ojo0czjZo7KjoAbHVRNdKU2ZClgKRBIAQuYgWSxkZYC0RRwgG6ZAjuCG/8UECKbwkIX8ZSfcdoTXU3aQhoceUMPOEeNUn6G4fX+RjPeDaftAe2NLAUykAIWMDOw0+wjp4YCDvA5QLgUaLh0qesfbvRLTXNjaiWQjsYUlbNUAqj2E2WZZp2lwEingAXMkT4CRmD79eyQ5w5oESnjnPhhnhqGrD8IlKOMGagDps6MVANryB7ZPo6lQMooYAEzZaS1FYeFAgRFPWNcgoCeSVpoHHoPqRknfijOJXByNprD9VSVMPR6bUlLgTBTwAJmmHvHPtugKMAZIp0CSM4el4gswVXHO6n2N5UUIIASOKmMpNdGrUg3lRS3daeTAhYw00lte6+kU4BgyFmjXm/UYtak38hWOGgKcLLJGSdFugTQHM5E8WMnoYMmpS0QEgpYwAxJR9jHSJwCBMm+Jcvwx9mkFawmTrlw5Mxxxbe5BE+LnuHoFPsUCVHAAmZCZLKZhosChMNlrrZqZCZpQXK4+iOZ9yVWak1cZ/3TmYkm8x62LkuBZFLAAmYyqWnrShoFKGJdwlmkq6RjJ5JJI20oK1ITTfzoNVA7+wxlN434h7KAOeKHQDgIQEBUolauR7rKOuF4MvsUw0UBLbrNcdc9rfh2uHrC3ldTwAKmpoS9DgsFKGZd4q5FclZpha3D0g2hvimBkltXFIACPOm3zlJgOChgAXM4qD7C76lmkhC39uLPilpH+GAYQvMpts3LFaHY1jpLgXRSwAJmOqk9gu+lt304M0rXeMAIpodt+vJTgNtVqCyUq/Z9Wo3b5aeorWEgCljAHIhCNn25KECA5PYPXu1scrlIaQvHoQDnmRTbUmTLWSf3fFpnKZAKCljATAVVR3idBEYCZG+fY6t1hJPDNj/NFCBwUmTrWRpK8/3t7bKXAhYws7dv09oyKussVdtAXLutVnsnrfS3N4ulgFIUwoyTYluCqHWWAstLAQuYy0tBW16JXHv7lnrnQ1qSWAqEjQLOrNMBz7A9m32ezKGABczM6atQPSkkro5hAWueLlT9Yh+mfwo465zOjJPrntZZCgyGAhYwB0Mtmxdrk44dV3VclhW72hGRoRSghJYKQtaiUIZ24DA9tgXMYSJ8pt2WM0oq8dDouXWWAtlCAU4y83ItcGZLf6a6HRYwU03hDK6f0Mj9kwRJuy0kgzvSPvqAFFA2bHOcWafVDxqQXCM2gwXMEdv1/Tecole1LYT7J/vPalMtBbKGAno/5xjMOu0aZ9Z0a9IaYgEzaaTMjoo4o6TJOit6zY7+tK0YGgVoRSgPM04afrczzqHRMBtLWcDMxl4dQpu0Mo8VvQ6BeLZI1lKAYKk0azHjtMCZtd2ccMMsYCZMquzMSKs8PVaZJzs717YqaRRwlINGKwtCSavUVpRxFLCAmXFdlpwHptYrxa59AEu7Rpkcmtpasp8C+qQUzjrtGmf297e/hRYw/RQZAeHePq5TLrXG0EdAX9smpoYCFM/q7SipuYOtNYwUsIAZxl5JwTNR9Kr2UvZii4g9NiQFFLZVjkQK0PABgdOub46M3reAOQL6mVZ5emHCzmq+joDOtk1MOwUomlXACfC0Ytq0kz+tN7SAmVZyp/9mVOjhfkrrLAUsBVJLASoGjclzrAal9k629uGigAXM4aJ8Cu/rnEdJwwP2BJEUktlWbSkQSIFcyGeVmNYeZB1In0yOtICZyb0X8OzeOiU8dl4ZQCAbZSmQBgooMa0LnFZMmwaCp+kWFjDTROhU34bguATbRHqg1GOBMtXUTn39NCDBrQvWZTYFuA2FYloeYm1d5lPAAmbm96E6covm7AiY1mU2BaiY9e7n7fLWJ+2y0ZqFsuV6JZndIPv0ws8erU1rZ5uZPSAsYGZ2/2Gd0lmrtFCZ4R2Jx29q7ZPL714ks99tUVuA+KLdeO1i+d30yVJRlpv5DRzhLSBY0qg7wdO6zKSABczM7Dd17BY1YCm6sy6zKVDX1CcvvNUsD86ql/wxo2WfbStkr63Hycw3muTRF+ulrXOpHL1XlWyF2WZVeZ7dupDZ3e0ZPLAS98zrSAuYmddnapsIRbDW/kAGdp7xyJxnzHi1SR57sUHm1fTIYbtVyp5bjZOJFWNULvbv4oYeeeZ/TXLr4zWy8uR8OXjnCtkDecSuVBuUzDwvwTIvdzRmm5n37CP5iS1gZlDvczJJpR47q8ygTgt4VPbffADkZXcslI++6pDN1y2Ws46eAqDMU7mDPoTaOpbIhTfPk9c+aJE1pxXKOcdOAoCOtYpBAfTNpKg8iGepFGRdZlDAAmZm9JOy0qMOdLYS2AzpsdjHJBDOXdwjj7/cKM+/2SQrTxorB+1UKVusUyJjIYrVLggwlyGyu2epvPZRqzzxSqN8v6Bbdtq0VHbfqlymYeY5OlJcV2OvGUIBakNz36bVpA1/h1nADHkfER85q7Rm7ULeUQM8Hg8kvndmrdz7dL20tC+V3xw/WbZdv1SKCmJlcvEAU9+ivXOJvPx+q1x170IZmzdajtyjSg7ZpUIn22sGUoAKQZxtEjitCy8FLGCGt2+UYk93r7XWE+IuGvDRKBV4D9tErnuoRmobe2Snzcrk5P0nSFmxo/UaDI6x1XKG6XedXUvlPw8ulJfeaZHxlXlyEurdcI3CqNmqv4wNh5sCevuJVQgKZz9ZwAxnv1jFnpD2S6KPRXz74odOuWNGrbz/ZYdsvX6JHLBjpay1ckHUtoIAHDSUuSIgaebzYhFJTekv53TKw1AcevuTNll/9SI5cMcK2XDNokQf1eYLGQUIltx+kmO3n4SsZ0QsYIauSwRrVRDB2u0iIeyZgR+JYLYMfXfLE7Vy+xN1UpA/Wi44dapssXZpYGETCJlBgWEEEVWZ6DhDP9YtrO6Jn7c/a5O/XT9P2rqWYBtKtRy3T7US8wXe2EaGngJjoEWbZ7ffhqqfLGCGqDuWLgVYYsbA47isyzwKdGC/5Ewo8zzwXD2sLonst32FHAylnkKAph8Ydev88Qr8fP0fJI71l2N9jGuFNu0jLzXIM683wfjBMjl6z2rZfuNSKS2KXSvVz2Cv4aWAFdGGq28sYIakP6jUQ/Fa0IswJI9oHyMOBfihw9nd9Vin5HaR/bYfJ4fsXCkTxsHIgG8xyt+//jBv4QdIf9jJE/swui5+cNU09snjsxvkoVkNMmX8GDn5gPGyFcTC1mUeBWiPdiy2nlhN6OHvOwuYw9wHfMlpsBzmR7G3HyQF+vCBU9PUK3c+WScvvt2i9kWeeuhE2RDriMqhbzljNJ0GNR3nDzPeD5D+sJNH1xC5BtX18Tcdcu1Di+SbediGAoWjI3avkinVeXZ9LEK2jPBRd5Zbj+zWk+HtLguYw0h/vuDUlhGfCG4YH8neOkEKtEP8etdTtTLzf81SUZ4rh2JGuctm5ZJrbgsIAWByjHVh/+ZLsE9LUW09AH73LcvlwJ0qpBozYOsyiwLcdkKFIOuGhwIWMIeH7mqdsotHcfmnIMP0PPa2iVGAr6pZsPt6ye0L1ekwx+9XLcfsUe1Z3InqzhQAple/6/HCfPwB7sfTbG6ZUSP3PVsvJVjTPP3IScr4QWItt7nCQgGKaPPHjLI2hYehQyxgDgPRqRDS02f3Vw4D6Yd8S0oCPvm2Q60JfgIx56Y4ReSI3apk9RULnBdXAIAFfQz542LCfEJfpCmS9QAy4H4DAaau+tv5XXLvs3Vq3XWd1Qphn7ZS1lm1wO7fHPLoSH9BWgfiTNOua6aX9hYw00hvvuO4kZ1rX96LL433t7caGgUaWvrk2gcWyyvvtcga2Ed5EhRo1lmlKMoGqA/j1I0SifPnUePCF+nXmvYlO2PJN6Bi8vjSKab9ak6X3PF0jbpuuk6x/ATtmlTtGH4fGqVsqXRSgNaBxgI07X7N9FHdAmaaaM33FcGSf9ZlBgXaYIJu5hvN8p/7Fkt5cY6ccvAE2Webcf4JoGqMB1Do3qgeHiiM0uYMkpV5dbk1RcLqVkZ6cDi6juA8uk5qZj/1eiPEtHXS0b1UTjlovOy4aZmUFOZYkZ9DutD/UoPWnrGZnm6ygJkGOvPlRBN3S7D9wLrwU6AHffUsgPIZHL21uKEX51OOk70AlJOrxgjXMAcFiCEHTN0bC+p6FHA++WqjrIBtKPvDWtCOG5fJGKyVWRduCrCHCJj21JPU95MFzBTT2IJligmc5OoX1vXKP2+ZL+990S5bb1AivzpmskyoBFAaSJnJgMlnV89vNEJ7qRTU1LZE/n3vAnkLZvYofv719Mk4DWVskqlsq0sFBXK5rklloFRUbutUFLCAmcKBwA3tFHnZ8ytTSOQkVT0Px27NfKNJ7nmmXlZfKV+dALLTJmXedNIEGQ0w6tYILFcYlfQnkjXvy/uZYe++rscLqzqZO+K0CJYxgXV4CVg6AHC+8XGrUgzizPOQXSqVNu0KE8eKzw5D5AbWFwoKqJkm1jXVB14onii7HsICZor6k5qw3dCENV9UKbqVrXY5KMATP+6FKbuZr8GUHOr52UETZDMowIwrDThNBEhjghJv6+/fwYadOiK1mmDGu0WH44CdWzxSS//PZdZpltGN0+lNbX3yOs7fvPGRRVKK01X236FC9ocVI9rHtS68FKDmLI99sx83ye8jC5jJp6laq+xWeyyjXkcpuJOtcnkoUNfUJ+ddM0e+/qFL9sQ65RlHTJRinE9p9loUACLBTOO9o9KHEHbqiNSqfF4wyYC5LPYDznx+02+2jZKSK+7HMWJvN0t1RZ787ecryLQp+cxiXUgpQLCkZSALmsntIAuYyaWnY+aOYJnkem11yafA13O75KxLv5cLT1tRNsO+St1pZt9FgQgSzDQ+UVT6kMLRNaoQ76MqdtLMe5h+TREzzvTHPh/GZfTtosL9pXFZ4WPsQz3vv3Pl3JOnyI4UV1sXagoo0ORM0woEktZPFjCTRkrahKWpO3zFJ7FOW1XqKMBzJM+59AeZec2P1U20soTqP7cTo/oSAS/sTwfaeGmorT/wYcbovGbILOvEm3WZfk0ZM870Mz06PHTApMm/PGxf2O0Xn8q5P5kqO+AEFOvCTwELmsntIwuYSaIn91dSwce6zKGABszHLltDgUEOPsX5Na560e1Kr0cHDIcbMPn46gn7a0dAWg5OBeNfb69IA0TYJ/z1awuYmTPE1ZM6Bg5guN2e8LbcPWcBc7lJ6BgksGCZBEKmuQoTMHlrvlg4k8o1joRwMcRFUe/ieXR6fE1Xp1HmTM/0MzV+WReETSAz/U7V0bNIpOtncup2M/E+TPGXN8OGnzOTMRDndfUskda2pUpyAgrJSX+zgBmhaOb4KD1hf+Za0FyuTrOAuVzks2C5nOQb1uJ+wNTANRpokZ8P5R+qzbpy2liQi350XVbH9pc/Ns1FKhRWPi84PIDJj4b8saNl/uJu6elZ5m1RGIUvihPtDFN3ccZdOZSpPWtnmkPvOguYQ6Qd32m0CWtnlkMkYAiKxQNM/Wi5ufgiV3vaRkXP4pChP9Bj+dh0XWtQmoeQqQNM3MKFX3qc+6gHdZ8Lb1Pu4eMKfGfnMmlu7VMJzn4+Z18f/SdcYGeYkZ7MPB9B0840h95vFjCHSDu7ZjlEwoWo2ECAqR+VIto8fJlHYK1/0GO5IQMmwcy7keOJhM20aL//nqqkV4/OG4nQdfJKIMzH3kqCZGs7TDjCcAHjnL/IJniGj/+LBUw9LjL1akFz6D1nAXMItLNgOQSihbBIIoCpgYViWu5r0/JJHR+ZrQF5XDzSsOTlYdsjyYoS/YlwI+WcmiJhDXwOMc14dQt9Y97O8EfS3PpUhNMUnnQxCs1aVNsLxR4TKJkpcnyUBtDpf7aAScpkuiNoWvHs4HvRAuYgaWbBcpAEC3H2wQCmbgZFtDmYcSpt2mV47QCDPBhyQcq9RIOWl8+pKVHAVHWZ9cbzs1rzHqafSaqcWxhhGurmWG5tXyLtnY5BA75ENTByvTLiR4Kbdtz5FjAdamT+r51pDr4PLWAOgmYWLAdBrAzIOhTAZLMIPhTR5gE8lxI0lcMKYQSPnBgjHJtmJCK3TlexbpK55sgKo9N0hBvvZvBqhcfzM6tbmCBYAIWm2oYeaYP4lY5xTHc2uEcDpQJNlQnpCBzzp6/sthJFtez4Yf/mYyw7fZ8dbUplKyxgJkjdPqzr9FgLPglSKzOyLQ9gsoUU03Iz/2jKNAFPMIYT5TQIMtL0O+HozDrdxTVVTzIBky9GvhT50Vff2AuFNXM2qW6HnwCwRDk6giU1ho85zwKmQ5Hs+eUWImV7lsPYun4pYAGzX/I4iRYsEyBSBmZZXsDUTSZwUsQ5Coi01EBNDYLMZ/qdcPoAM3/sKKGR+YbmPunuWYoZJZ4VD6EwkDiIv2WYKZthz6/yRdKO+qMFTPZftjkLmon1qAXMAehEw9NdeMlEv94GKGSTM4ICyQJMNpaAyPVNquxzrDBsgqTpd/JHjyidrmLdpJgZplEkOh9rjL4fwwQ9bhWpwSHY7R1LvFmiHywJoLy/B5IuiDr5ImDJ9CPPtYBJ2majowSC4ln2s3XBFLCAGUwXFWuP6OqHOFmQlGzAJEn4suH6JrVPiZz84DJwDsDkhnCJjo8QVGdhjojfSddhfWWs6WeYhopYdxtAsgUHQlNCokWqfD7OJujo18o9ToyOw5XpyKiuKp+TwwKmplR2Xjl2+NGnx0h2tnLorbKAGYd2fAlxZmlI2OLktNGZSoFUAKamBcFoDLahcA8nAUuD2kCAqUDURVI1w/T8bs0IR+dBvJuHOQoKR0sL9lPWYlZJsKYjWPJ5iH76RUgxMp0Dmg7oqihEO3EuWOIF6uRU2e0M0yFDVv/mYCCMHeP0f1Y3dAiNs4AZQDS+3HieJY80si57KZBKwNRUU+ub3L8Jp2abLnJqANX5dDgChoRLhNwh6I1EHWXEE9B4H47XehhI53olHeO9GSQCLkaqvCodcRowGaZj2JuNumGV4P7YGaZJjez150FCwnV566IpYAEzmh5qJtCNI7qWuF/nvmQbzCIKpAMwCYQEIYpoKaolAlLU7800XXrGAiZzanT0cFN5FFa6gJnDrS0Yq00tfdIBoFyK2Sydui8Qkq88DYrO1XkJRsexgJNRgSqyaHBFbJSzgBlFjqwOWNCM7V4LmD6a0DYsVe+ty34KpAswTUpS1JUDG7V9fY6xAJ02WMAk4NHyEMWvDU1L1Ace4xQQK0xMHCyZHTZ+HJBEIB5Y8lktYOoeGxnXsZhlUnHMOocCFjCNkWANExjEGAHe4QBMkpXbNqlYQYDTYtpEAZOvLs5WO7tgpacN20SwdCDYEuLOK3FVU0U1Y4yeRQJA3fdedDyeR81DIzPR/rreAmZ/1Mm+NI4VgibXNa0Dj+CL1E6nMBKomKFePnZUjBgKDBdgao6jGn9BQQ5Ac5k6+YaEJzOqY8VULwD+DO7MxYtrCQwONDT1KiMaCijxHmMe/o0aRQ8K8t3mXvnCe/6jbmlqXyYlBaNkxeocKcAsdyVc1d5RwqX7LtRXdes4PxYw4xAmi6M5LvIhzbCYaQFTDXMqSxAszZdTFo9/2zSXAsMNmLojaC2Iezi5tknw1ONQzRYBfFTo4UurvWOpOsx5qXFQJ3GRzgFMXh0D6jo868NuufbxVunCjNSdSEblH1eWI0UFo2Vc6Wg5aOsC2XqtsSo93o8FzHiUye54giWXAEY6aI74GSbeT8r6Ca/WjSwKhAUwSXUCYh7WNnNyYb7O/Xij6JaisHbYfG3vwn7KXqd/FJAaXcWhqwHSQ1vELWhcIuff2iyLG6hl5BbAfeh4P/6pcggz+bjdi+XonYqYHNdZwIxLmqxPyMVY5Br8SHYjGjD5srB7LUfu8A8TYHIs0hHEigpz1DpnB2aUDdgmwjSVzB/6IXpVQEfAU6Vwhcd5lTmeju5lcvy/6qUbV9NFxL1OLEGZ96Q7ZjcA5o4WMB1q2N8gCox0zdkRDZg0pt7rquEHDQ4bl90UCCNgaop3Aui6uZ8SYEY8U4eiEPvwZ84wdbwCTIAfRbJtXSL/fqxV/vcRPE4RVQf3ZCrnXpxKnSiWP26PIjlqx0InIs6vnWHGIcwIih7JmrMjFjCpEcu/6O/vETTqbVMlzIDZRcDsdjcDE+D45wY5ajluGeWMX0dL1sHBZXLf7A65+7n2yNFjKpNjLxZFvBml8gNklUOeY3YrlCN3sIDpUsRe4lCA313q8Gk9duLky8boEQmYNEpAUax1I5sCoQdMnizCLsKPAkj8cCZIkawDjox3fIznEQFvf9Utf7+jFfmc+LwckcN3KZRiaMgy64L6PmkHGDc0LpPP5/ZJTw9rdupVgLm9BUxFEPvTLwVoDSqf5vOcYdZv3mxKHHGAaZV8smn4Ll9bwgyYXHt0juJy24gXkwJB4tso5/Qc7p904A5gCc9733bLZfe1SUuHoynLl9l264+R0/YrkUIc8eV/uZ12TaN8NxcKQe5L75hdC+UIC5jLN6hGUGllcxYa3v5xlc0kGHGA2Y0v6j6rEpvNYzrhtoUaMDFOe1wpCF9Iy/CjtlkCGJcBMLn+qOLd1lLJ5/e3NMl38wGArivCrPLmX1UEgiWz/PJaAOY8tZdFlTh6tyI5Yjur9OOSz14SoMAYbIfKw99IcSMKMK3Zu5EyrBNrZ9gBsxc2jenUeZW6SQRMb17JRBzjBeWgKx5pkzc+7XFyIc/Eyhz52wmlMqEcGrdx3menAzC/n+/uVUHJo3YplsO3tSJZTWp7HZgCHFrcn8ljwUaCGzGA2YcP6R68gPAusc5SQFEgzIBJDW7OMKM0W93BqwGTL6seaHnfPLNdHn+1QxmBJTgW54+SX+xfItus3b8RgjOva5Jv57kgi7osYFrGGAoFOOZGiiWgEQGYVIiw+y2HwgrZXSbsgEkDBnRK9IqXEkWy/OKj0o92s2D27hpsIekytqDsv22xnASN14HcWTdEABMCXjly5yI5bJv+y9ltJQNRdWSmj5T1zBEBmHbdcmQy8UCtDjNgEiy57YmzSPVDD8GSWOkC5uKmpfK7mxtxBmZk3XLnjQrk5/uWCIwGDejOur5Jvl8I47SqTpEjsAfTAuaAZLMZ4lBgJKxnZj1g2hNI4oxuGx3qfZgEzD4eM8eZJf4iOEnNWGdt85O5vfJbzBJpa5auvGS0XHJSuYwvH+0A6wB9fI6aYTpgO5rbTwCYh8KebH/OzjD7o45NKxib3fZmsxowud+Sh0Grr3I7li0FfBQI8wyTYKlnmI5I1kVNtIFrmITIj+f2yO9vaPFaVQmg/NfJ5VJREjFS4CX6PF/M75M/3d6s7NOSP6i0MR1asntvmu/LGR20gBlNDxuKpkC278/MasDsgmo+TyKxzlIgiAJhB0weOafmjkRMhZqRsUzfJwDMP9zY7DWtsmy0/BMzzIEAc179Ern0wVaZs9iZXdKe7OpTc+WsA0qkCqeW9OcsYPZHHZtGCmSzvdmsBUxrJ9Yy70AUCDVgAsuW9EFEAqDU20rArKpJNOJDICVg/v4mFzCRRMC8+MT+AZNSl6ufaJVXPopox9I26IUnlskK2IoykLOAORCFbDopQK3ZbNxqkpWAaU3fWaZNhAJhBkyejbmEBwMQMNEYBZIIKshUFgwiM0xOPukqykbJP04YF3eGSb64++UOeey1TqcAfsuKR8up+xTJhtPGeHH9eSxg9kcdm6YpwGV1gqYemzo+069ZB5j8COdh0FYUm+lDM/XPH2rABLgtdSSmznRSoaamiYJN+QR7KM+9qVFFctxX4DDofxwfHzCfebdLbnmmTfEGxbC5OaPk4G2K5IAtCxzRr66+n6sFzH6IY5OiKMDzM8fQ3mxUbGYHsg4wrTWfzB6Q6Xz6MAPmUgAmZ5l820R9pRMrMcMkQBIw/0jAdN9IFaU5cuH0YMD8akGfXP5Ii9S3oFIHb2XTNfLlF/sWSz5Esq60d0DyW8AckEQ2g0sBDssxGFv8MMsWl1WASREWZ5fu+yBb+si2I0UUCDtgEjQVYLL9fOe4A5sjnAD3KQHz5iYvrQC2Y/ffolAmVeQABLGmCQAdkwsDQPjS/+d9zTK31p2yoq51Vs6T02GUvaTAUfKxgEkiW5dsCmSbaDZrAJMMb635JHu4Z3d9oQZMjOdlBEw4zjCJlQozGe8C5mcEzFuavdkh843i7JOF1A/CfGMZjqHx43Lk1weXyGQAq3YWMDUl7DXZFKBodixEs9ngsgYwrSg2G4ZjetsQZsAkgGkQ04BJEFTxBmCedxu1ZPEycgGS4tqgV5MW6+YAI0/Zs1i2WnNslKhX32ugHrAi2YEoZNODKEBN7GwQzWYFYHKrZRdOp9fvjKAOs3GWAn4KpBow44FQULw/jmH+aaBTY9uNM2eY598BwwU6L6WrKmOknNlm1nUcDpPecd38GJV///3Ncqb/iHO/kj/+ZIrssHGZGW39lgL9UoBbTMbmZb7WbFYAZicMFCy1Bgr6HbA2MZYCGjCv+NXKMmX8GGy4js0TBCTLE8c7DKV8PMD88+0ATAMoCZjUgI1yiKNkdrv1xsrxuxQpf1Q6AkHPZOahBGfOwm751RU/yMY/LpUzjpooU8fnKaUOM5/1WwrEowDPzaS92Ux2GQ+Y1lZsJg+/4X32l99rlYtuXIBtFktkty3K5NBdKmUFAKfpgoBkeeJY91DKBwHmN4v75JIHWqSpFceAaZBERp2X99Iz1FUn58ipe5dIdRxLPkHPxPJ082p65OnXm+TFd1pkjZUxO83Jlc+/75GdNiuWQ3Yul5Un9X+MmFOL/R3pFCBUZvrZmRkNmGRyq+iDlyIGYlf3Mhk7NrO/3tL1QmnrXCI3P14v989slsnVuXLMXuVy/UM10tzSJycdWC2H7VzpnSIfBCTLE8c2DqW8BkGW1SJZ+mkMaBk8vVCA/XJBj6r787k4gQTuh7ol0omliuZ2nGpySIlUlgRMoVXO4Gfix+hTAMrbnqiVMpQ965hJsu2GparEO190yPnXLJKOzqXyi8Oq5IAdyu1s06VlfxdljAIZcrJoq0V/7fWnKa1ZGGjP1DdVRgMmt5DQ3uZIdVy3ffOTNrnzqTqZu6gbM6Qq2WHTUpk22X7xB42JprYl8tYnHXLX0w3CI9/22KpU9t+hTMqKcmRRfY/c92y9vIJZ5/iKXDl810rZYPVCKcqPBZmhAJ75PEMpHwSYrJPxrE/XSfDUgGrecyC/Ls98HRhXH3zZIU/MbpQGfERsu1GJHAZ6TKyMnn0vbuiV+2Zy5tkqEyrz5Kg9xsn6PyqQksJYmg10/2xOZx/V1PfKqx+04uOjRooLcuS4fcbLZusU4YQZ7PsZYY57M2lvNhNdxgImv9S6AJgj1X32Xadcc/9i+WZeF776S2TtVQoBBHWyFG++/bavUOJFDkzrHAq8+Um73DajAaLEbjlwxzLZZ5syWWlSNABwHfzb+d1y78w6efGtFrz8C+WE/cbLmitFn+Bhgoumb6JxzJ9oXjOfGukuMJqAyHjm03mXFzC/x4cXP8A++rpDfXwdgtn2mivHP/KLNPt6Xrc88HyTvPxum6yzaoGcekiVrDrVfrSxr2nn5rm3muT2J+pkfk23HL1nlfpYu+eZOllzWqH85KDxsvGaRY4YnQVGgMvkE00yEjD5chiJoljqNTW39uGFXi+PzGrAfro8OfOYybLJmsVqraq5rU+uuHehzH63BbOkPPndCVNklSn5WbMHarDvEtJrMb7sb3+yXp56tVWtv515VBUAMD4A6Ht8+l2H/OPmBUrR5fDdKuUAfIRUl+cqOmtw0nl5TTRuMHnNOtEU3MQFR84hVYSKSgpg1jX1yYxXG+WxlxtltRXy1Yt883VKeNeE3SsftEG0Xa9ovt/2ZZhxVkh5cY63jppwRVmQkaY5v8PH13/uXyQfYba++Xol8utjp0hFqTOjnLOoSy6+bYF8gg+TbfDBe8pBE2RS9ZhAhawsIEdME7jFhFtNMs1lJGD2YnbJ00hGkmuGOPHZ/zXJE680KhujB+xYIbtvUQ7j2bney5P04Azzgy/b5XHke+2DFtl6g1LMOMfJuqsVjiRySV1znzw5uwX0apYqAN2eW5fKTpuWQMSqtWMGJkcjxJGzMNN85MV6NVPYZ9ty2XHjUhkXIEbTAGbWGhTH9KD4geJSBZitHUvkhbdb5Nk3mtWH1d7bjgOdynDyydBEhQ2g+/NvtcqDs5rVmube25TKvtuWSeEg6G7SMNP87MfvoU38yAsNEO9DSQofZ3ttM062AmCOyY0+2Lu9a4kS0z7wXJ1wrO28eTmWCMbJBHzsjgSXiSeaZBxg8sVBBRcCw0hxXKe8/M5FUtvYI/tipnPKARPwAnK+3OORoQcHZ1OsdvGt84QvsQN2qoR4sVp4Inq2u1feb5Mr76lV7Z6+b4UcvOM49cLWGqODaT/py5n73RChPTCzQSZV5cmvj5ssa0+LnqUG9UNQHO8dFD9QnBrt+GG+ZIlkKc6//J5FMm9xjxy8S4Ucu3e1+hgYCp1MmvIZm9uXyC1P1MvjL1KxKk9+M30CPtqiaWaWyQY/50v3PVcvd8yok46upXI2lKR2BQhy/yFdUB8zvrUdH3evNmHMLpCJVWPk1EMnqI8WpmWzy3EtAGXSPDPjAHOknHNJO6Jfze2UR19slNn4UuU60kkAyh9j3cN08ZiQa1l07dAIvXVGDdaXWiUXe6Cm46W46TrFmJlml2IGNTo/+75LHprVJO982iHrQWHnlIMrZKUJyVtLex8z97uwvvfpt52yORQ2DsFHyCpTxsIIQLDx8vh9Y/ag4w/Ka8ap3iRY8m85RbJfze1S20Rmv9+qxsJxe1fJWr5xFfuEQ4v58JtOueXRevn8h27ZbqMiOQgfL6tOHaNoNrQaw1eKy0Nv4aOWH1ULa3tlh01K5acHTpQiKPeYzuzP6HiHV+uaeuXqBxbJ61AOWnvVQrXeuQ4kQ9y/mK2Ohv8zSWM4owCT5/l1Y3A6wytbh5BgX90SKKjUygtvNSvNxOn7VkMBpUhp1/lbPRAT6vw/QEz02CsN8jjWqFZfMV+OAXBuDuDMBlfb2IePgnp8FLTLChPy5HjMKjmbocgn2a4NIsz3vgBwQsFqcV2vUrg6avdKrE3FitHi903sUwXlNePUmCdY8m+IgFkPsd/DLzbghdwmEzHrO3avatlgzWBN4NgnHHoMZ1vvfNYh1zxUK51dy2TnzUpw7wqlnTz0WsNR8uNvOpRCz+ffd6q1yAN3rJRVoTcQZAbO7E/z6fXHLeMIvl/80CW3Qpv22/ldssEaxZj5V6kPM7NMtvjVNpMMOjczowCTWwH6qMmRpY5i1Nc/apNLoAwAk6By9F5VaqtIfyKdWCZ06BMbz5ftMvlhYY/87aa58hWYcvety+VEaIFWQ3lodPKxJeW9xJcLNTMvu7MG62Wj5dh9xskhmMEsr0gxkQfndiZqk973bJ16OZ551CTZdK0iT/zGOoL6IF58UF4zTvUqfhg3WMCkVOb9r9rlOuw15b7Mw/eolKP3qFI0S6StycrDZ7/9qXq5++km0EzkN8dNUFsrMk35g+3oxEcAle+o7UppzdlQvttq3RJ1MkzifYyK4Mx+VhH44S6AZ99okn/fs1DNwI7dp1r2wfpyfgbvYdRt81/HQAEoL0MUgDIGMLN5dsmX71vY9vAolEs+gbhv583K5MAd8KU6dbDbGRwG5IA0mdCLdSNbsdn8hbebZMbsJqyfLJHdtyzHnsRytZfOP5jDGCYAvPFxO5RxmvAV3iPbbViMNdpymebbJpKOZ+cs4CFoLM/G/s0frTgWCi4V0FouUmI0sw/MZwmKHyhO9SF+mC9RwGTetz5tk5lvNsvHEI3utmWZHAGN36lJFFOb7UrU/+WcLnn8pWZ54Z02WRf7Ng/EXljuec2EbVCcLT8FbeJHMFPnh9k+6O/9AGTFhdFKUv33p+pNj1xmXi8FkfTXQ//goRfq5WmscU7A+vmBO1So9U0ur2SL4yyTFoB4DbvLGMDM1tllbWMvZkgL5b3P2uXHWLc4CzMVvtCCNvaajKUHlhlninZMP/Oa+XSYm9K5OZ3iRWqSnnLweNkeRrXDPG75ArkUM8o3P+6QtVfLl9MPq1b7KYNEYJpGqb5y/fS/mL3dixlnYf4o2QwzjdMPm6i2VATd298Xuj/8ec186kWKH8YlApgL6nowm6uTdzGuSqFJ3d07Wv7+i8lqb6n/PsMRJs0InJffUyNzFvTKNhsUyc8PrR6ydm6q20CeePtzKN/dsUgZuTgYZhSP3qNaiZV53qjfmX3HNN1/Tj70oIpgf7oeowJ/FGm1EOL/256skVex7rwSDJNQoYgauNniMsXObEYAJmeXFL9liyND1Df3KqsyNzxco14SXKfcaZPyqAV+P+Ow/f64IIZz8kUzYmy5CDXnYkP1jY/WKMUFKsscvWc1DCEUhGoxvgbrlLPebIFJO0dT9QhYldljC8dMW6Qlw+ObV9Mrf7h6gay+8hhZHyB+PywGEdiPhUh9e5iS82/R8PeF01+xz27mU72JH8bFA0xqjtdDceS1j1oxA2qUElgwOmTXCtlxkzL56d/nykZrFcjZR08I3Zf8oy83QwO5UVpgwo9azTtsXOztV4ylSnpjKBr9AcYcSM/nsfWGBhlOPXSirLNKUZTo3+wr/YT+uCBeDY7TNThXXQ/3ds6GQtCdT9UCtHvloJ2wtQySoUmwwJSJSypmKzNlLTP0gMnBQrDMlqVLfi0+BxHZQ8/XywJo1BEod8G+twk0O6ZehpFhpBklEpMawGT9NIf26bcdci9e9l9ju8HWG5TI4VBmWWli8rRMzXYk6qcI7Pm3AQAvNKu9akfsNg7alsVQhopVskm0zmTnuxFaoLOw9/Dfv5mqXvSc3b0MQ+UPPNcg40pzZE+81NjHWgkpkX7lM5r5MDSc8REHMCnWfx5KYk+/1ihNAJ5DsU1kJ4j29Z6+1z9ql4tuXiwXnjYJL/twzUzI2/Nh4P0FmNh7/KUWqSzPkf22K5OdsW+Worrhctz7fA+kL0+/3qj488jdq2Sb9UvVOqLZN6prVAdFP2lsnthMgwFMXXsjjJdQw5lauXmQBO++1Tg5eOeKjN8ylgnGDEIPmHwR0GZspjsyD18K5/13rnwHtf7toXp+/k9WiH4hII/ZUj/DkQb+uCCGc/KZNQWVi6Uo69Yv3n/eOl/G4JT0M4+erE7ySLfIk8/C/Y/n/mehfPhVp2y5fpH8Fkoi/tlabCvSG7MQNmin/2mOnHlkNTaoR58RWQNx+0U3z5d3sT69/hqFcvZRkzEbCAZ6f786fRhpi+pN/DCfOcMk2PA0kUvvnC/fzO2WbTcpUWL9yrLo+/CD6G83LJJPv+uWhy6ZFrpZpm4pPzb+flONfAjrOJutUyjnnTRRGedIhyKXfoZlEGb97+NW+dN/5ymCH4/9y8fvM0Enq6u/v/xhZvLHBfFqcFzUrWLq0XVzP/rNMxYriQaN41942kryY3wMZfJsk/vEAyTc0QQZxlCoAZMDjmBJUUSmOj769wu6YHWmSZ6D1ttqKxTIYbtVyRZrF8eKPJHXbKmf4UgDf1wQwzn5zJqCysVS1Ky7DiLj+7EJm7NhzuaOhFbllrRWkgZtNgLAw5hRPvUq9p9Oy4elojLZAbPKsDnOfs/9zwJp7VgqF2F9sHpctOKHft7Z77fIg883yFdYs9sFs769oZ28ok/xxqS9LmfGqd7k+OAf/+FKScCLMIP4wtvN8iPYuz0Q1p+2wPppvI+btz5tl3MuWwCRYiWUfyqiRIr6nmG5zoJU4TEoBn36bRfaVS77bFcac/Rasp+V0p93P2+Xx6DQ8wmkLdttVIbjy2KV73hfs2+CwkFxQbzqj9P9zPLa+e/FeB3H98sH0IB+7KUGbN1pw9YWHihQIatjPMQbB7reMF7DPssMNWDy6CLuu8xUR23Oe7Dt4AnsfezClhgu1G+JF5o6zUG9+KJbpplAx/rDjPfHBTKckVExoArzhy9b17keL+wmmmG+QLhWctPji2EMoE1WnpyPGecktY9TV5PMK0Xv9zzbCHN2LeormUa8N8Y+QdIrnTOMRNtEE3AX3rRYzvvJBAB6/3ZXKd5789NWuQlr1hwX3CJwIKw2actL/n5V3WF0hvLih/l6wBgP4qXOcUVliZ/BMsym+AArxZplf44fntyC8xFm7P/45RRlgae//MOZxnbSbB9B/lrYp8WRpbBGRO3xck+0ncznozTgmvtgNODDNiiTFcrPDp6glGpy3emOor9xQ39/+cPM6o8L5FU3U1T9bsCLg8fzu8/gr5vbhbgn9NqHFkkj1s+3g/IeDbsPNCaMJoXCSz7PxxaxsM6SQw2YnRlqAo8gz83t/8FpIi14Ue6yeRlEdpMwCCLadP4Bz9Hqj/OHg/NEs5IXcgtHwg4/xA2ryqMZU+XFD1+0r32Il/0ji7E+tgTKBpUQP5Yr4+/JGNhk9q8hTrzu4Tr5dh62iUDp4+T9K0MnfnUo6Pxydvl7KPoU4AzSf5w2xUzq10+t6NufrFWnoXD/6y8AdtMm5XvAaRY2+599wb1/X2CWevUDmNVinXI7iPV/cuB4aGoGz2zNurSfdRx57vfowzI5bu9KHR3qKxWorrqvDprR7bIKrASdcmAVJDVjA2k22IYoe8GYod/yGM78hDbxIVj7PQzH5Gln9oGO49Uf7w/78zi8pH69asw4L8XzGLyIOCNalfffT4e7sZf7NoyvmTjHtAD2e4/fd7xssd7AH1PeQ4XAE2aN2dACZh++KNn5meQ4aD+EeITit0/wtcev/oMg0vkx7I7ySBvT6QGu47ywnzl8Yf9XKss7ZSMspXyR4KCZO1KnfjrnHjx4mQoQD8GwNJlxv+3Gyd4wLF1YMHTFjE9xTBkNdc96s1V23LRYGereEOt9YXcPv9Akdz7dKJedNUVWnBh9TFgiz04x2gwYyH/+jRaIUYvV+ZurQ1xvOm9MIPI95KfhfX6I7bhZKcS642QtHOlmfIOZRfv1P4T9q7c90SCXnzNFVp40vEpd/T6oL/E9HFpNY/qz3mqDQlOJHAzQJ28NxVGaQVE2TU82YPnhAOx71hqnZn1mHzA+KuzjTaKawXbIa4bMspF4M4vpj7mX+1AD5dHp32B/8LNvNOLAhmaYPSxQBzBQXJ+OJRX3UYd8UbPMkO7LDCVgstN51iXP2ssUR0C8+Lb58jTWKsdhT+MFP11BmbPjCy2qFQgsT3iwTEj6aSbStPSHE8mjy/DKGef/wVA01ewr0dbfnzhFNsJm/cE4ztBuw7Fbdz2FDdmVufKnkyeqrSzJmLEO5jmGkpf7Vw84+zus65bLTw+qipIcDKY+2gv+cm6HXHDtfKUQxln7KftP8GZOpDVn3zc+XqPAlcc//emUqTimjB9gg7lTdF7O2M6+bL7adnIVNHszyZFmNO5xARSYFtf3yVF7lmP7TuWgTqGpwcHXf75unnzyVYfsBOkPjemXc5Zu0tRlUpNXNQ949EJif+mD5VV//f4w7+uP6y/MtMWQaPwdlr0+x4fpNlg2+NWxk6G5nbhEwmtrmj1hXcsMJWBm0uySxs2pGHM7TigohIYXj+ehyFJtIXC5yWQqctjyhAfLhIkwWSJ5NGPqZ+eL64Ov27F1ok4pn2yHM/32xGyTygY0Rh7P8RSLdz/rxF6yBhiGXyq7blGilDrGQcsvE1wP1nX/dftieRsG3i8/Z+qQZpf+dlIb+NGXGmHNpVHRjoomawEUP4J1ngdn1SszcjtiW8phsNJThFNqkuGew7Fll9xaI78/AeuvG/e//pqM+yW7jkbYW+Ysf+b/WpWE49Cdy5UmdVmcdVyO3znYTzkTM65HoSDzI9hTJp23wfF3yrh5AF/ymfV4V34z4CaaUZpHmEQ3WF6NLe/UY/4OlMdM189GMfzzyrJXo1oXpnIYx9NEWA6Kz6nmXdPv53NxS1HO0IVXKXnoUAImFWTCrhlLwHgd63q3PFYjVBg4CPug9tq6QqZwEGrAcEesHriqBxFYnvBgmNC7j+sxw57fHVYmozHKDKu8RgEzzO0K78ACym04EaUdShpkxJOxrqaVWdzq1YUzg+ugwPHR151K83V/aL9Og9WSTHIff9Mlv71yvpx2ZJXsuUX0NpLlbQc3yD/5SpOyT8r9kzSWzr2wVBCajGOfkumo0PWX6xeqj5aLTpucEkWaZD5vvLq+W4BDBWD44FEcI0aD+zR8sJFPpM+23oF1PZqX41ap6bDLSqAs51myumJ4PD/j3IAZZ/KEKuYr408fNK/67+kPu8/V3zOZz+Dlcz01MGrx4jv8uK+RKZBWHLJrFd5ZZUOWkCgapPCH1s7CJkIOHWASiDpDrBlLyx8NzUvkmgcX4YDmVmiOjpXzTp4asfuKwekfqF54kANeZY8qTCCLjogEnXj162bxcgaEvTR3wEfqcZ/fyKC8ccI6ugvAef+sOiU6pMUZatNSI5jAuRgisLufacBLrQUz0LFyxlGwJDTEtacU8ueAVXOFgGDZjRfwlZhdpsotqOuWsy+dK+usViR/PGlSqm6jDPH/4uJ50N6mlanMm2WahPkEIsdrHqiTj7/qgs3cEqU0xr2JX+DIt0vvWCD1sBS1Mz5wqHynPubcgavHL5nW87NifzqjojIkEo4UUD4v6HjMuBh/Ep7BdzvdJKnDB/5/Hlwob+NIsjWxDn7a4ROVBaOwbUPhvIOSOp/6BykzbC5UgMkOps3YsM4uaaj8PpxQQGPbK8HQ91EwIbfdRqU4ST0i2IhiKjTIG7RuF0elI27w4egaI+WdePXrZvFyBoS9tIDnUmlGBgXSCBtRXsCM48cOz/CkYhC1anmm3/Ybl8q9zzQJF904o+TRTmpbjXvfTLrQms/ld9WqbSSb/nhwa7aDaSf79ArYWKViyu+mTxxM0UHl5czr2ofqYCGoVf77+xU8q0CDqiREmbkN5Xkoj732YTv2xOZIT3cfDBC0yVbYP8wDstcGOOjlggjfuA3wje+YdGTzxw0cjnCH8nlBx2PGxfj5WG5+96IeNKF7ooBZhgF/mAqVtI37FCxDfQ1DKjvAfCIlGautkB8qgOK7VYnMVeuH/ydUgMnZG5V9wuj4lfMSxBkX3bxAfj19kuy4cXmg2DFqQPsHKhoWlT6kcDR9IvU58X5FqUi6Q9XBhZ0N8ro/Ei1La0FzFnfLZXctVMosPz1kgtpaE9b9lLp9/V0boChz/F/myIZrFMi5J05MqaiIdE4HYLK9FAP/5K9zZefNoRBy9PhYYxr9ESWEaaQdTcedD4taVG7600+myDqr4vQYiPdMzvGPZT+oxKSjrf64gcOROyqfF3Q8g+HVwdyL3TJwfqfzCJwvw8zeVdiDSj2EXx8fPvE8dUPCMssMFWCG/USSZ//XBIs9jXL5r6Z5Yh2PB5zxFz1QkWimxw5iN9WXbyDmNcWykTqduiJh54GWLzw0wOSdqe06Cx8YV96zSG7686rYJJ/cNTiX3Gm58EPu1hkN2C7UhL6fKj/CHsBUOvZZugCT7bhnZgPMqzXJX34GO7OrDm2bRirpMdi6WyAJ+u0VP8hx+1bJTviwVZotPh7z80XCPDdAPf56k8WrsfVGU8W8D1MGzh8pn4OPif8+vFAdXP+7E6ZEm+uMZBs2X5hmmaEBTK4PUQTl7+hh66WAGxMwaV3l0rNW9qzP4LEd53oCw/40lIga4Ej3yrE2X9hPE7NsJM2pIRJ2Hyuq4sExEh/E3NmTaN085HYJ5LOP4+Piehx7lemASVN9Z146H9q8pTjSKfWb/UnndAImDW386vL5Mr4iF+vxqVszdUZk6n81YB6Jvtp503IlhuUMRbGCyw9RbGHGmX4+KsI0Reg5FfZCMe+rWB6JlI2kOXGRsFNff+H+0lia74TInRiOPKOTHhzmfurO7iVy1f0LhbZpwwiYYVrLDA1gUl2fayphdhowL/7limqGOUYtSI9yxAXuo3stMMOm322gCXoOUxotR36vHkTHDv5IaiTNZZhIklOHG/ai4fH8gXUbz4Gcun5Vxi3olfeF1cCG5RtaT2ltWyqv4pip22bUZjRg8oPhn7cuUgdVcxtJIV4wqXakeToBk+159YM2Of/aRTDgPVE2+3H47PYOhuYaMA+HvdztN3S0QJW2JVBTaxt4Y5gVm+PY9LtpUVCEdLOs5g/9fLHhSO5IWmK8GsnvPGOkptiwfp94eVxPUJg0UPscoTG8CMbuKdm7HSef9MHkYhgBk7Slubyc5OyoYnVDdqEATHYqN2hHDZAhNyl1BU3ApPYWB2kONgpxUZpbSTgQgwaojvTSmM9orOFVDz9wOFJTJG9iTMhniZTmc0TTKzqcGGCOhkhn9Ch88GD9maYAaSt1FF5Or37UIrc+kdmAORtA8tfrF+EEkPGwBFPqvXCjqZbcEPsg3YDZhj2xF960SObV9sj/nTU11GYJB6K2HzDJaxyPueBTAgX9UcMeAS9s+nkjFfZSB+CXIH5yyqpfr5rEeDWKF1HWK+49V4QS+n3i5XE9/nAeDk9Yhq9AGg5pxl5WkAJulNzxTC0mLOEFzLAYMggFYPZhZklV/bC7IMBUww2DbjQW7cZCFOkNcjRHt8iLMxqoBzij/OkDh3XNZtnEmNB5AUQepP97DQyYhQU5EKUvkQao7WsJAV9IZMTZH2Y2YDYB/LmNZOmyUUKLOGPTcFKLHg/pBkzel6epnHTBXBhzr5Ijce6o8zKNjJVM8QUBpn52tik3N0eBp44zecD0M90JB/GbUzo4v66Z5Z2y6terJjFejaobZb3i6sGiw1H3cdONi8pcABOWzZT+wA4xFY6c/sXHLoQmtz0NwIQCUFhnmGwLtwNRijWcbtgBk4OCa5fmWtlwEqS/e8cDTF2GAzBPWdqHVhci9QCPGvhuZj3AGfSnDxzWNZtlE2PCKMBENV5NrscM62f0Pw+fmYoCbCSt1LSDAfXLVYMlwwTMWx7P3Bnmk6+1yFX31mLNegos7+Sz2WlxpPdwACYbd80DtfLGxx1y8emTM3abSX+AqTuQByE4YtpoEbt/rDthjyuGzKuqBq+a+LxqZOmXN9kOXadzdUqaz08/+VCJMuGpx/5Lil8Zxz8ysDZFeTsAsyfkgMmTY8ZCjDycbtgBc4lrZN3p7uEkxcD3HggwdQ1kRop/cjAa2S5zEDOPx4RIjGq3GTb9yGXWYfqj6vPqZqzjzLzx/MxppkXCztOZaQRKmqvi7KsDYjxqkGoGJFjSaSYkYN6MUyAyUemHijAnXjAH+0iL1ekYqmFp+iG9hwsweQzZ6f+aB4PwhXLqwdVpanFyb5MIYOoxTT7Ny+W2BUdMq+P1EzlhhxkdbnBSzHzRfjNXNF9F8jl5IuHofLxDvDQzPjpfbJ2UeBEEW6BP0Nm1RNVp8qr2s57bngo/YPLtQoXC4ZxlDjtg8oBo7tvLBJcIYJoDmuubXIwdmAAAQABJREFUtIdozp4j6Wiz8z/SdCMcyUfmiaaPGYz4nTyRsFOtGY7nZ04zjWHnmaO/hKlRRyCpwRmZ/NDRDOdco8GScbM/aJGbMhQwr3+kTl7AqRj/PGOyTB2f3i0x7IvhAkz2PQ/vvvyuGrn2j1NlzZUyb5vJYACT7aWjZCgXwOnxgcGLmlFNLgzON3Re9epzHifyHAibaaafWRl2nivCq+Q98mpDU5/SKXCrdPnVWS7RvMs0AtCtAEzydphFsnzW4d5iMqyAyc6mGTz/ICBhwugGC5hsAwcmGZHgCa8Bns5Idwa701qTDtF+M1c8BoowDGvzSji3cW8QHW/mi7qfl+DMHrng3ouPGioJdEFZQMubNdNpMSyLReJEXiFgPpp5M8wPYev2NJiMO3H/CnVmZLq/aNkXwwmY3Ph/zv8520xomq94OY5v45hItxsKYPIZtWSI+gh0EZ6IlvBEpZn8pcp4nMdsRh2mP4BX3WJeabPeeP6o+pcpyQ75r7cPEiAYbVA6BXzpoLzDlwFg6UqkeYamsiwVwn2YpKN2tNREXQK2ZzjcsAImO5TbSTLFDQUwddsIKkpLD+BJE3IcxRGGdHKZ4Wh/NI2i0/QdApjQuU1c8HSTVQVRdboJeXkOo9ViRsm1D+ZxGM9hfj8TshjjFMDA88r7zXJjhgEmXxoX37oYR0h1y81/WlGKhgEsSOfhBEz249uftcvvr1oIW7YTZfuNMmubyVABk+0m7bnswC1jGM0uj8bnVZNvnPLBvKpivaQAXnXTjCxx+dbL4z4veY5re5whclZJqR3xxOFPzavBYOnkGyW3wCB7JgAmn3c4xbLDCpid2ChLQ92Z4oYKmGYT+RWrtWnNeNLADEf7o2kUnaapF8CEqlLUG8kS5XeTVapZ5yi8K7hO2d5BBuxFejSzkRGZX88sNWOyIg2WjHvl/Ra54ZHMMlzw3hed8oerF0AUO0nWhS3c4XCk7XADJtvN00zqcdDApWdOCZU9z4H6ZHkBU9dPMa2SDGHLlPORq1MivGryDVPjLZ8oHjQY0QzH+FVF8flWV+PwHXmTB0L0Kn5VPInymid5Jf+qX1zMeCeJW8JEbiZgYmtf2EWybAe38Zn2u1Xj0vQzbIC5BLMsftFkkksGYLK9HLT8is0lKsGvmU5fmSfar1mEKf40J47sNVjGU3W5xXk/Mg5nwW0447MVyh/8YgU7RjMZ8pApmd9kPlZDSRbz8z/reum9zAJM7h/9+cVzlWH9c0+Y6CkvuSRK24W0DQNgfoltJn/ALPPgXcqwzaQibe1f3hslCzD5HPzApZYpgZNO86X/qhJVuuJCHYzkZ4yXFMCrbpqRxcwe48fOGOHbk0fqtWCphAdW8BB7Oq105wRj4zy+NXj75idq1F74TABMPj+3mDgtU01O28+wAWYmKfvo3kgWYLI+zXAU/XCNk/uidJyZ7vg9NmIwTr4IE+p69FUVMsoFxVPFfjSY8AecL8h9sYqpyFAOphvg6AAo6/AYDyPXy+/6OZpfBmBe/3DmzDBvfKxOHoHCC8+HHE6bqqRtGACTz3H53bXy2EtNcttfV5IV0qz8pMftYK/JBEzeW491KtIAjpRUjHF0+uqEGHYT3AgdVLFeUv+8qssE1c84iiTbOvqkBsfmLSNqgtcUWKorc2jedHjVidFx+qo+bT0evunxzAFMtme4lH+GBTA5IDi7NLVHdaeG+ZoKwGR7Oduk+AfjXdFEM4zJfDpO00eH9RWsqpIi4WhmNhnWy4MbUqGHX6ct2E/ZDGUPxUaI5zUeWOpniAJM5mc59495OMPMFMDkQcRUdNlmw2I54/Bq1Se6nem+sn/CAJhs94K6Xjnlb3NkJxzL9svDqjNCNJsKwNRjQOshYJgnxKseryF/xB/NqyZv8j6RfBE/+YrvCVrjqccyCe2+8hn4M2iw9PE2q8k0wKTyT/4w7MkcFsDsc/desqMyyaUKMDUNtLLBMliWcWacDmMx3WQiMxyJ11+tLjOqTCjHq+u8vIwEo40BSPPYqjaIdWjlg4xHcavDhE6hiHgnGhBZlwOOiGd1LOb+ubfLGMBkW/77UK28/G4bzoVcUcqKh9doJZ8nLIDJvnz2jRa5AueA/t/ZU3AAePoMOOhxNNhrKgGTz8Jxzhd2HreMYYbH/or3ccs0OnXx/NrjXHWaG6sym/5cZc5OpA4KPdxPyXs6PBfNk3wuOr9uAZ+BSyR8cM2jblDl50+mASbbQfuy+v3kNSTFnmEBzK4QHxLdH71TDZi8Nwc37T1yMzVnfh7DaY/7gDqor+QyxWQup2m/G1SlmJcDjcBMUc5C2A117L46lSroQ7piLkTpwRjFgMxKbuNFM6DyO3WrBPcnU2aY8xb3yCkXzpXTj6ySPbYoM5swLH5KXq5MwwHSiTaO4/CsS+dJeUmunH/KRAUWiZYdjnypBky2SfMSFfj4oRmPVzV/an5UZfVnrMucOs0NeoBJ/qMEqA3Kd3UQv3JckH/pyKv0m3+M55ornY5XfjeCcZq36TddpgEmn304xLJpB0wOik7s5fMGh9lrIfenCzBJBg58Z1uHY+Q93mGzmiEHAkzyB8VJPVB6pfi1vYNgzF4gF/ISy4BqtokkzXz6iijFsCyn43z8xywZMcOk0f/fwF4sNe/+fMokKS0antmlf4Zyxb2u1uL0iYqW+kf3iQ6n6zr7fRihv2GR/Oq48bLrZqXpuu2Q7pMuwNQPxw9Q8hZ5lpav/H3JfOp957703E9bNzKS5iYrdsxBfZ2wpNUMKz09akuXO61UmcCrcXQLeK/Ih67D2uoXDKrAkjzLTD6XiYA5HGLZtANmpu29NMdVOgFT35eAlK+UDUap43d0vAZKfSXbRTMlciKCcayD4tcarEd1djn5WI7q6Iq5mUGFnbwOCDps5fgj8bw/v6h1vfqLlfF+lwkzzBmzm7HvskYu+NlE2WHjEn8ThhQ2X5hDqYB9Ew8wB1tfsgCWM6hzLl8gdbBHykO0q8pyB/soacufbsDUDSNQ5efnKNDUH7iaP8kvimnURYWMsJPGWH64scyi2l7wu5PFqQOAqRz40vkf+VgFP5JP6aLAUuVzEjQfO7lifzMRMNmKQmrLum2PbVXyY9IOmJkqjiXphwMweV8yDL9gqRjEl7GpUeswk8ql8tFHx3jni5KKAtinBUUBrh1zJkmGc8qRRSOOA4/bfepbHQlAUT63voiUYPO+Yjhk1WJYluwPLFlr2AGzFies/O6qBVJVnisX/3IyHzkpLhsBk4SZi4O0f/b3uTJ93wo5dBecZpIUaiW/kuECTPIU+YSa75xtLsViI9cb6RSnueymPlldv05TijsIUJ+A20Sc/KgM/+PxKk94qm1ZJoVQfhkL6420gFMAv+JV/LB/6KfTVycU+5upgJlusWxaAZODpwvKJc4AiO20sMcMJ2CSNhz0GjiXANlozzXCiJwtOhRkPoIrRTo8yqcbx2/RKb065kG6zqti3TDLvfN1r9w2s12tyRThMGjuQSvmDBflpkyC6R+4KVU5+LIbJeuulCvjy+KLMMMOmPc+1yj3zWyU6/6w4pDPf1xecFQE9f2wb5I1w/RV7QWHOvO865kGeXhWs9x8/opSXBi/770bDYNnOAFTN5eASV7NxUSc58SyT02e037mo0iXB653YK2yl0wNBiWbqh+PV1WMqp582otsd73QIa9/2qVAksBBwMzH3xiAZnWlIwFYZSJ4FR++W685tl/QzFTAJC04y0yXSytg0sg6919mqhtuwDTpRjEtma0H23Mc5lPfrWrWNxqbrBsa+py1DxTCnBR/GFl0JL/LhIxhKQ461tEApj3r2iZpbHQAltmViMctyjCVhRgcC8D89ZFlsu3aYxkd6AiYV9y9SKatWOQcpRSYa3gil6KJX37fLVXjcqWqItEXv2/s+oKqJQatVDgoj26yP6+Ox3VRbR+UPEbJ5PEJPJv/Hv56/em8jz9PbITxNBEvxYRzFvYCLEfL+MoEni1SNG0+riPOWwiLTSdOku03LMPYjiVAQJR6vqD45Ynjh0khaMW9zfyjUzyHKwGV+Fhbh75mAn6WjSI/o3Pwn/fVvOkEIuFXPu2RKx9qkW4ssWjHfdSeQ7Qqj4jx1bly8zmVSlrkpfs8mQqYbAa3l3A9Mx0urYCZicYKzE4IE2CSGZwvWEcEQzGtmsGDgTog1sF2Lc/xhUEeVGCpL+QzNcYchqttWSr/vL8FIAKtICMvK9GMS+ZVDtd8AOY5hw0MmFfft0j22rYSL9jwrHlRM/iJV5rV9pEdNylWHx5uyyIXNjoJzvmMGWRFuPXbn3XA8soy2XbDokEWZvfpjhp00egCXodHRy/CWvhzb7bKRmsVyo+nhW+bCT8iX3i7Uc44csKwA6YeRo5hEKdfOCb6wGacUdIcHbVflcOVn7ami4S0b5R8vbBPLrqnGevJ7oetTkJB3k+vY6p6cMvxkAjddFZV1gJmHmbo6mxTk3Ap8qcNMNmRnUrby+jdFDUqVdWGDTDZTr7T+NcG0Su//mmbl2ypGFV5iJPOa5uUh56PA54GKvIkkutmtMmzb3U65VgxXNQXK8LLlkZEHwowDy8ZcIYZRsMFL73bKn+9frGccVSV7LNNuaKfarDxEzQrMZIT9g61nvtmNsnMt2D4AeLiwbqhilv994lXDw3xH/nH7+VHK4yRP/1kkhQppTR/6eELh0Ekq1uv+NANkE/5UduOpZKl4Dm1TQRpzKMmlbhqwCSvEjupDatmnEq0M0pqmpfKuTc2yuKGiBRIvQMirKnuZvLq+KrRctPZ2TvDpNXCsViCIh1S7dIGmJzx0DZpJrswAqamZ2s77EmChzhmFGOS2eAn4+lZDv0ETGbQgMqZ6bPvd8m1j7UqJnYKcQ3FHX2sB95RPpEH10vOObxYtvlx/yLZsAEmpRznX7tAqetf87sVQIyIGyq4DbVc5M58KZohnknZJI/PbpKbzls5KmF5XwrxQDDqJgEBf7mv5nXJLy+eD7HnBNkO1pHC5MIKmKQRxcU81ECDpeZVxW54PS5TX7S8gucUUfV6JiRH+FC5+vFWmf1hl0fuZctcpHTHD/nUP0bGV46WG86syNoZJtubLiMGaQPMTNaO1aMzzIDZpgHT4TL1yJF3sDnDBAPqPMjwCpQGrnqkDQpCTu7REG+svmKulGLdpbYF51+CSZuhNdvV7VBBMyNFIGcfmnmA+dybLXL1fXVy8emT0U5HnDhYwEs0vx8E9ThK5BoPMBMpyzy6nxLJ7wfDgcro/P+6Y7F88GWn3PDHFdVB6QOVS1d6JgAmuY1syH5SM0wVhmatMg7rACYZVaWTcMh0+4sd8sjLnUqJiFH5UOZZb7Ux0gGxbgOWVKgF3+Rema7HQHXFaLn+jOwFTLaV7yOKZlPt0gKYHBDs1Ex3oQZMrFtSkYVcyGFDmjvMSIDUgh4woMupTP8eiiV/v7NFahojfbPeKnly7tGl0Ix1Bp9mOub9+WVNTv0UgWCh/eyDi2XrDJphtuMUlgPO+U723LpETj9iPL64QRsSYpAu0TJDqNp7kkwAzM+/78KZmQtk721L5eT9q7xnH25P2AGzAyJZNTYMXtXISF6lWGiZi5QOD4vM+qhLrnigzSMtxZAn7V0k+21eoIpqPmWGN7/ukT/f2KLEuXwZjAdgXnd6dgNmLmbWfCel2qUFMDNdO1Z3QpgBk2Iebi7nkNFM5jEh1e9cBmRbOMPsgELJP+9rkXe/gPYBHeImYq3j/GPKZMVqqNshzLq0+4GAeTkA03X52Pd11iElGQOY3It61X21MvN/rXLVb6fKtMloQAIuEXBMBBgTqcd8HALmE682yY1/XNmMTsivZ4BBmc0Xa1C6juuvDp2H63FX3V8rz77eCmMGU7CmGQ4FoNADJi2dARTJXw6vusxGoCRauk75kPT+tz1yOcCSs0g6rmtut8FY+dnexVJaECuCfYuAeXOLUwtuNAFKP9dmOWCysYVYSzffWQ4BkvubFsCkkkAfhfYZ7sIMmPxq1YDpkDkydMiEmvqM5bbMix9slrc+BVgigVKg4uJR8vcTymTVibmKif1dRcD8xeUNniIQv+bOOKhMtl4rPvCEaR/mFz90yW9hAu/Q3cbJkbti032EPP6mDjjrDALIuIDo3idueszdnYhH1Bpms9x43kpxcsRG49XpvIV1Z/uyxAPB/mgRr4yuuhUfaide8IPS5j3t0PFqT6FOG65rqAET70Huj2YXcWiQvmo8MUBeVCnKq8jXiTX3397YJD8spPgI8cgzFXsrLz6xTMqKggGCgHnBLU3ODBP5uSfzv6dl9wyTtEmHEYOUAyY7OBOP8mIH+F3YAVOb49JMqF+EJhNSbPvwGx1y27MdDqOikXnY8XHyXsWy5yb5ca33/FC3RE67ot4jCfc+nXlImWy1ZvgBk3S5BOttPMLrmt+u6LUhnmcgcBssYA5UX9BzqBkmlH5u9Cn9BOU14xTAgeeCXDzw0+NkMGXMvK980Cr/uKlGroFG70oT448Hs0wq/WEGTI5FZUsbfaT7g+NJ9QGuSukHxGEXdmCL2AXYPvLpd1B/hyOmjsee4YsAltWl8bVC3/6mV/5yS6Mqw58JAMxrRgBgpsO2bMoBM9Ot+3ijDp4wAyaZkLQmU6kfchwCvPDXuYq89w3EO9jw3OiKd5hnny0LZfquRcpKiMoe8EPAPP2qCGBSS5YzzEwAzFffb5WLb6uRc44ZH1ejMx6oBYGjoqg/QREelPbHu7SMFx9AahXFg6wpkr3hjyvFyxIYr1/CQYlqBupLiJc/CETj5e3A2PvzdQvVdonLz5mq7KHGy+u7fUqCYQdMnmXpgSQpAObUWrHcFkZHs3d3vdAuj8yOfNgWQK/gtANKZRsYC/Eprasy+oeA+dfbXcBEdeMBmP/5efbPMDlm82mW0OVFTY9kXlMOmNzjx43i2eDCDJhdBEyXzBw4iiFBdBUFTR9eaSP251c1ShfO1NNunVXHyF+PK8c58v27OQTMqxucTEthggvMe/oBJbJlSGeYGqBaoQx10gVzZGWsWf7lp5OkwDCjpfP4Wx6EeTF54wCkP58/HHUv70axHP7Ii84a5g3nrhxVJBJAjwahGjLEA6ugeD+I+vPEuUXMPd74uF3OvXoB9rZWy77blnuP6a/PS0ihJxMAUzdf8yo/XNWOEndbycufdcvlD7Z41oGY/+Adi+TYHYrU97AuH3R9h4B5h6tvAF6l4YKrTx2XtdtKNA3IRWMBmFSISpVLOWBmy/olOyDUgImvVop7yIAcOC52qnGj4BKRV8M4wTMQx+oX7YRxOUrJZyoYynt3qxKxPwow/93orIsgmYYLfrl/OAFTgxTXdO+HvdibH2uQf505RdZdrSCqYTpfVCQCQbSIyQt6mnGm36sPnRCZ27uxXsd4HjeBvRZxXMN84jXMMPsDTPPVaRT31jIj1SlfEHgNBJgsGASa/rqo2HfefxfK4vpe+ccvp8h4mBx0yhoPpmJS/xNuwHT2o3OM+XnVGRHO7zGX1OMYPnzYKkQV2Qza6H88ojRwbPop+u63AMzbmlHWSZkAE4b//ln2AyZbm+p1zJQDJsU1/leDv4MzJRxmwOSHiQbMaHqSa5zX9v891gKTYdxQ6XDS+qvlyW8OK1FbSIJAwqznQ5jM+/NtWvPOBcwDimWLNeKvWQ2H0o8JXA0tUFS6eJ7ssnmxnLRf9LYHMx/b6W+/P50ki4lT5dzXnL8CVSl/ol1QHdE5nNCjL0IkC8C8/g8rBSXHxPkBTL8szYwxeZBoxim/waxmGusJAk5dP/M2YN/uSX/9QY7ZaxxmQ+N0krr664pKTHIg7IDZ4x5AEQuYDq/y99h/1as9lZpXT9yrUPbfoiBmnAaRbsbbXXLjk+1ke+VouGCkAGaqt5ekFDBxoIZS+Anq1EyMCztg6pex8+IDt7hfp44iwSi5/LFmmfVuj0N6JK+/ap78+tCBAbMFmpD/glr7J3PcLSiogSeW/OrgElkB13huOAGT+HXNQ7Xy+gft8t/fryhFOKJMO00nHebVj3cxeQIA08xj+r163ReWU79z8EAnxOHc4kLLTPNwXNa387uVf86CHmw85/LFUvkefu24V3RydR5m9KPVPrMpE/KgPp8jq0wZK6utWKBOqKAYiun8uqZBfs8ZXsYFgZYZ54wbr3RM/oEAkyXvmdkgd8xolHsvmhZFc/M+kTukxpcJgMmWezTh4ANx1Rh0RbK/vK7R04wl8J24Z6Hac+kfpyYFmfb5/F6YzsMeTJctORy2W2+s/BxbUMyhYZajP5ONr5tt4RgtAD/0N1bN/IP1pxQwuXbJNcxscWEGTNJ6mRLJYsRwtLicpaiPIN0VmGE+/063N5hopOBX2EtJIwX9MeK1T7XL8+92eWukJUVQ+IE4dv1pznFfTu2xv+kCzCCw+vibTjn7/+bLqQdXyQE7OPZig/KZ7Y5Kd2lmxsXzu286jwA6H82gza/pVqBIEFxY14NwrzQ29ylxW3lprpQU5ci40hypHpfnrTFVlOYp25issBc2JeuanQ8VShEaW/tgeWkJlLb6pAlXHrFFpY6JlXkyuQp/48fIqtgPudKkscowg/dSVk+H0eB7k5jpMX6Ddc00VuWrRtXOPIsgkv3dvxfISlgz/tNJE2O2mfjrUQWT/BNqwARNe/FRBAo6QgA/r7q0OP26hghgIu743QcGzAWwL/t/D7fJdzDOrt1qU3LlrANLcAxf5INRp5nXbAFMtomAGWWA3mzocvpTCpi07mO+kJbzWYe9eJgBs5dbKklsMCDf9XzXue98JZClFt6VBEyIZLnxmXy6HgDvHMwSeVB0vH6655VOedjQ1OOC+i/3pyi2//P12FnpAEwNTryfdp0Yd7+5Yr4ClGvPXRGKPpoSOof3PeFFOLRzgmad8fxa3MUSzGPmI6jN/F+zPP8/aiM7M0rOHjkrXPtHhbLejwpglq9QGS3njJDMzZmkdlSPZ//QsV+4Fqv9FLtTcqOv737eKl/O6ZaPv+qQr+Z0qWOO8qDBXAEQ3majYoijy2RSlSM2N8Eq4nfGjLoBfhgfSXPCzs11DiNO5Y/E08cnnTG7WS6/q1b+DCWrbTeItTNr1h9dOjmhMAMm+5MSBodBI7zKlpN24ERFBALm9/OXePuep+9WKPtu1r9I9h8PtMq7X0akE3mQOPz71HIZV9w/WPKG2QSYqTy9JGWAqbaT8KxG1f3Z8RNqwMRHJZlRvWf543CfS3inFy5/HGuYmCnSMe96q4xRYtUgwGT6O9gATWPP3A9GR6Ddc9MCOXL7woTsNg4XYM56u1Uuvb1Gzv/pRChLFEWBGdvBtvmdAjzQzQQ+089CXjHP4+SnGHXu4h758odOee39Nvnwq04ZV4KZX0UeZntjZd0fFUHhqBBxqT3irLmtTz78ukOB5zfzutWMlrPRaQDq3bYsldVXLsA+Scw88SLVTgGzRmdEmmCm/epqtFnHsw6jqK5SacX/4p9zpRIz6PNPmaQssHiJqkzk/mZ8svxhB0yeKkRykgqknxqP7nUURbJwzgzTmSky/fjdimRfmMELGrs9AOB7Xu6QGf/rVGX5UwKjBmdAi33dlfICy3gZXU82AeZoEDXoI9nf5qGEUwaY2WIOzyRqmAFTMSEYK+oFRo5UnOm87K8E+M16t8NjUgLm2QeWBs4wG3GY9F/uapaF9S53o6p1Vx0rp+9Hc1yjE2LCVAJmFJiZnQQ/Lc+svcpYOfvoCVEp/peNWYcBh2ib89JiYc+v4kjQSBwNcrz7eZvMfL1FvgNA1TX14YzIItl2o1JlJm4CAJMi1+FwbbCby3Mrv5nbJa9+0CLvf9GhnoWi2p03K5HN1i1We9YIfiYAemIJPLQ/zcunxplDC7Nt5tj7Bmuz50AkfvbR42X7jUrMbJ7fq8+LSY4n9IDp7uoiBUkzPbScYeeMvTOup0i210ufvlux7IOPVWNoKmIxPAunl9w6s014Eg/5nWuVh25PO7OFSszvLxNE5WwCTLavEGv65ngMavNQ4lIGmPzqUaKHoTxVSMuEGjDJhA6vOUyGoH6lEQyY9G8C5nvYVkKHiHWmjZHT9nPWMNXLEdEUubLvfnNTM7YIACxdac5ErJP9/dgyDESn1kSYMFWA6YGYakjkh228/ck6eezFVrnkzMmy8iRHFGk+q1m2X5D0Cun2IjfieA8eUPzV3E65BrZp5y3ulRKc7LLNhiVyxO5Vai0y8kTh8dU09sp9z9bJi5h908jF5PF5cuKBlbLOKoVQGHJA3QQw5dcDCM1Q48N4AznCxEj7osuKUmC68p5aeenddnng4mlxD/g1y0VqWz5f2AGTx/DRaXJyTClmVR6OM5Ezb6DST0S8evROxbLHxq4lLhQkKPJvbu0S+evdzdIKc3u6mrVWHivn4axa7byhrCMCrtkGmGMhRTElKQFNHlJUSgCT/U4FBb32MqQnC2GhMAMm17XIGHzHRTEi4viaZ59c9UQrlH46nXRkLIax4hXG5ygQpF1Kyv4rS0ZD065P3vvaOc+L9ZVjDeTUfYoh3olsIUmECdMNmN/gjMafXThXDt1lnJy4X4WncGI+axBgenHISDopR78XIG1xHiE0XF//oE1efKdVPvi8Q9acViDbb1wqm6xdJFPHxz8XVFcZhiu32rzyXou89HaL8LSRdX+ULztsUiqbog1lxbQjzB7nGMLV8UbCOl7FMDmSQZdjkh5/6jSTfy+UXbcokZ8dUqXWV92i3sUs50Uupyf0gAle1ZQjrfQwc8abM+7OxiHR30HjlcsgdBNhEq8KijuU7tAsZRFmUCUwvD4bBg7m1jiiW9a5zspj5NfQS+D6pXbmONZx/mu2AWaq1jFTA5gYAdliP9YcWGEGTK4ZkzH0y0o/N+MIA2TKq2e0ygs4LFo5WABRpkUifOUxsS6r6+L6yU7rRduZTYQJUwGYHrjph3Sv3VhHvAzrli+83Sb3/mNlKccaIp35nKqs2176zbqU38tMJShSjOWdfB9CqeaWx+rkB2i7VmNT/vT9qmXDNYoxu8yJobkqGOIfNq0NFpA++qZDbni4RmobemUF2IA98YBKWX91R0mHQBYFZhwuekCgbaafTSV4+uN4n1tnNMiMV5rl77+YJGuslB+TR5PJX1bHD+UadsAkr9KRnPwjnTjaeKWP13NuwgxzkQOE4uNVdwgzs+dYTzUA9UysW640Pnqt3KnXyxroyTbApOIcD4gIolUgARKMTAlgUqmPmorZ5sIOmJremgkZdpgxApgvfuCeBK0zu9zEMhHnBHKBOTtvlA9zXIWRJNeXCBMmEzA1gMU8CCKYxm0kf/rvIjnrmGrZZr1ozUxd1qGCU4MGQq8+jFkvn9s4hrkO+OSrzfI0/sZBiWVvmH3bc+tyrPsOz9qk97xJ8lA8++RrjTLj5SZpwHaX7TctkoN2qoDB7jFqRqiBTF2NMRIV7z6L+XrS6fxwPvWiebLB6vly5lHjVU6dFtSE/tKC8gfFNcNCzq8v/16O2qNStt+wzOtXM2+88RsUn+w4EzD5TKwf/9WVPoZ/dTMB05Xdqgd3Mqku8PrB8yiR94nYerLNWrGSjqDnV1UaP9kGmBRX065s9HvNaPAQvSkBzGxU+CF9wwyYiunAU3qAaCZR8WRCPP9/nmyVlwCY9Ksf8hvLUOwTUHbjH+XJybsXe4dJs5h2un4dDroSMK++b7H85oQpstvmpdGb6oMKxInTQBaUrNPOuHSeWkv8yymT1TYNHc8yfqBUcZpg7jeozs+r9lP0+iA24i+s65N9ty+X3bcqlxUnxL6Qgp4r0+K4X/Tp15vl0RcaoN2LD4PtymW3LcrwInZkggrI3PezAkb4/eDGsE5zxpNT4GVoDl9xVw1M5k3GdprImZn+8ppm8eJ1en9Xzpwfhh3eO2fUyu9OmBhawNR8yrY4POpc1WgFL/6agLl4iRqdil/dRrtdEOFzzEty8O121I6FstuGEdqaNEqEV7MNMEnffIzdZO/HTAlgUluLoJltbuYbTTjGaIHsh5fnzw+ZqDpDD2Dd1qDBmWgc60g070D5dDqvBAz2xjVPtciL7zmKBHptRCUY9x3tTpyKsT5y/tGlMh77+YKcrj8ojRKGz7/vlMvvXqg0R5dKLjRHS+Sv2JeXg3VS82URVN4fpwHMH88w0x6C3dUbH6mXv/xskmy8pjMbNsvEAKZLE4fYTg8yvy7DtcrLbl8ob3zUIVOgHPOb4ydDnBg7yw56nkyPq23qlfOungtrQ92y1QZFcuphE7CGHW0XVgGaO/BNcNN+deWAg6OfGrvnX7sIRhv65O4LV/Iszuj8Ts7Ib7z4SI5YH8ccxeaX4FSaeTAOkZdDsFkmZx01AR9rOFzAXQvUJeON36D4VMexfpLLuQ/HochvbqGWrCOl0x+05rOThzQPb7/uWDlupyLP8IXOp69Bz6/TaPDkGbzXbnqkRnbDByHH+lj3I0nnydQr13opmk2mSwlgZpvBAk1wro08/kojxHONalAfDNHVDlD6KDO2DgQNzkTjeJ9E8w6UT6fzSsAgQ77ySbd8BUWCLjAJ91bSClMbrhQRtUE01wcJUHvnMiFY0pTW6rASEs/p+s10Knl9ic3zz72Fw6k/aZfN1imWHTctldc/7JBZWFukqvdBO5XJ3tuUSWVZ/Lp1nRrAdNi86jSal/vtlQvkx9Py5VfHTlBne0blY9uNh/X8pAvidVj7P/q6U+58sl6++qFb9sGH0ZG7V0MZJvijwbxPNvmbYHjhgefq5RnMOCdgtjl9P2jTYh9prnsMBAHNAzXjfaTjotJBZ4bf+rRdfg8LQKcdXu1ZXiLNdJkg+vWXpvNzzFG56MlXW6DM1I4PpgKIzctguGG0PILZ8ivvtcpq2Au7/3YVsgn25NJ8IJ0xJHRVceOD8iYzjnWRP506OSZFHsEhCQ04gq8V/MjdBh04XIF8y8kI/Wx3B9KotHf6viXY8+r7IjBaFfSstPH99uftoFujOpZt6w1K5NBdIYqviCj2GVVkpJeKT7q/k9WApAMmO4eAma2OA5X77R55oV6eeKVJbc4++cDxsiXAgV99QYMz0TjSLNG8A+XT6bwSLj2GhKcXwEgmZFu6YXqNebiVhMDJNB4oPbG8f5DQ9et+5jFat2FLx5sft0ollGLOPmayrLlSgbJxyq/Y+bW98u97a+SdTzvVrG36vhWy+xalunjMVQNZTAIidBqf4UYo4jz6Uotc94cV1Mtd53da7OTV+VUaCQGnAVL7aYLuaRg7v++ZJiksyJGzjp4oa2KjvxZJqkIj6IcSoo9hBOHKuxcJ+/aw3crxoVMOVf2IiNYENI59xQDqYgAqw/jHsXXpnYvl6zk9chFEs1Xl0R9MZl0mmePFMw/XR/9zfx0UvVqlAuP1JwdUySZrYZsM1q7oOMa/nNMJ6UONfIK2bI69p5QM8SQV//hVBfATFJ/qONbPYencxwFMHSZfchsKr30gIj9q+aG7zOVVmrWsgGZ7f87//HMXd8vNj9di3b9DtsUH/wn7jcdSwxjMwo2vn/4qzJC0VBhiTzpg0n4mv4RGgvvkuw654s5F2IvXrfbhHbNHlbLp6RcD+AcsaRMUFy8+KO9AcTqdV4KHZkB6PD9uuJScB6fzq0ACPzo/X6bv4Ev1dqwZ0STbIbtWyqE7V3pbOsyq+AJ75KUmefD5JllY24cXWKH84tBqBaCmaTiWiQI5sxIjrR5KKqdeNEeO3btC9sHLXJdxWusUMoFRxbD97sPrNL54ORt5YGaTrDIVyilHT8Iezuxcq/SRcsAg7d9edNN8JaI9Yo8K2WPrMkggqBnsvFwjV1RlxOl43oCAyf+t7UtxmskcLGmUynF7VUbd28xvJgTFt2N29CrWRa95oE6ZFNx7uzLUV+GJes3y2j/zzSa59dFaqWnok+n7VuFjrSzQ8pIe17ocr6mOY/0RnsTojQo791djFbmCnsV81iC/LrMY2tDPvdksj7zYIKvA3vBph09Qmt5BZbIhjmNH7xtPVnuSDph8KfJraKS4LsymZ7/fgnMXG5R6Pm13HrlbpZQOQUxLmunBbdJvKHG6DK8EEI8hfcw4VMDkrPFtWLnhrGx+bY/stfU42WmzMoi/ghUPzPbUNvZhdt4MmjWpdyzNth239zj1AtNgZuY3/Tqd4+x3V80Xnl7/V6xdettIVEtJR2cMqqvnj45nGgH/+ofq5H/YX7kz+u6oPasw++nfqLz5PNnsd8mm1iBvxYzk6VebZGusa56AmRwNxNNpQONV+xU+GuCp8iGS9d2L80nZ75ecMUVWmxr7UeLVoWqP/DCes97XP2pXY+ez77tll02LlXh/Ggy9JzI7ImDMAnA++HyDWhLYY6txShlNz0h5N93myJ1TH8d7crQ6904+YNJIP5dJXnq3RR2wfOCOFeoDvwJa39nueGB8MifOSQfMbDowejCDiTPrhzFL+e8Di9XA/+PJU7C9oUQpGyTKhLxfonkHyqfTeU02YHLz+zUPLpa3P22TtVYtkPNOnipTqgc2xm7Sk8/FF+Af/rNAHcHF9YZTD63C7LTczOb5NQAygmVffq9N/nTNAvn19PGy11ZlKp9qp9twLz/CbhSu9PPVxDqWCbcfXHkX29EhR2ALwjF7VasZi8owwn80zTQZIL2X256okXufrpc1po2Vi06fGrPtRIOdurrSPfp1POvix9KZ/5ovU7Hv88KfT46xAGTm1ffmlWtu/7h1MSwVtWF2NFbO/8lEmQYpgIvLZtZ+/ex9rtFedscCeemtFllrlQL5/fFTZAWIJOn87U5HHO/J53Lu7YzXSNiJV2OXnMyEQbjPYd+YmuoUwx60S4WcfMAEtXd4EFVkdNZkHyidVMBkXyqDBY6UL6MJPdSH/xom0+7GS+Wdz9rlx2DGA3cYB4UUnlsYvc4Qb+AHxQ8lTpfhFWwWYUgV1sw5OJFsLcyrvQQlihmzm2QSzmg8AF+qe2zpHJ01VHpxHXU2ZnePvtAMmnXIBmvmy2Fg7I2gvBH95R95U/AEkPMAltR8/NeZUxTIOS1ku/hSieTlG0bRwI3T6WzLNfdjHQeG0vdDH03fd7wFS7cTTfL5+/WeZ7Bm/GKjTMQ5qGdAA3VytQM0o9EZGuzUNQ5gUjz7DE5xufq+Ovnt8RNkm/WdtX99H12HDtOk38w3WsFTjerUlQN2LIP43flA0nmGen31wxZ54NkG+eRbjAFso9kDWqIrwzi93wXRI5lxrIsj1qnTHa9e2IkfDGCyHgLlzDegfAdlqw2hOU7JydowgzjSXLIt/iQVMLmw3wWLK0GDaSR1FGdOn33XKTc9uli++K5LNoVC0M8OmiDVhqJDPBoFxQ8lTpfhlWDiMaQKa+ZMDDCpmfc8RDpPQiTXBxt8ZL5tNihVosvBfuHHGwfcPzcb61LXPlgHMelSmGorUBqVk3E0VRQAooInX2uW/+CFe+N5KyqrO07r2Ca+bNhSOH0x4nQ6Zxj/vGURzqnswfpnley/A8zoJVNu4zxBRv5q8sV7eEpSXsb+2ktuXYDZWT6Uo8Yr+7l+wPSAj8uXvlkmDwo4/7qFSpnlotMmuzPVyB2ZnyL/pwGsD0CEy/Fw7F7jcFRYibpXssYc70gpw5uftMrNWN/sg5ifa7QH7VCJddrIB24QTZIZx7o4XJ06OYbNsBOvxi752B3XEWpF+xrRnvtmYonhozb1UfvTgyfKGlBeK4IZzJHoyNYUyybLJRUwac+0GwoUA/Rpsp49I+qhFZVbwIxcRzgR5tT+n73rAJCiyNpPFIlLlrgERTzUM+uZMJ3pPOMBhxlFxYQnJoKIIIggCCogQcAAKMGEGUHQQxEU053oKVmWhV02sgGW7P99Vf1menp7Zmd3Z3f21ynYqepXoatquuubevXCBafUN+dt4R58P3pZaFqHMQGF34mhmWsnDVqkM0yeE9LSzYQ30yUlbZecjgXrDgC/+leM5RcQADo0OnRaOlRRCiE2j4USAj1d/togcEZJ1ly3h38FrZ7cdKkVHLGj45i4oDhPn0YuGvOoY/nC25CsXFFg9GlvAYvKK3AUy3H9f2pLpy6aPi+FB5RRL22B2lBdmNRrAhdeoXZoIwEmd5kb03fLv0alQsDqEDkftmwVBPnMbYFE9QRIv/5ndRFs3daSft2bQgK6emAHG03/SltmO56LaZCmXYAfhXTmfd81zY2RhRqQuPWbl1jS2BYfV9smn2H3taWbZ5vvsfNce8dHQShKvU7FGPijhsJ33S5obKTUvWX/SNd8ruhQWp+v8o49poDJnZVxMVPeXv3O6lNX8FPs0N6HDid9Il5xTkNzvun3y8fvhSgLTeswJqAEXkjPyxgOMDehz9Q5/fy7AuyQ68hlZzeU048JekCI5VcUADmnUZ6XUQn9PZhr+/Tr7dIWXkcuPaueXHJGPRk7J0N+wEJK1QSKwpuxOYM17XCgCNqmWWicfKqO0B7sYrD4uoDte/VFTaosWKbCvyZDsnO2Zi4q8EOfl9LcYvZHmfCAkiOnHVdbenZuanZluptUwDSxs8tk25rPHeSkNzKN7uT4vq2lZZPqsh7GEt7/PF8WLi8w7tloXensE0LNHGq7pelnacr+sIZCRbnGyP5J0Nu8vFND+XP72sUER/zmq6w01uNja+tbUAxeW7p5jvm0O8+3jomOxL/G8Q+5P1xnzv9LPfn7WQ2lfauShe+0jd9zjEfPHO14DVeUdcwxBUzqB/FFSITiM8AHPRXmx6a8tVWWAoR4vjnw1mR4IAiVVPO+EGypLDStw9iAirZjroNtegGT39/cRVnyIc4pG0CK7qHuLWAHtG4x4YziIyw7RcHN2wIdM/+4bqcMw46TKiRNoGuXg/PLXt2ayFXn4BwLb4MbEDlRwXHb51DzeTXzvSwIZuXBFmx9IavqYKjBVLVA2640GLA2xdr87QCD5fRfWRdG3isq6JyVpn3OK3cyE1/fKgvAIu9yAYw8XALVDvDAOKteFq0hgq6AyXtxJ9n90Y1yCc4k6T5u1vxc47Oz93WHyCnwK2qMZ4fZGlQkcHKX++O67UYHdRN2wudhB3zv1S2w8AafF785KyuN9fh82vrRA2YeDKk8A2ta1DHtiPWk300toaIFB+GwppUIwRmoifecFsZiEWIKmFxsCZqJEHkGlnyfZ4QN1sAqDpXBL8Wv2NZNYyulpy+vfRkJmc4LGfJyBlmyhTgnoveK1xdny9pNu+RoWHYZ0au1NPIAeuSRlS03HGAqnabVXngnG34u88wPssvPSZJuF2LOuMPEALUcVxwzXn44gXn78bcCZzrjZ2fIETjP6Q/btvQyUpUC1VvWbNwJVvR2yc2DWTe+3/hjRJWZ0yEcc3ibGgY4Y/Pq29G7pirq6QjMN2rwnR8DidPvoYt7L4yr07qT6ToGoOAYADeOxwFAxmSvP44fQ1/CEhQtP519Ul1IKjcKOevX8t7OhaN7y5Xn+js43X54XCq4QhbQbsDZ/RngslBlzG/eykpjvcD7yZ+3Idf2vTXPuZNHQSgeWby9BHZ/G0P4DmfwF0P4zu3Sqzzj/r3V5Q9jCv/EIsQUMHf+Dn1gxmKSvW3w5ciFasbXEDaYjl0PX4bzocNIhX/y272hLC+i1rEvX2TA/B/svlI37T+rtoP12VCyC+AgOQXnSP2SzdmRtz+xunYvvN423Xkcw1cwtffEC+ly4pE1oQ5QCOnM6nLqsdAJhMWgWurUGuwpreeOqX83ZPIWY8Fn8O3Y1VchPUuOjXZ3v/jPdhh53y37YcmFmEJAMK84PlQeKblZdSGb8Gio8sQi6DNSmrZ0Xt11qGY08uUtcH22Sx653XHjhQJmDByH82fqOGP7GebsuKP8+qcd5pytY7uaMM7eylcAyH0vTVc0YJK7cRuMLLSHruiN0BGmwv97kA5uA3WYzn9tLGcCOL1sPr/5jIbGMlwTbNnwgLkHQiIfox/Ufd6O8/1rAeA0zckz10QIPwOxlJSNKWAWQYmcv+YTIfoZoH3aydBp/Hj5NiOi/9ANLeSwljVDfi36TWlJNM1nTLgMvJDmGjtLCGjlFuyRVxdmyaIv8+TQVtBtuyNZDsW9N0DA59YhKXLNRQ3lVvhIrAgJUr+Fl7PmR6dub7eH18upR9eGyb1msjVntwyFlCXNrDVueKAMhVH3Q1tWBysqWF/b4e6UYEnLQo/dmQywqRqi9TynLcB3T/OKv6x3nHUbMFHARIz5sGCjaZvHRfw8sGkbA/gVTKN/4mxJfT5KU0/n1K/OSrAFhzyfagBlwK3NpR7O6oP9t6DJenze3/hkm8yev01aAXwegDu2oiIIek1Jl+H3tpCTOwbPLPnDQYMfQPrRtHx5Ys7NrAU58gp8eT4BKd4T/2SfmV+37JQR+GGwGhLw3PHTzF4TGHBQ4PSb02hoLIP/YQGT0rubs3bJeLC/12/aCdWr2jIQus+Uh0iEkmeALOoaMTp+iSlgUlIrEco2AytxZvIGXEmR1dLp+LrQC2skR4F9yBDNS+ctp3XsyxgKmJl5e4xRapoL48NEISSydNznZHMgzPE2WKCj7m1lFkHTkRh+hFt8vXQKkr30bjb6sk1G9W4pR0KnlWWKdsEQ/md5EAoqkFXYrZx9IgQ0zq4nx7S3wg5cgHjG9vanuTCmnmvMoXXBDr4qnO/wPPZbGEvgH1UmCAwWXCwgKlAwNoBo8gk6wXJJdarBIHotI0Valh2zPh/RfqXe78Wv3nzsfKbgx19nSDVffTEkmJ3+8jyT522fgjPwwdJ8qYZn7vxTkowKB63NcLdE1mw2WNHUq1Ug0HngvfzA0Y/m16/S0ijB23fsZpzd15K+NzUL+cHI55Fu/j7ADx0KZl0O/6h8d5phl+c3p9HQWCYcYG5I24kdZZ58Dmti5CxQ9/k0sL2jsWxU2nH/XsvTZwD14N3PU1nHGjPApEoJjRYkQtlngGb21sDwwZMQ1yfL9pyT6sttUEWh7U5vKOlF1Hz7MgYB88sf8+XV+dnyK3aRN14G4Rmcf/gtuDxT64NFg1KaA29p7r19ua/DLcBuOvu+fjPYfBO2yLkn14WVksbmoWcZLZcPvbP52J1PeSPb2I088aia0vtaO2ebITU48LktOPurKYN6to67kA939VQkXwQpXe4uOT4LikAWBDcg6stt8h0uPUtVcwoRSJmkJxWypk+CkEy0gfctTdC5LqkOd82TXk+Xj8GxeAJSzIfDLi/7uBKCW5OgJvJr2h4jHEQvPzS+bgSEWABhNbzD3D1ik9xprD01snNhswK39QKk9zpQsJyJl97Phv5nnrz2ZDtf/UXOH9+PJd/l4QdChtDIN61E/Q32ab0/yPzm2kvjNb8SS+ezLVKEtZTyBPMh/VobOqG9r6PwXW2p47MWlHO4v/vqfFdi5Uw6ZoBJK/q7wPdPhPLPACUlZ4NVStudfAEpbHDykXVL5UZMX0rGZJOvgteGeRAS+OanQjnp6LqQEm0mbX2smrh7TwsrI15KB1uqhfHG4s4razrc4uula//HztkKgZIimdg/2Zx1sZwpyxUGQa9puWcshHpoLSipdjWwkhtBGrlQ0rP3yugH2kIaOX7nPBSMocg/gZK7YYN5DlAY4MM4itEcsLB0zUdsytrzTc3jPNBv59knJUlrsDm9izbzNei86nU0sfe7iVQnJX2XDJ26Gd409ss91zaVxdB3/fgrWr2qKXd0bSIdAKLccZqAwSjoMX4O3mx+WLtTRvdOhqCTZTdyjBq0rF5rHI6u+aWJs/FD9UZI7lIS+1JIU5cUNmK8UyH5/sPqHfCZWkuuhv5jB9hTVitVfvPtpfGajzPjwqK9xvLQbBgfyIZXpE7wI9sDVqj+CHZfS5rrsubzGYqVLmbMADMhIVvWrzN8vQ04M6F6x3tLco2rqatgwu20o5PM4up96diKm6bptOzd8iZs3H4Ft1vcLXaFMvNJAN/aUVj+IIu9/3gsfmh76B0t8dIW3+mG771/jt/i60/jzqRIBuP8sRd8KJ4HCUoGA5Dcqpm0c43Bso8U1KAfznc/y4Wo/S6pAfu0t1zV1LCxCEzxCBQ4WrAsXyjkUgTfo6Yf6Iv2h93igs+X2vzptYktjf0O5LNc4DqUTVsL3+mhrQ6WU8Gyo+lCb9BnwkuPdO333UQqz13mh0tzZRLsl1aHGkZLSH/T8AR3wHWwU+JYDWCacdjBKODRzuxDz2yRM0+A4+ouTQO34dg1aFm9ZuxHc+dHm+ZZYZ9xm8Hu3y/De/F5j+6MkPP67c+F8gZ2hATOM49LwpgbG1u3fnPupfGaz+/3q7fDVZ011UeH6//ATpwg7Bp+tENJlPPMQKyMsMcMMBMSsp5vKIaXKTCc/PjUVJjZK8Iuop7c1bk5fODRskroTdwvIs9aqL4yGSwjWre559rmOG9pFCJMFFrb/4qs25sGpcA5c1OcEZb8i9u/lSDVbwH2o3HR6j5oI6wKHShP9GoFgKe3Cy4rWFwAmDpW0vYrgCKPaUqbDpu61ZxbjMHuMh5sLP6A/Df0bd/HOSv7GgA8LH8mjb4qjWPios+vUwGVaUNDwqZZKliHdRV0lU2r5ejPlEIpZ+BPz7p0vmwr0X3qfEdX2pbS+/R5diNcae2BkXb4vsT5no6Pse4wmVY0MGk0MXch2OvwHjMFZg+PaB2UBmZRBi1nr+ynH82dH236c5hmfOS5NHnktmYRfbVGam8Z7NOOmZFmxk4uzhV457xOjHWOtB2yd2fMz4SN3hxpB+G7oXe2xg+fhOEBnZ9YxDzDpFBgeUPMADMhIVveryJyfZocXABhA+42aWaPFkgoUt7UJVLOF5HGzFfAi8hb2FX+CjH/i8FW+gfOKZObFTcqHfmOwdwJMFJO8f8J/Vv7nukES0ZOhVuA3XSOgX/vQajiubmZ8vjdLeSUo2oHwdIUcO0scR0ATNSjIYY5H+XIu3Aq/ShUSMjKrsxA3UKadFsGfcr1qbuwwDsgh064F33FipDYKaBAyEsDhqgbCqTBtpS7yXLEFNOeAy6NcU54+nF1pAPOcJVFGO1cuL+T6OsES27ED63+41IgzVvHCFwR1Mw/jsnptKE5g1XQy4fPzHufSjXWnR7u0RzPm13lOC4GLWevgp/h6MESkVOU3n10Upo5vnjm/mQ4ynZuGLmab+4W/GAj+H32bQEMMVQT2qY9GTtslUXgI8xA4a/l4PxQn5JsdKp0XQgXcw2j3NnaVhKf0cxArLyWxAwwExKy0Xxt5SvDF406b4sg3frKB1lGgZpnJuefXN9I8vGcbPxr6Uav79RjoQSOs0/+Ui2vQvMmSAP2H78FZ59Q68C5VFmDdxH2XrNdjnEbBHkefGaTOfeiAA+XrkBZ5DNd7M8pswNnQL1GbJbTMP7e17YI7LDYdkUHstDf/CRPNmzZYwx5K3iZEzsMguNQGvti0qASM4KAEKTbfCcPF2ynWDmnbrDtUODkd9+k4UHGZBrPN6MJgbmOprBTRkFAq1BCeRJc3S2G3uBw7DIPw87JDzCVPav1CHw/ghXf99k0qAHh7PyY4A8eHTvLegHSe63tRRt/vCJfnnk1U15+rC1+hEbHio3UNk3W8XyTjtWXfANTf5BwpbWgZHh34Vx9SR1s5KXBVnPXC+kAvWGF2GiO1Mc/Uh5/kMRCtSQmgMkHYAdYaIlQeTNA4YoX38mAlZRCofm0Y2GZ520oVvOc8SZI1p7ngGisevTy+zm4X7ZMHpBs3JWVpV3vQuy9Zpt8luZAveatxdtkGthydSHAo+BoDnpMmVDAVN3ffWDHTpuXKV98T1uzbaJyZl2Wcbjr8MyOAkf//rbQuKFS4DJlCHIENFxwsTd/Tpr5QRqgxFPO5nvopk4oLaSdkHuEluOO6VgYMjZiA+cAABjcSURBVP8L7ALXr0sJVdYsHvy+k+KlQilesNTctdAZHDw5FTvcg6UvXHkdBPl+O2b2zf7pbtNMEioqffiL6dAT3idP3pMc+MHHuhq8AOm91nLRxIVQa7lp8EaohyRJTxiSd98nmvollfkaHJ9p8zLMkcrlsMmchZ3l1xC+Ow76nb2ubm70rktqI5FfvhmgLrnbtGFZW4sJYPIIiWLQiVC5M8Bzyi9XFuDMJ0OysGjT8sffz2wAM2PFBT7K27N8nLPcOjQFRrFrSt/uzaISGnLf028hdtN00V0Nc4EPPrNZrrkYunwwnEDAcQOmpoOxZcPyXutTi2TA+HQ5HY67H4ABCHqaqMhANt4ncGi8AoJGlMblGHS3yLVdF14LArh2aIGYiRBaKMiF1NdyqGPro6yLFmgHRPaBmYy855v1YWbvOOgXHgcVBbfeLeu7vw9eRxP0e/Mry3XhmVlp8t9VhdIfxgxocIFzEWAzA7UV6AJjdWj/W79TBk1Ok+vh1qszhN10DvU+Wk+vNQ5H13xvzCOMsbMzjWu5Mfe3ggGMsh9deNt2X+fCpdySb/KhU5xhWK43X9EURw0UhIrBwZr7Rom07wzwmVOLYL4FoiTGBDDJftkJIYdEiM8MzPgw25hWGwkjAw2gl1dRYT1YjrcO2STjHko2CvOluY93MS5+LcYO8YDnNssG6F6+MMjuLnkPU9Z5vJjmmSVj+xcEzOkwcPDOv+F26v42clyH6PUSSzMOLbsau6ep87IlIxf6VOhbYMEnUDlgZWInTSIBzE3zlmPbCibMM8DnqkMIVJoFZrboVw40/FZgGzbfc2/QebZ2IfQGjwB3gsHMsUmV7iMSYLIl2j29edA66XpRfbnub9SvxBic7S3HaoHQxubO6JuC3sjpGea5ngpOA/2iMuiYbNoZoMmxH1rXRYqY/Bn+avvhuKHrBfWl+9+tu7iIFcqZScfnh7U+WHpABzoRKncGYuETNCaAyZ1Owq1X5X757ru9Mj8HlnsKpaIBkzuGYS+myeYM6DwCNEsjSOJdkItfiyyHgfQRYMWRfXcGlPG1jIkBSnrtB5gUoBgOazFJtQ+Sp+5v556emKZ3Q/VgHqwOvftZvmmXCzjhyMQmbRd1s5Tz2k1ziAp6zHOnmR1sx1Y0e+SQcs69tKyJQ2nsWKAdNqN/2k8nnx4cOrarIceDNdgK6h8OjrF6VKEksNRGxs5Ol5Vrt8vo+1tKLQjxKEgqYLKcgii6aPJJy4Qe4h3DNhnvMreBVcpzKI5Fgx84+tG0vDcmO33k9HToxsKL0CM0bFGxHAnen7vm9gBM9eXq7VPiuuJmgKp0rsenTDeKCWAm3HqVae5jVqmyAJMdXrkWbE9Y3ulyfgO5+bLof5Er2Omg3de68PYeswns5ANlAKQjuXhrGca/cXVDYFoBk9c8v+T1NzAzN+rlDBnbtx0Ux4PqCCwTy0AWHtmvi77Oh/BVIczvuQGJAGhfSQUp3tuAIshcjnXBt6CBa4dmarGMSThtah4qBcoF8kNpNj+UhurmftoXExuaBR5tk5ZkDm9dQzrB9yQ9cUQT9DuLpiwdGw+dkirXX1rfmJFTcFTAVABlWwbw0DGlfQLTh+PnZsm4PsnG0IbOX6BsmA6YdsLkKZlOB6j3OQS2iCmJXRkhAZiVMcv+94iFLmZsABO/uvnLOxHiMwOVCZgc4cgZW42aybMPtpJkxy1ZpJEr8LnLuGlcfD/4gmbGsuQp2BLtgMUbEFkMMLWOH2A+hl/uv/1WTUbd1zbE9qf7nrFMs88/QS92JuzUpmXtNeo8CkBmsefNuPAzMgBQPM0Mv/x9uwsld+uP0qBpR6lRq4Gtj5J+7bBVQ3fuEwLYrnsjacrpLtKAlSEGQZq6rufCxiuV5emLMlwoDViyjW04vxv+4mZjNH/Cw60hxOMYMOD4XX8sa4DOzJfNo+H9ARM2Y2daTR6/s5XZZbIcQyRQjJTHuuSIUdDnT21rSH9wNPycubNcrEMCMGM9o9G3R2s/+vxHXyu0ZEwAM2HlJ3RSK/uqsgGT7M+7ntwkZ8FI/D3doPYRfm0NgJ53ThT8SP81bTdUQVLkIkgp3t65ibH5yvxAGYCTXjO2gGlbpN4lDRXc/9QWuQ5CT9dcHHspR2/f3dc0sLAE7PBPYFg8FaxqN3hhybfXzvyYPIIBGnCX4wVp+/ftkpzUZbL6u1myq+BX6dR5mtRp0NaU5T1tHecc09UO8+xujSkFQHvvkB0rb8J8bHUDfTC04NkoDVW3bnGwnAA2bcdDiyvPlxYseT+y8l+BYv7rC7Nl4O3NwAK258vcaQYB3nbO7D6dfiqYfgq1DHIP+gDYLjilHpsMzIlNOxVMjv2IBJhkVrz2ca5MfC1Lnu3TKuCNxFW9wpIJwKywqS2xYaqVRDIbWWIDKJAAzGhmqYqXqWzA5HQsBkvySSxir8NAtdr99JumAOg5me5rLr7UV5v0RhbOBPNkxuNtAs6DFSApUKNpjcmG1XYInlz8PlpaKAN7JkN1onJYa+6xchx0PEC3VWTT7gG3JRQcLSAqjXU1zaWeoFZUmCmrlg2X9T8tlr17dkrDxs3l3KtfkdoATF/QQwMGJvARzA+9D/MN6Ljuh2Tw3ihg+qHleO3kc2F5CJ463KEsYKl1ftm4Qx4ckwIzhfWk++WWlR8OMNkndkwBk44d7h2VarzPjOxtvZmYMk7n/MDRj6Zj2Zq9R/rDKP+Rh9WQPjc0N3OgeRUdJwCzomc4fPuxMF4QE8Ake4OCP4kQnxmIB2BSpeIx+DCkBaKnIY4fToVDgU1nxn3NxZQ2Vmkvlk56L+0UNL2n4FgSYBbt3CuDJqZj0bPs2Ghs5GpfKiJeBwlfGi9YnbLL2CTl2k8U4gLOM0yTZmQyIBm8I13S1syXVSumSGF+NkuYQMA8G4BZp77dYToYElLfAApKax7btO0SbNx0F5CyfKBcMB0sb+sShPu7vNQo8NneRffprdNz2DqoVFSTPgBinpVGC5i8G41n9HoyVW65oolxH2bHafvhB45+NO319A+yYbIwX2YObWsM+iu9MuIEYFbGLPvfo0oAJmGSgEnVkkSIzwzEAzC5GJIV+ejELdK/R7Ownh3cAMnZcV+zjQGTYOwaiuMj4Kj3YLBMNN/EziPFtJ5bMs16Jgaa/rxhhzz1cpZcdEZ9ufXK0B1RfL4NEVq9WgV3Ve98tk3WbtptugH8cYDKgte+vUWSue5dWfPdHMnLWiX79u4N6W7DRs3lLO4wCZiBum4QtMUt0DkASSB0yjLXAKqLFgDYEJptR9m0bIBgyV4OuM26deN8lzb41Xn3sxyZsyDLmDukdxUDmLgxbmf6ynuwj4Ytay5C6TPg0Hn+F/ky/bF25kyTRRjCgaMfnXaZ7x6RKj2uaGyMwtsWKu8zAZiVN9feO1UH14RrTHlCuXeYfJd4ME/pwUSIzwzEAzB1pH3Gp0pB4X554u6WkHANNSlmQE8LOrGb9jEkIMdM3wrv8c1gbMCea2m+AUTnmWKagMlg0rg2+YgXw6TZlDdyZeR9beTP7SufHesMyzfavXe/LIRLr3mf5gd9xf62V3YVpsu6ZUNlwy9LfOuRSMDs1G2m1KrfzgEUAgPAjJmIafKO540B9q8p5YAd8nUH5gZUFrH17ZklLk0wZZw6trytP7BnC/PjxCkWdeQHlqzMvnZ5aLXcfXUj+HqlYXgKYYQCprl2OmEAnmkEpjNy9sI3apphpT54vZWkNplOvqY19gIm16iHnt0i+dvh8s3lqFrLV0acAMzKmGX/e1QNwARO8vwmgZf+X1JlUOMJmDQ03fupzVD8hmWeCxuGDJeg5g1Ko9sr2qdt0fggAGbzgFSm5htA9ACmbQ7giQQBlPHL7+TIsv/ukDlPHuG9VZW5JjtxMYSCPvr0B1n7/SzZ9NNbsmtnYcT+ETDP/OdMs8NkQQsetkqHNjXgQqqOMR334ed5hmgwxmBLEAyDtGB9FjF0V5tKY0PALxNY5lEAZmmDz1ceaIKANeC5FGlQ7wC577pDLFjiRhybCv8EABO1DsBWV0GP8W+/HQAXWrkyGc6on4Ye8IkQTNKg5fSasZdG7zFPTNsKPd+mcuFfrPCQu3xlpBOAWRmz7H8P/sAsje64Xyvl32EmANNvXiuVFk/A5EBnwtIQPdS/OLhNyC5TwU8nQ68Jo3MX5MBMWI5MxzkSjV1jz2iKBcoAELn4GuBEwsa6w7SWfvZCGmTwpHR4Yqkpfbq30ttUubioaIeMHDVKpkx9AcI92RiL3S1H6mgDAmbXmVITLFliGAGMdnXpW5Jm7XhWuwi763c+zTN5zOcfAyOChaGZtCuPdBfNlAvUseW0ncHQTyxNiASWbIf5L8D+8SJ43XlxSHJwh2n6ajtP4CRoMhjAA9mOxYInuVk9hm6UjrBQ1A9noaoOYsqaWsEPN431BsLKDl08DQM3hLZF4xESgBmPWbf3TABm/Oa+St053oBJyz+UOjwCRrb73dQ8cE6g4KeTpdd0T3bnCKiRnJZkjB8QLDVPY+JnODasnmfuhEpHz6Gp0vv6FsbYvN4nVjH9FNK9lO66SttuQUG+rFjxlYwePVKWL1taquoEzNO7kCXbFtaLqsmRUPG48pz60rxR0E7wwq/yYXAfgImWCXKB2MEC3bUxT/HBlDP5difKTpkzS2Y4aca8pLeQaENJYKntLFhOt23p2CG2kNZwOedlyRLkdJdpAM92KwiaGOXPMDjQb1yaDL49aHDADY56L42Z9wlUU55+JUMm9mstbaA2E6+QAMx4zbyYI4zEDjN+819l7hxvwOREvAvW4AT6r7wruIh5J0jB8ImX0mXjlt3wat/CeLX3A0xa9mF5/VNVEl4rYK7btEuGPJ8JXbp20q4CjGa/uSjHuFw64cjagZ2Md0zhrr/6arlMmvicfPjh+7J7965wxcLSCZinATBPP6Uj2IdJcmS74jqRCwCY87jDRCv8M6CIBMHO0JyYFzwpJJ1pE/EDgaBqyjt05loAFRmC7zKaEC1Ysq2Va3cYIwbXXFwPerf1guDo9I/gFvqHSm4aypFTP3rmVlkNwapJMIRACe1IgJkBE3u3w8TeeScnSa9/Ngl4P4lmbLEukwDMWM9o9O3xhy+NF5QnlJsly4eXZ5ileWnK0+FE3eIzUBUAk73qOXyjNIGnlME9cSbpI41GsFsGd2T9sTu455om0hXsRYayAuasj3JhcWiXDL+njTRz7bxMozH4eB6Os2mkoX5SNbnsrAbYmdDbRskNv/baHLm9580lFwxTgov/YYd3lAlT3pDTTmwf9t366Ms8mQcVFgswtjEDdia5X3btyJHteZvkkOQTTL8BRU5sMCgwFlMfdTg282fSBxhpVttq+M/Svvfp2bshuENfpzXk7m6NnR2mBUnepRoGYMejMYjoVICGMTD8ArAcAK5Gl/Pry40wms78cOHpWZmycHm+PA97se3wHcYzJAAzfrPPd4M7zAiPSomdSwBmiVNU9QtUFcD8aT1ZZVuk701NjRUg78zlFe6FTdE0I6wyHqyxmg6oBgATqy9BlYFRCEuWO06HdUs6/0ZNz5Tde6pBaCgZPh6js4Hq7VOk60kAzBzsTviCUSq1I1yb0QJOSzgBjsSmfemlaXL/ffdEato3j7qkhx56qFx5ZWe5ucet0rZtu7BgyQbmK2DygqBiIynIXiMbVr4m676fK6de9JC0PbZ7YJGwwIPiTtlAzASoHKvSnujVksSwobRgyYZoGenBpzeCbf+bDOvVXA5yzOQp4JEda3e9QZA0HUCnlFXLa3z9Mg4cjS+g2jQKxgzoOoxB2zEX+KCe78CJaXLlufWrhMHzBGDqN1P5cQIwK3/Oq+QdqwpgUm1g3OwMOFMukJnD2kl9lyFvAuHS/xTKMHgUmTygtbTFL30CIIOyWe2F+QzQWELzGbvT3QemyunHwffljdDhBKDFOkycm4Ed5r4QEKkDQ+VHta8p55xcL+w9ywqY11xzvdx3/0PSocMRcuCBB2KskUc0f3mevLmYO0wLcvv27JCUldPl56/nyI7CrZg4kU6XPiJtCJhoypRzypJAiHXTmGYwZ59IUzc2XCipb371tM6wF1IlJW0nWL5NYcigOvoQFPTxgiVB0gT2F+UUENl36rv2GJJiWK13d7UmETVf7/8UWLfUiZ3Yv40v10PLVVacAMzKmuni90kAZvE5+UNSqgpgcvLpALr36FS59Kx6cifswqo0YmHRPuk5LEXOgDpEr66HmO8pKsAkSKK0nlsqYNLC0A2PpMLUWiO5658VY7BgAgHT7DAtkvCFU1Chh48LTq0nh0PFwytIUBrArF69upxwwkky4JFBcu65fzXzwg8FlwDBJ/EhAJPSyfv3bpdtW3+Qn5c+LRmp/w2U5I71TABm62O6O/qXBEObzXHoWAxIkQxaMP8AefJf/oAZTd8CnXAS7jqT3kyXFT/ClOFthxi3YmUFTNaj15ixs7Jk2qOtpXljC7567x/B8bhv9GYYbW+B566ukuMaJwAzftOfAMz4zX2VunNVAkxODE2PvbskT0ZiwVVW2bg5GfL5d9tlxL9ayGGtsLs0QGi3ULpzNJPq7KqU7UqaAUmWd/72wadWasZu2CbdKj2uPESuvqhinPGOR58NYKIPCjC6K2O/aDWEEpfHd6wth4MlSP+SDNEC5vEnnCjdu/eQK664Spo0sT8iWN8NLrwOFz5YlidTZyySjStnSeqqhbJ3756QogYw/z5AWv35JgOEZgwoYYCSgOmkbezsNjUfMVmd3hBt39z1vHXe+zwHakXZ0IdsDAfWtdCf4M7RlyXLvjplGDPY7+EAGCHYJ4OfTwNrHtwNuACjJxSGbYX75L4xqdKkwUHyGKRpk2rHnmVvblTKjwRglnLCYli86gAmziWcdS6Gw0s0Fe0MVDXApEH1GwZvkGPa15L+UDP5Yc0OGClIk8vOwa7zHxbcfAETDxHpDAYkqYvpTiNP6f/bAJbe5Ey5o0tT+cdfo/fLaRqP8oPs5axce4bJddr8oa5dvLloWxpfxD8dWkMu6dTA7DajAczOnf8pY8dNkKSkUAV6L7iE62pe3jbp9/BgeW3ONPgKhVNOn0DAPMMBTO1rIEbCnWZ1Oz4HOJH5lAcwo+2buyt+db78sUBGz9gi98Diz6nH1AmAIesdWI0OptkXC6LKkjU0sGe9gMk6S/8LE40T0sGaPwSqN1aQjIbwx8/JlPF9YZD/cAvKLBvvkADM+H0DVQMwcfheBPZYIsRvBqoaYBLUPvu+QJ58KUOegOrIIpiH+2n9ThkPV0p1atlf+ixjma0WHHlNdDQxppKxYcO606zj0L9cuV2efTUXuoKt5NQ/J1XI5I+dFQRM3sAu5DY253xuGtI83yQAfLN0lgx8+F5WCRseeLCvDBo0NCSfU1BSyMrKlPfff0emPD9Jfvnlf4H58qtHwDz9Eu4w7RkmB2DGgMLumAsJg44PKZMeA/NxGqLpm5bVOFydNZuK5OHxKdILgHlaDABzL87OB01NNwJawx1Bpb7jNhvd1T43Wna9Aq32LV5xAjDjNfP2uCH+UrIJwIzfE+DcuSoC5nYYVH8UllU2QN+SnmwG3tpM/nJ0HSzwttMEvkiAGTyzdMAT1nEULJn31Y87Khwwn301QzK5w0SXCSYMKoNCkDE0xvinoHMQhI82/jRXZk3tZyuE+fQCps5LmOKGvHDhfHn2mdHy7bdfQ7fTGnWPVJ6AeRoAs+VRVko2CJKm02Zc2m8TW3JgrM88kGyaj6Zv3n5EqkPA7Dc2Re7q1lA6waeq7ibZhmHJcieJNOnBHabTZ9BMec66+QLsnXPgpPruEZvgD7Wh0ODER8sK8AOttWHJsoS7rK0Rn88EYMZn3nlXPi41q5fPiXT51UoSgBm/J8C5c1UETHZtxc875AEIAJ1xfB0ZDHuxNOemC2l5AfPTb7bL1De3ydBeyXLykRUj0PH0K1vBkoWULAeDDwUXvnghf8wGwdCQXvfDXHlrRn/WChuiBUye16akbJShQwbK22+/FbY9vwwC5ql/A2AerTtMjAEF2U9+uMflkAzNjAMEAqZ+X37th6OVVGcnzNR17bNKbrmqgVxyZj1n7kxvygyY7PMMmGh8beE2Kdzxm9wNAwXdYNvYjNUM17Yfrs+VRU8AZmXNdPH78FlIAGbxefnDUaoSYBIIGagnN3thjkyCoewj2tYQsvcaJAVVJYoBJisg6GKrQj9sTXeWpg4KMO+tT/LlzUUFMvGRdtK2eXErOKaxcn6MgUpCJjxkWACxAGPTtmFNB2KQCZzrAZjzZkYPmDpmb3fT0rbItGnPy9y5s2Rz6iZvdonXCpjNj3R2mKZ/FjAJH+w3EZIjM2Pw5I+FgfNwfUNR3xBt+ct6/2IA829nJJk50x0g1Wm8qiX2x4jpqCnLG5udp8Ot0B8r6+GLlAb990D2aSJUl1o2CZoR1PZ9O12JxARgVuJke27FZ7y8gPl/AAAA//8NsnNvAABAAElEQVTsXQWAXcXVPslGN+4OQYoXKA5FihQpxb0Ub4u7Q7Ggxd0dgv9YQoDiLkWDO7FNdiPrSTYb+b/vzJx75929b/dtVhN2kn0zc+aMy3fHzrRbBCUNUAsXisyZh5821WIl8ODzs+StTyvkP8cNk97d81osHYzYmtOkwnly5o0FMnJYJ/lp0jzZdO1ucuQe/aO0kY//zM+ihbGZtIVoWAvJ4/9oN/MCmJ96tUz+7+Vyuf2c5WTYwM4aTmP/XHF/oUwvni/tEHA7/LTjP+pq9jodzd27/frFo/LUA2c6hyy/J518mpx77ijkKZ3h22+/lkMO3l++//47LYt0rpi60867yfvvvSPTpxdFxHbt2ssG250lg1c9MEo3HcP0t/fpJ9HoRrv+lOFRWLkYsuUlze9fj/9WDt2lt2z/xx6Il3G7hLRv3174RxtpajZ3LV/Hp36Uy/HR+0ffzpZzb56K8hIZdeQQ2XCNblHUFn5EaCHDubdOlRVGdJKDduzXQin47UbLdt25E9qXa0KLVRDtMAhl6bK5hcdxbk5VG2DmVlpNw9UaAfP2p2bISx+Uy/3nLyNPv1Eq9z47S248fbisMNyBm4JfFsA0YKwNMJ8EYD4JwLzprJEyckiXJinYy++bBsBc4AdvBzSMSAdyNUjU+Thg2x8B8+kH6wbMc84ZlTXdn3zykfxtvz2lsHBaVp4uXbrIZpv9SY497kTZdNPN5aeffpRrrr5CXn31JZk2bSrS017W3/ZMGbTqQS5tmvYwH87c3ueF44gCkc/LDUsQYC7AQHQWwLId2lT57IXSv3cHOeewIdKpoxsd2wAzazP6zTgQKLsAMNlPF1c1CmDOxQyzYbC7uMlv88cSaG2A+cvUKjnu8sly+O79ZcdNe8qs0vly0jUFMqhvnpz3ryHStXN7nV3atxpnj8ROA0rmieaFGAT1n5rdDNNmnm98XCm3P1EiFx4zXNZdpTu9NLq67F4A5izMMBVAOL/0oGg6HCKa74TknfDVo/JMXYB50mlyDmaY2VRtgMnBf621/iCnn362bLjRJtK7d+8omPnz5wv93nzz9TLm2WdkPQLmKgeqe3vNSALk4aJkpFuzQF3N7eSm03KfYdan/5fPXiD7nfmDzjC326Q74nMzSSYybYZJugI5RjwDPrW7FCvtvx+Uye3/N1POP3yw5OW1E87kjt13oPxpHdc2zB/DaknVNsNsudJvA8yWK/tWFXNrAsz58xfK0VdMlg6Ytlxy9FDpka/zF3l7fKVccudUOeuwwbLJ77FUhkFZgRIlqcCZAMxwCZYzzQw7APaDL2fLdQ+VyPlHDMPSW48mqY9L7+EM0y3JMgIHLBy0Nfle9/aARsB8dnQdM8zFBMwOHTrI8SecIscdd5L06FF7vl944XkZ/XyBtOvzZ36PBOAeA32cr8Dd5/Xm00fQuU5VH7BkYD9MmiNnXj9RjtqnD+ouXwHPAC0vLw+zdjcLII0ASqUAmQUwZ5UtkIPOmyh/WrebnPT3gbJggchVo4u0jTw4alnp0S1P/WtALfzTBpgtVwFtgNlyZd+qYm4tgMmB87/vl8pl9xbKuf8ajK/7Hg4MfWmNAmBytnnZscN0qay1A+Yld0+VollYkiUYBoDI7NhsDWTvjsGdDiBM/OoRGfPQWbRlVSctJmCuscaa8uZbH2QN1xwMxAgmb31eIW9+Wom82GxZk6kgUjNfCMHn9dYz6gZMi8fizUX/fuIcOeuGxQRMRoBEK4AiofMXLJJ7x8ySJ18rlZvPGC7LD3NL/t/+WiUnXztFdv1TLzl0537SkV9wrUC1AWbLVUIbYLZc2beqmFsLYJZVLpAzbpgi/Xq5pdc8tFBbdmWBffvrXDnn5gLZa9vessdWvSO3bDPMbHuYBNrvJ1bJebfMkKP2HiQ7b9G3Serj4rumSmEEMn5WhpgiAKXB2w0s2Sknfv2ojK0DMC+89BY55shD1H/aT7Yl2VwAMwlitBdhpvzs26U4HFaJco/zoMdrPEDG+XIpuv3M2gEzGU9aPpI0+nnrszK58ZFpcsy+fWTdVbt64HZlyRllXnvOCJlGD4yR7mh0NMAsmFEtJ109Wfbboa/stkW8NL0IYHr7U9Pltf9VyKXHDMXeedPscyfzV5e9DTDrKqGmc28DzKYr2yUq5NYCmGPeKpE7n5opd/x7hAzo01HLMATMedWL5OYnpssL75bJrWcNl+EDY576nJIlYBZMr5aTry7CPtgA2Xvb+PRtY1bcRZgRR4CJgN0A7mJg56OKBvbILDKZgPlwzRlm5y7dZORKf5QNtj5Rdt1hXdlqg54aRtrP4gJmXSA2/qc5OhubOK1aZ2fMhuWB6QjzdcdZ2QGzrnjS8mR+xr5dLI++OF1OPrCvrLRMF1+uMWDqyVhNV+Yp2SidHjC59c2l118K5snNp43QvUuLl3U1F4cR/3HxJFlv1S5y4t8Gm1OL6m2A2XLF3waYLVf2rSrm1gCY02ZWyz8umii7b9lLj8z7radoFskC44CpfBdOkK3X7y5H7Nlfl2YJqvUFTJ7MPuS8qbLrln3lyL0GNUl9jLqDS7JuGZMRuAEbOv9xBhTQYvd2MuWbR+W5ADC5Lzd8+fVl7U3/JUOWXU86de4um6/bXbauBTA//vgj2f9vNU/J1jXDNFBierIpHrr59Ps5Mu6dMpky3S/TgtnlyecNmbvz7HTAzCWOZNyhnzufLpR3Py/DfnY/GTqgU3bARCPi0nc802QaWfCO9r+vZstFd07Twz3bbZz58aF8SAQPA93y+Ay5EPvpv1++azJZzW5vA8xmL/IoQo5Jeko2otTf0OBTsuwIPCXrr9HVPwVtPhpcAi0NmGwD5+BU4leYvdxy5nCchnUzR2YsnGGSj/bXPynHgZ1Cufrk4bLs4E5Kqy9gMpzDLpgq663eQ045YIjer2pwQSYCuACAWTgzE1DI4sfsGDgD8KR7wbePybhHznIDPZYXt9z5LPndWvtJXsfOEcgSMLfZMHOQp18q5u2TTz6uN2CyfOujqjDjf+SlYnkdJ465FxjnywHT3VgpSKr6xkH/ST/n3zYJQF0l5/6zn/Tr3dGVEyOHik7JelDMBpiVcxfKKTh53Ql7k9egHdn1EQ0EPwaYlXMW4j7wFCmtXCS34wOAA2ZLqjbAbLnSz/OA2ZAUtAFmQ0qvlfhtacD86OvZwtnYYbv1k50365VRKmmAyTtzp1+Pk7Qd2smow4dgKQ2Dqv/iMn4uu6btYZJOHv5d9cBMqZ6fJ//+53DpiZOQja3Ou70mYCqoICLTiYA6AwKNSz6kTwFgvj7mclnlD7vJSuv8TfoMWF6TpoM/TeD503rpgGn5ry9gJkFJI6zjx/x8h/3gV/5XLp//MFc/fjWJSOO95yyTEYLxZxDrsCT98OP6lGsmSJfOi3AFpL+0w2c/y08PUSGs2gHTzSwXIW3j3i6TO56cKRdh5rjW73jSNjMhBpikfvhVpZx901Q5fr8BsuNmvaNl50wfzWNrA8zmKee0WNoAM61UfoO0lgZMHvTh5OaiI4dKhwRuGQCwWjh4mv3NT8vlP/cU4hpAf4AHTtMuBmA++Vq5vPNZlVx67DIyuF88q22sJsDBbRqXZBGgAiQMNIf7fDZQ64APR85fSoq+En4U9Bv0O8nrgD068286PBEw/7xRzRkmy4flNO6l9+T4o/aTWTML4StWQ4cOk8cef1ZWW221iJgEpcihFkPSD2eb302cK4/8t0QmF1Vrfu87NwbMJH8tQUdOaX6mTJ8n594ySVYZ2QFL6X0WCzBZtkdcxr1JSo8aoIBr9WCRh4DJpnUJrghNLqyWyyENq1cLSsNqA0yroebX2wCz+cu8VcbYkoD57vgK7CMV4qrIUFnzd10jQLSCMoCknQOo2asXLMSJ2akycVqVXHvKMOnbwyGtuecyw+RJ2UvumiXXnDKySU5BnnNrgS7JEvEwt3GgiXyE4GkDdUzzfOrH8TLvOgsNaFuu30O2TQBmdfVCmYq94Jc/LJPxn34iT93zTykriUXdMRyq/Px8OeOMc2T3PfaSIUOGOWI9ftOAzLwvwNLsuPfK5DUs0159/FAja91FlhwM2eIY/+NsfChNwanW7npvsr4zTDQhuR+iIF9+r1yuOnGEDOlvS7qZiQoBky4VkP5z0PkTcECst+z756Y5VZ2ZgnRbG2Cml0tzUDtAoEVnL/lpceNr+JIsYubXKTtam2qZEmgpwOSR/mP+M0nWXz0fpxAH6v6QAZ6VRGgPAZMSfH6eMldOuBKD5/a9ZS9cMyHoGH8ugFkNIQlHXFwoR+87WLbZIL5SYHE3VD/7FgeYSJamjeElgc/csgKn96uA6v0znK026C7bbRwvXxdg5sVDLN/8PFdmY3+utOgLefredMCkfx4kWn3138uBBx4qe+61D4QY1Jytki+psgFZkm8iZAEvM6iTknP1Y2HUxv/Kh6Vy46PT5JJj+8kIhF9fwPxuwlyVGrXvtn3kAMhj5dUlqxOLn3oSMHmi9sEXcF/z1VLseQ6T5Yc2jfzhMA1p5jbATCuV5qF1BGAm97rrG3MbYNa3xFohf0sAJsXW3YY9pNH42r//wmWjAcgAz4optCcBk25Pv1EsD44rlocQBr8AjT8bYNLd9jF5UOXiu2bIkAFd5YyD6z/TsjRm08/CndFpPPQDBl2GhYFmomcIlJG7c6KzKlumreneTrbCKeHtN+mlS7dvfQLBAvjjtRsLt6RwvDxz379SZ5gudB8H9gBXX+P3Mnr0EzJsWO2i7GoDsjDM0NyYfhgWT8i++Ump3HTGwBr7lYy3tj3M6vmL5MoHpmNPco489p+RELHoViVyAUzyzITQjH9cOFFWX6GrnP/PwbqHHua1OcxtgNkcpZweR6sATCaNM0wOXm2qZUqgJQDzl4IqOevGqbLLn3rKvtvGS1wGeFYSoZ0Dptk5w6R5Rsl8ORN7oMsO7SinHzgo2h/MBTAJ2veNLcHMbJ6Mvhj7hQDcxlRn3uQBMwJAF7rOFj1oEuG4b+loBqhOj2k1l2k3Wau7LDe0k7wNKTyTcSdSeRGY+SktGi/P5gCY3Xr0lVXX2l422uZY2WKjFWSNFbvKwL4dahRDYwJfjcADQm3xcO/xjOsnSP8+IkfuicM3vDbiD/3YjDCisUzpjgJxgNhOPv1uNqRIFclx+w2UzSFFyn22sOxduQXJUFqa/fl3IREI10z+DRGN4WsmIW9TmtsAsylLt/awO+GQYUf8NUQ1eIbJyPllXN0GmA2phwb5bQnAvACX+qficMj1p47IWOYwQLQMhfY0wCTtWcwyb3hkulx41BDZYLV89ZoLYDJsCmG/65kyuey4ZeT3K8bPOVn8DdFPx/NkNsMkkFHZSVhajWYDttFINzP9qF1pHhBB6w4Zu9zG4Mem+s/gEymb/oWMIWCW1tzDZJhUa6y3k6y50cEyaPgamC11AviI9MSBFoLmeihHu0JRG4i5kGr+NoUf3v886Nwf5V979JRN1uxaN2Ci4EJAPe36KchfB1xHGeLLjKVcP8AkaDMc5u/qE2ufkdcslYZT2gCz4WW4uCG0HsDEUgmXS9pUy5RAcwPm/76plNOvmypnHzYIAggyBYCHAMnSCO0cpMxuM0zyVM1bIIdeMFGG9udgOFjyu7TXZde0ayX0b0uyNP+Agz/XjC6RbTbqLf/crXEFGJx2QyZgxgAZA6KBI1HRQDJ5itbozKvyB7zmRtA0d85YSwGYY+//l5QnALM97nX26jtCNvvLybL86jsAwN21jDgcDQaSljrItpv0lIGQuFTfr2rWU31VLn6eeWOWPPbSDNRxXxzW6ZAzYLK0x71fJndhC+CCI4bK2it7ge1a4vUDTOaLIhpPvGqKnHbIQNkSM9XmVG2A2ZylnRkXD/xw26chqlFmmJxdcpbZplqmBJoTMIvLF8jpAJKundvJxXikt3t+5j0SA0QridDOQdXsIWCSxkHs7JumyHH79pfN1u6RM2DOrVogF95ZDCBqL5efgJcpEumxdCyOfgpmItNmeMEFAcgxrHBPU0EQNMU8zxe6JwE08o8Bn27qz/t35nZSDsB87oFMwOzdb7isvt7esvI6e0n3noM8+BJOXBjJmSrvuf5umc6y1kr5sgwEROSicgG+ZDi5+jn6sl/wcsgi1HFvfUEknD3aBwNpSVmyPFx2Jpb/18De40kHDMJJR/tIcIOf5jsxDlp4ltbQXoW7oFc/VCTvfzFbboMwg8GBoA3jbyq9DTCbqmTrDrcrH4/m12gDVKMAJvcvubTUplqmBJoTMJ9+rUSueWi6PHjRsnrKMZljA0Sjh/YQMDnKc6ZIpTxoPjc/USRvflwhD108Mp5FevcFeLOJfPwLZ5g0P/LfchwkqZJ//2MYwKHxlmUJmAVedJwDPb+kirRzfA6BLgMUmSk4hjQzm06/+oeQnO7tDBiqfMaXMi4AzHX/uK/8frMTJL97fz+rdHxROPAXhx2HSVpHfFnzoMtmf+gOgQHZR4xcgc/F7H5z9fPNr3OwKjFB/rpZvuy7XU/kOXO5lUBJRT183gulgtOtxfL4S5BTjHuhQwe4060KkloLLDeXX5ci9xsCJClJ+8Rp8+RvZ/0q+27fR46CiMb2VnhhIE1gbgPMJijUHIPkO7wNreZGAUzuxcxtA8wcq63x2ZoLMCvmLJCjcGF84zXdhfG0nIQASffQboOr0jCQU7c/Sj74YdJc+TdmmVtv2EMO+SsPEnEe6vhqA8yZpQvk1Gtnyt937K+C2D3mMPoGqfE/zpExb5XpyygqOg6hOXALgNNHRi0CL2/meA7OGnQXhkta5AeGKAw4cQ/zlceOk269R8gfNj9ChozcRAd9BxQ142I4VMQdNeKHL5EoHWbS+vbqIJsCNIcP6ijduyZXBtR7vX6sPuvyRL7Rz0+XJ16eKacf0kdWXx4iApGwcIaZDTAL8bzaGVjR+MtmPWW/7fqpP8bnykFz6szOGCUlCZBJOxkfe7lYnsI1k0txh3jkkNxm4FEEi2loA8zFLLhG8NYNWz0NVY0DmNhInzuPQ1ubaokSaC7AvGp0oXz67RyVljJ0QLpknRAgw7JwwBhTwiVZnWmi+fDD677nZsiYN0rlQiz3rrxsZ4VM+rVZJXXb2wTaws8CuC3CrLdEKue2l2tPHtmop2VL8WTZFwDOsRDFNgmSYqg4NhOI3KDtzEpXWuDu+cgc+6nprqAGXvf160CuqrJIymb+JH0HrSKd8yERh/8YvkZEXjVFX8zqRvfwT+N3cdMjwyegsu42XhOndP3bkbkCH6M2VR8/pRXz5VIIK5hZOg8CLvrhkJgDa51NIkFajpYfzjBJQ0SkX3Z/oRQUzUd7GBrJnWUaXNmTy5udUe1GiyyeJ7TTzKXZE66aLMOxXH32Ic3zmkkbYCZroXnsbC/52EZqqGoUwMR4JXw9ok21TAk0B2BSbNphOJhz1N4D5G/b4V5AFpUzYGLEdfNHP9NkI4KaM3eB/O3fv8of18yXo/fpj/0s526AGYKnmen2+Q/z5OoHSuSGM0bKiiMa/1UKChN4CkD+yofl0faDDeoRSCH9amZG4EizftPSrDQHXgqMdDO6+aNdac6BfmnXsNQcg6aSyQYG58fzJsNSHgaRyUc/K47ojNl8z3rv+9YHLJEc+fKn2UKB64ft2iM6HUt6bYBJ9w8hyOGC2yk+caDssAkEU/j80q0xAJPhvPRBuVxy9zRIixoma0MmbVOrNsBs6hJOD58CLrp0QgNqoGoUwORQxwGlTbVMCTQ1YFbgxYeL75omE7Dvc/MZI6R3LbI4GwaYgFA0pve+qMBrJkVyzj8H4b1EzDJBrAswS8oX6iyzY8cOcvVJIxt8Gi5bTVJQ+asflct74yshdMBxKQBiNDcgZLdUEPP907k7gNRBPwW8zA9DNL8RyMEx0z0BfhZewGdhWHhx2mK/PD27HqQ08U4oB5RcVH3BkmFe+cAU+frnSswu++NVmZpLsQ70mS73RyAtrVgIICvU0/cXHwP5r91wt5T5Y8agGgsw9TUTbANUzxe5DA9NN7Wc2TbA1Opr9p/GEIun7Q6Dkfu0b2AW+NxOm2qZEngVL01MLqrCW5R9apxabYwUffzNbNxdK5AbTx8mq46sffaWrTkZ3Vob7ZkzTNd+6M7VikvunoonoObJbXjEmLxpgMm8uSVZ97zcozj888K7c2TUUSNk/dW6N0bWM8KwtPNE+ITCKuzLFWPfdZ7yEG8UpGDTQZ12NQd6wENPDiCoex7j93YHEHSLQU55fTjOxfsHzZZpo/AiPscDHFIFsj7wvcOmvXDtpEPO104s/y6U3H5Zh8f+5xfZeYt82WWLblgud0uu9B0KJiBIUumsEyeeX/u4HHdzZ+AJuGGy4vCucZkic67ckAs/clk5agD+R+sgICTtgZP8BBGNh10wSU7GTHanzWNxhSFPY5kfxXNqg/rmQY5ubqIMGyve33o4jSHlh2XYKDNMBsQ9TF4KblPNVwJ8jPmVD0rlnmeL9D3IlZbtIv/afTD2pjpFl9Ybmho+x3TM5ZN1+e6Mg3K752jgGMZtNBt0awAmHfjfM3yEu57nQZbrQTv1wUBLObHxs152AIjhE0gdmAr2GOfJqNtLMGvqLqceNLTRyoDxWLppNsU9sP9iifZ1nOwtKp6vPAQjG8Cd2YEV/SSBjO4khnw022RP+ZXJgyHMNd0dgwK2xUGPPhxv1LiJSX165qmQ/A1QRvWRq5mWf42klh8elLrh0any+XcVcsL+vXCwpmO0DKvpQ4IIkK68fJphn1O1CIe4puBkbz6e5HJtTnmQSQM+lpqZGVacTxdOMlkhb9KN9hseLcJe9VzsgQ/Xe8BpPItL40rEjxPn4DT3THnrkzJd/dh6w144xNRfhg6EwIn0JC9udG3+UkqAV5GSLymlsNVJajTAbBOPV2dZNxpDJU6rjnu7RJ5/t0TmYja2z7b99Xmrce8U425ZhYoN22/7AbK8P9TRkIjve26mPPVaqVx01FBZY/kuOQVloBcyG80G3lTApAcPmvPwcsc1eGT6O9zPPO9fg5G/PAVT+kvONmmn4uGfh1/Ek1+fz8MF9+Gy2vKNsydladZIUn74wsibn1agPsp1CVGBDnyq44fjYTygGx066eYGBgM9EnW+RZ0MnkfDczZHD92VhyDiwze790tw3GCNfFkTdzIH9K4pOk+DzfJTV/7TvNHP9wCJUbdPllWX7yD/2q2nAjSFxiv4IaHUDTCjGSZml3eNmYHrRdj3xFupKy3jVjQ0Xx5cGR9L1UCQbqaMZnbTs9HNfXLRPDntugLZeO18OXavgUZusF44q1oeeXGmvP6/Uj1ctOfW/dFnF8hDL8zQu+tbrt9T/rZ9/yZZGWpw4peiABrjDiaLo9EAs008XtO3Lk7gp86Yh6sXk+RnXMHYCgc2Tj9wuHQLrgi8Pb5Urri3QKYXV8sRew+WPbbqt9ib3d9PqoJElMl4hqqHHL9v7oOIgWNYIkazwbc2wKQ/gmD57Ply8HkTZKcteuhBI/WDAGoDTLodd8VMWX+NHnLaQQ0XyG7pDfOSzUzRbzdATilfHGFdKQD6wTwUxG4DfKa7C5UDe9KdQRiNuv4pYBA4vN3Ho/5BU6AFLQ/MwwZ3lN3xGky/nvUDSqaoPvknPxX9cHZ58+PTcEiqVEYd2UeWRRqYbgKmgSPTmgRMLnFTitSuW/WSw3bm/Ui3VKt5bkLAZLrvfGam3PvsTLlv1LKyQgM/Nrna9tpHZXLNg1PxEbUQh+UGy25b9EN+XEWxfO56tlAeAXBS+MfZ/xgu666SH7kzPW2q8UogH3cw2YYaqhoNMLnswOW7NtU0JfAtLn5zVvnieyXyh5W7yV5/7ge5q3h4GYNTUk0vqdY7b29+Wqr37Xbbup9sioMdSak8SX+h3S2nTdfDLTeePlxFrIXutZkNHEMeo1l61e4bsAGg8vv8GG3MWyWYNRbLJccMlmF4+5D+6GZXSxbRjD8q6tOL58kdT5XJj5MWyYXH4A5jAwQZWFo18Bx/uP/K051vYMb54+R5SFP8AomBmQ7+Pu9qRthGUzIs1ENa0szkGLhGvJEfApHI8IEdVcD47yFbdnFEgi1O/s0Pn247Bw9Fd+00X/65ey88GM19SAA5EmYgaGaXj3Y646Jg9C9+rMLe5XDMhN1blywM46GuedcPBm92mqN7d7X4H/MT0tLMxeXz5TC+ZrJcVznr0EGQZuXAOo03G40TB67yjH1rFlZH5uCh8N6YQfaD2EceXqvp6zsu1QI0P/iqHP06X/bADJSygBenvmqG3kZhCfAbhXKVU5pGvQuo0QCTMbcd/Kl3+dfpoQSd+JH/zpAX3inVE3wn7T8M4s66RFcB0johA+WdxsnTq+SB56bLS++XyFoA2aP2wqnTZWs/tGMJ4mskx18xGQPHYNno9/WTnmPgaGFRN1qY3ojG4z904H/PQJ0AOKtsPh6ahig+JHsUlui4D0E63e2Pdn7Fv/5xmfwfJMKU47HgvLwuMmxQFwhlHyF9e6bfGQ3TlzT7ZCTJWe2WbmMow/3N9wGcj73MZXMKWMegD0fV8WNm8jta4O5pdDA+8tgybUiL/IPTZpXduraXrTfoIWvhQW+KCqxvXhhmQ/xUYTn9rBsnyq8Fc6SsfLb0wKnqP2OV4u9/4Qwr3rNMAibfujz3lkLsPw+Ujdbojuy7GSjTw4Iw0HRWzsRZEq781KBmRzM7deMLadnMn34/GzPcAvnPcUMVwLLxpdF/nVoldz9TKB/gBPXvcUXlqL2G4EWazhH4ZStTLtFy+frK0QUyY9Z82QSiIY/ac5D0XowVgbR0/dZprRYwZ2NgSA4cv/XKWtz8V2B570csiV7zUIGUQn7rjpv1lr9vP7DGLDFbJwzr4cufZ8u1D02VnybNwcy0P04C9sHsA5JNao4tmlzuRx97xSTpicH2AoAUB+D6qDBu82e0ML0RrRbApP8X3y+V60cXyckHDpBN1+6WAZgcnCcUzJVHX5wlX/wwR363bCfMaPrKZ99xlj1HDtllAJYjKSHGUlK3Hqaxbm7HYXlJ8s/Bqsu9Y4vl8+/nCK/nKPBpWjjgu8GeVkufuYc0OvqVPNXVX8IPafld8mSV5TrLnzeg0HW3/Lp4eUnmom67xYNvF3nunVly19NFsufW3fCCTAe56bGZKvSBYvlO2H8QZlD5uETuZpoGoPMXiJyF59R65HeQs/GR1llnBB4wWRhQzQGYjOfcWwukBH3u6pOGR2BHeppivmeWVst/0UZH4+N0AOTSHvTXgXiUwD2IHvqxMgppNFvbofuTr8/UGSdXKg7fczDaew/p3SNTKlPSf5u99hLglSleZ/LNqHbmOlwbdYbZdlK2jtLO0fljnBB9/KWZeP+vUrbbuDfkb/aR1ZbLT/3qr6sTWpSUtvLWp+XaIefiCtCfES6Bsx/EpSXVU69DAACe2+JBn00gBq++ygaApD/Sw/QaH6jBoIFRA2oRljIdP95axezx7FumyDycxHavmbhBZiKudox9s0TewhWE5YZ3wuX2HtgH4gyakqcWQjZtuUyftUguxdNfg/vlJvosTJ8mpI4fy0NtbFym437wyzhR+/kPc/VgEAGQIEeVcR0kosEdbgqOnuYAI6AH7lx2pchC3lu1O5X1zQvT0lA/E6dVyUV3TsYAtVBOOaCX9OyWJ/PwktGn31VhpaREimYukHVWzdeXVDbESV0DzBfeK5M7/m+mnHHYENn496Aj4xFAIv9mtmGPdlOBUfmMbnrIa7Ta9M/x4XXOzVPlgL/2kb22zi6kgwfuXsD7mlx+5eoazwtstT6v6nDroGYMaTRyJdsQl7Nf/V+ZfngMG9BJdtuqr/xxrR76EVEz1DZKXSXQWHcwGU8bYNZV2s3ozq9azihf/7BMVsMAeC4OAgwb2CWaXaR1uExa3Esz6S4T7Jjs2Pc/VyQPY99k2MDOcuqBQzGAxaBYiOsRZ0DoeL8+eXLFscN1wF7cIkgOBKGd6TN7GmByeTZcei3G0uzB50+QY/bth9dMuslz2Nu8HQNsTyT9X3v0w14dnnyCJ+fHhT2jZIGcf3uxLDuki1wFYQZ1qbQyq9tPXOZ18XJf+DMMxnc/O0vKKt1sMwZFBwU2+FPXPwQa6rTEfvD+JQBpnz/31pc8bBZq6ahvfurLz3iSfq7CsuJ7n5fjY6s37ht2QHI5S3QzRZ5zGPt2udw/ppi5ks3Xw/WfAwZj2X0BAGqaLIMHtf996BC9q8mwFSR9ptSseXdA6ezkcor2bKo2tzQ/zNMl90yTj76eLbfiHvCglNdMeIXp/Nsmyg84xb3dpr1xsnaI9OmFPVcfYLJcSI5pmW0mpsep4d731JnzkI7JMh7LxDzEdjquSg1MSUvsq82UVgKN8Q6mhduogMkvybZ3Ma1oc9d5ovVdDDKP4p4Wl63+smkf2Ql/4elXhpbWsTJpriPqr++TGV3TM5P27YQ58tDzM3QWu/5q3fAV2w+Dbj7eK8Sbhdh3u+e8ZbBnWnP2mXuuHGiF/AaQpDEpZq8NMMlLECTY3IPrBi9DlNnQ/nlShOP6663WFcutvXA4xF05IR//nB93L/j5d2fLk6/Mlr/9pT9eyeifdYktsxw1iDp/LP11MgYMjIdLs89hT/r9L+dgOQ8iZqA43hMKVVez0egYmx2fQK5qB1kHh0S2XLcbluxq1lN981NffqY59MMB/kXsld/xZKHs8qd82QmvkhjIGWCafcI0LpeXysffzJX2eJ9wbVx1+eaXKrnixKEyHK+RcNZJpfwNBMz6gqVGjB9eFTrikknylz/2lH/s2i+atX+HfsODd8+/UyJrYmmZh+82XqMnv+8yVFg2dFD3iMkZEtbMMBCAub+MKylPvjITwknmQThJX8zOewtnnm0qtxJojHcwLaZGBUwOam3PfFnR1q1z8OPRcx7MmYBDNofuOlC23bA3HtftlDEYMSTrgKaHoacN3Ela0h874xzMNsf/WCn3j5shUyEpaJM/9JRCLGH+EUt7vIbQUFUzDTYEuPxE7igHmu1P4wWr2an/OHmu3IjL5V9ihjYCr22csH9/CFPoBCxx/ujHAJP8HMCpKiGb9tqHygCwi3B0fxgu7cezaWXAT7JsjF6bzjjqq0IvvHYwbeZ8eQXLya/+rwKHtDwoRmCZOZNkXIodcGf9bLVeDwya7qpGMh1hPEm3bPb6+knyf/xtpVx1/xS8u5knR+7dQ/e/Hfi72aWBpR304VhBkLz1/2bJr1OqpScOBh2z7wDs/bmnv4yfHwtUZnelYnbnZu6xzZkWFywtnHH4qLn1iRn6rFh37OOPfn4mgLJYZ/WH4bHydVfprvk0ftOtbEyP6TXbjMJigpz0x2/AmVhh+eDLcnkQr75wyX3nP1GgR9/FOslr6fmt6F1wBzmvgQ9HW1k1KmByyYWHMJIVbpG16a4EOFhOhlzWKx8skG9/niPr4UTgGVhu6d8LQBkUUlo5JmnZBu4kvaa/OCLusfGwAfdN2YGP2WcIlji76yO/MVf9TTXTEOeO6YncawHMGbgiMxbLrw8+V4wlu47Yo+skH+LY/hmHDMSMuIuCpIWTBpgLFy1UOcfn3FwqXXEo5tpTl9MBz3KTLBej16ZbfLXxJN2yxUM69zfvHzdL395k2yBGGNgoXuCHQuhHDOqky68rQWh6NpUtnmz8pNfXT5KfJ5kvu3eKTJyK59n+0RMffB0A7nYaFkCf5WQsv2kuu7cIS45zIdSgvS7NboO7xQf+tZ8K4ujATCPvBnwKmh5BHYDGuTKemBL7C2n1MfO09aX3TsPBpc4yBv2jDPJtt/tjbzl810GSH9x9ZpjJMkmjpbWbdFpmKsOwKQjhRtxv/fjrCj0tf/x+Q2TEkM54VFtbSqbHNpu2Fq7a+YWKBpdIowImv4TmtgFm1kphk+bex1OvzZI3cAViGTwrxKXQP67pN/QJIoHvsKMYOUlL63DkTdJr+rMQY51XSZ5/txgn/kqw79dZl5s2Qdo6QEj34qiaaYhzF6aHfPqljUjMDw8pvfhuGZa/SjXqrdbvplcleuBL/9TrJuGwUp6ccfAgN6v0gdmdTIZhM0wCJoH065+r5c6nKwG6XXQvqD/u+IVpyDV/lr5c+cmXSzw8Ffn255WQoVqhJ0pt6ZXLmUMBQFtiv2/D1bvhXm32E8u5xJNMd0P98PoMBRR88WMFXiPpJmsBXAheDiQdaKUBJtPxMZ6KOx/XSI7ebwCWN7vI6x9Vyrh3ylWo/c4Qh7jT5r2xZ+f2QR1Aoh36JtTUgMkW/+FXFfL068XywRflsiO3SbboA1nKTnpUstySduYvSUtrO+k0+o5VMhy6MG3PvV2MhwrK8eJML5xI7qcAGvtqM7EE2I94n3bxRrCaZdiogMmK5elEfjm2qcwSYMU9+eosuQ9yXykrk1JotoAA5ozL0Si3sOjSOkqSltbhGHOSXtNfZvqcH3d/swDShK7A4Y1v8CwT75Od+88RumdW00ftlGQaXBxxDi1N5AsB83vsE116T6FMLJgnu2wF0WHb9vGvSIAL3rmMfN6tUyH+bpCsgjczbd+S4dCs4TFM8OqsU0FzEQZj7Ge+Olf+itPBh+8xKOt+ZrZcpeUnG6/RmYZcFXnZf8bhxOjYt8p133b7jXtgP7vuJ7jqE4+lp6F+uKx6x1PTcM+3FB9+XWX7TfJVspADTO7Huj8DTI5eeV5wAV83uuL+IpmFg27XnbyMCoBneqbjoJZ7d7VK99AP36uf7LBxLxcWhj2GacqMIc3cqGejhzxpZn6s3fR4obwKOc3LD+uCWfNw/YAMhQkkyy5pZ7hJWlr7SadlpioZjoXNlaFvfp0tl2MpfBb2wtmu/4ml4q6N8FByZgqWXBuXrxvjWS8rgcYFTIRKgdRcmm1TrgR49Hz8D7MhBqtIpk2vls3X7SFH4n5VbzxXVGMsBSGkZesoYdmmdjgyJDwnrElnF28QP5cG7bABl4H2xuEGXnEZ1C93IQCpaQsSYkby8d/3eHNz3Nul+CuTtVbqqoLXV4VAeXUnD9OHn9lV87EvWYS7lnPw3NhQ3N1rH/EYeIY6Z5v6D34fHFcp746fJ3siP/wqpwSQXFRaXuryx/TWV5mfSUV8rHqRjOB92TqU+amDLcO5Mfw89vIMeQLL+Ous2lEO+Es3PbDGPUYCFWfG1J0ZX/hclkUKCJ78e/+LSn2N5MKjh6q8WLoZP/W3P6/Qayjf/lyFE6LdZG98NPG9Si7dmmpMwGRVEXQ4m3wAj5hziZPLr3tv0x/SitC+LFKvJ8svaSdbkpbWhpI0jScRWY1wEmGXAOBH4wDf25+WSV9cE9sHh9vWw0E+nqD+ravGPCHLsmxUwGSA/Oqpxpfnb11xAPgGorEexIEaAibFXh3wl4G6bMJ3CJOdgOWVpCXt6TyZZR3ZvOfYTt8cgr3yhsjuHTPsoE0DWL7zWRlO8M7QL34uS/EUb65fbTUGhCBTZqQov4cg/u4d3BPlUuv+2/fF5fYu0fIjwzAAdOZFeFZrjhxz2WTcleuNu3KcgWA2CT4uy5LH4tUZZgCYXPp87KXZyNM8+dsO/TAQ85Fq1lZ2ZWFl50h3sfylu9ak1pefIbSUH9495CC93modZK9tIIgAs5p43zIFMAPw5NuTR/9nsqyH+5hH7j0Is9J4NhjNRpG3WZByxf3NW3DwhjPSjdbsLgfv1B9yaXHYK6gyAmyaykZP8tI7Zd4+BvD/ER9tB+40AKdj+2ApHB8r6BDJPkH/yXJP2pM8GkaCKaRlxOEtEQ2GyOwTnwhK08ODcXyAYcwbs2RdPG+3H4S6rwvgTC8dH9BSrvGDmFvhjaUaHTDn42pJFf5+y4qviTz60gx5DK8U8GrGaYcMw9HzHhlFkmzwdEzSkvZ0nsyyVlvgMXL1hmx2rFpmqCAIpXOZ6tL7pmBWVynLD++C/cOhsgz2OQn+takk2IR2CrqgcIbrH56uIvD2APARLLlJTz7lRYLNHOuO9iBOLXI5cNQRg2UoTowSHGMel9MIMH143NPkHcjrH66QghkLVCj21hv0ygqamobaMpjFLVl+Wdgicn356bEl/HC75cX3iuW2JwohVQivkOyOk6Ld3AEfB5gO/Az4TI9nj+1xDxWvd2C/8oIjhsjKENVobsyTmv0HjNEJlhfeOU0+xZ7nokXt9CNp723iE6LkS6o0WpIHzUXfkb3liWkQZ1cha6/STS4+elk8Vh3PzLKVcZKetDOukKatMSTQPWByrdWIdPDu3mDuGoRZyBOYlRX2HyfPkSsenCI/T67CO6R95YAd++v7pynFRC9LterWyMvTjQ6YbIQUB/ZbVHy9/bWPSuX/Xp2pUml2xmxsp837Su/EfcZkI2dZ1YcWDuKxv7jnxDRXC3XZ0+JP80PaR99WYB9wpnz9y2z5M67A7Ih9E77DWXPIsrjjdDmKmwm+hyW5sW+Wyld4g3DTdbrLbn/qqc+RcenUpSeeJZrUH9IdKHIwwdIsPkxOvHqynmI8fPd+MWCCjzPNmJ9hxfuZpJfixOP9z1ViRrFAdsCMmXc0OUsKVVjOIb0uc7Ls6uKne3391Jd/ceJI+uHK0bi3iuVx3AlcdnB7yIbFU2EQcKHAhhZQYxkWI7SBngHnz1PmYf+5ULaBbNlDMFvkvqDxMD41JwBT6Qj/k+8gmxeygt8fP1tXIHbAHcmdcTAoTTGcbIplR4lEFGf30gcluuxNYNkM16qSS/Rp5ZwrzQ6eWTpif3GfiGk120DoVjMMR0nymL0MojVf/7hUDwax3rbHdso2G/XS08cW1tKuU1pU187Z28Hi5L/RAZOJ4Bdh3CQWJ1lLnp+vcEDm6tFT9XLxjpD8sf8OA2RwX/c4bEZZwNIQe3IQtw4ShhrTXDnWZSdXXTyhO2fQlE97w2NTAVoLZVdcpt6Xb/qlnOBMpnc6JAnd8FgRvuhny0ojO8lJfxuo9047+rv3aYDJAmM4Nf8EA14pTmkW4QmpwbIyxMJxWZaZsXjdDJMzTxcGZ5hmpmSlB5+fDTmv1ZqHg3camPGosoVRn9bIsOurmsNPQ+PgAZ87ny7UGf3qK+TJYbv0gGANB3bML2eXScAkncBlYAmb3PH0LKxSzJXrTx2u13xisYBuYCOvfX1lACmItHNs+QaHwi67BweGShfgFZTOcuL+A7EPmvlWazbAJI6OAejf9+x0KUc75rWMbSDOrjuuiWRUnbeEtBplCMfa3JPtJ/Yf+4pp2mxZZJEK3YyYpNVl55WfcTj5TuleywzurIfdKNy9cWHEUte69MYUiWc5axLA/K3IlOXy1CR8qT7xyix5GVcxVlu+q55SW8uelPL9Iu4eKHZYGmKvbydkRdfVqeri0fQGiTa7HjZ4cboeNuiDlxX+tfsgWW0F90IGwwwVDw59gPuT946dpUuue+D061826aXyMcP0Wf4InJEZDJxlUpFms0zai8urIaKsgEYIih+EGYIaI78GmKQ6vxpyZOZD1feNrYTUmWrZYr2ecsjOg1S+rsXtQsvtN8xHbj5q1k0u/uobT335mYbQD+uZe/GvQeLMeqt1xLJ5N9xDBIB5ECM/ga4uwCyYPl9OubYA93wH6CPnBEsFSPg3gCOg8YAQVRIwHU2dsEKwAAfpZmEvugJtYIEcAfGIlLc6DIek0rakKYGMZwnuweG7iXhVhCfUj9hjsB6S0RDRvIImHllCWlgmaX6S7sk2FLvHoca0zDJn+KGbxpdCS/LUsGtAWKaFfNoHny+STyCnej3sb/4dkq+4MtRYF/otfa1J56PpHRtJYIHlq0kA87cgIo8dlocEXsVhge44pXnAjgPwDBYlfwSnX32/iLsHih2Whtjr6oQato8giifFHrn5lhB2NHULGGqz041v+j2HQyBvQ7zfWjjJuM92/fTNTgbN07av/K8cQhGKIdmmGidT++h9SkqpCfNi8RstCZhabp7JAaZLIGeUn35XIRfeXqivlGyN+5pUDMf+yG80PTHr3exNzWocVHvh/TmQ4lIlK+PdxsMgcSk5Y9EAavnxSauFo6ZTa/UTputHHK6665ki+QUD7nYbd4Ekns4AS7dnaYCpIOdnmMylzigBepzFEPRo52skJ18zRXj/9bSDBumMzoFsDI5aQgRMBuj9Mg7332jqFLl/iyfBxr5VKs++UaqCHbbGSy2H7dIvYqKvr7Aawo/aTyGN6A/Yp9wHJ6T5PmdnnLiNmjkMkZm+vSWkheWiEST8JN2tLSsvg4wCcwb99bQaZnoK3XwgcRiOUJvde4/CqcSBt8++r5BnXp8lE/DRsOkf+OTaAKzw5H7y3SdjidAa+8APM90kgLk0PybNQZbLr2fcMEkqcWn7yH0GyX44aRkdd0crDRtqZPZNrLYGTpa63TNDjPkdXX89S8SZYo/cUtKlbgFDbfaIDQaeXL1qNA8bzJUd8MLKvhiYLr2vUL6FCLT1Vu8qZx8yOON1lHBAsXwYLQ0wXfnYDNPFzPogIF7/cBHinytXHj8UX80sR+dO3QDWmWMgtTjISp7xP1RjebdS9zLPO2KErIqHhNNmK77IIs1HFdlzMbRWP5Yu6l/gvusV9xcIl+D//peueLkGDwEA3ziTDE/EMr/h7FJnhgRMAB8Bi8A49q0yuQ1i8HjQZ0NcE3F+3BUTmg0kFRyTgBm4eyd6if3APG3WPDn+ygIpwHWcvjhpfQmuq6y6XBd9SP2OJ4v0cNpFR4/Aiy49XZ265pG1r1o5aET+J0mr2+4jgX81RVZnCGk1zIzT83tNU1F3nMrmeM2YCGcBZttj8QQbl9h5aO+E/YdC+EFP6ZBLY7cwW7nOrPCDiO21MVWTACYrlQd/kpXbmAlvibAKMUO6/pGpeMWgUrbFZep98bbkCiMy904y8oxyCBs705zhvlj2zBDj8Bxdfz1LxJliD90isyYwSLMPPHKHITIneX1eeJr2vzhI8QqW77gMtnB+Ozlw1wGQkQuJQYnlEQM1DSojYJaTwhmdnNkyCj4DQLrpLBGzWEpQOveWAtlqw3zUSx/1E7uzLQZAyXzAbuE44HThTpiKE87/nQ3wXaDyOvfYuq8+18Sw0pQlK80tG621++HyOaU9cSZC2bC7/qkLZmQdFRSZpxgsY9BKzhZpV8AEws3EXuOoOwplCFYVzjx4SHSy2nhqgKQBJhwiIEW82cDSyplXhp59swwShGbr/uqPEypRx4JDXb21r/ao7fQr24QFBD2tjpK0uu1xiGqKrM4Q0mqYmRbPX6cbGd3/OAd12Jn2Ajww/8ybs/Th9eWHdcY1qwH4sO2W9cR4HHjrNxEouwAwwzbTGKluMsCkTNmlTYDBqwABPox7AWYfXLLLWNLxtZHRiZKNFjwZ7vW0G8CYbg3AhYnI0sJTojrpT/3iJ8gsnl8Oug/h7ibvcN5x7gq6t5RMt4Uc0i0+peEr0dyoq1n1mG6gx6Xf0c/PwoyiWC47boisiPcxqejHeGg3swvP2ZUeHAbicvuL71fhbt48XebjvTy+0ZhUltYkvTZ7a/fzxU+VcudTRbpkt/HvO8puW+bjNZR4f5J5swM+avaf8AQ2AiCVmQ0wn8Fp6MdfKpXbzl5GT4wbCEaAqZ7Uq/o1d1vydWE6d/s1njQ7296Fd0zWq0YUEkJhG3lIX9CUM9q1hpHoq2n1lKTVZte2ioBNZxwxf5a+GiYwgz/0y5DS7Jme47iy8Ts6D3P9iuXZ6x+bJiNwv5XXxfh495KuOFvmo9GNrZoEMJlIvlrCyliaFL+6x0F+47UnL+fETyF7yRxGDdU7qBaafYGEHamur8MozBS/sZuLJLY75obZFx8weZjg1U9K5LqHpsnd56+AwYsvsPiCSDSKkG4sSvPtnWa1ez3kMQBkkDPLquXIiyfK2it3leP25TI5BUQ4wKS7mS08hmNmOz1LPguTB4GeeXOuzCxZpCsKu+Mh38G4zM7lHksD+XNVrdnPVIhDHIvTo2PeLMZzae1l96274DUOCghwlRAtufpZX2T37uQLAdDMvL5zxCWTZY+tMcvbri/Kzs0ayW9/nGGaimggLC5gUr7t6ddNwH3N/thz9ddOWNcWCfSMuvAOqoVm8sOO1hf7VHtgDZyUvYY9JsRxOlpsd+HVZq/NzcUbx5OeDheH/Ubhoex5sf/2ZwpV0tEZuDO+NABmY0v4sXJrMsDkchwP/yxNioA5FgPKlccvK92xvMNBI1I+q1GOQ3to9h44UEcKxsDmO2nkmtm5QQ79xsG4EGK781+bXX0k4s7krx0w3WCSmU5KzekIoJqDZ7WexwX3u56ZvliAyVAtnxywIjMTyP8+oQZu5Ofy7Ps4iXvNg0Vy+sEDIF4vX8GPPFT0E/45v+rk+Lz0BgZtfqbO4LNK1fLmJ/PweksHFXS9DYRdD8Dhlfoon9z6eEFa68WuzPX1w2sHbNdvQazadMzMNvtDJ5w27YTlU7TvCNT8rBEHe6hCsCTAOVq8BGugx2L/z31F8mtBNQQCDNXDJQak5sfA0sJRv55oNPL6aCIAJy1UIa8B5r44fLbVer2wBOxnTEyqL9OMog1poZkRwM72Fym1R7YadZQsf2un9BG7ufBiuwuvNjvdglT4dMXpYOChe21hWVr4qAIXBbhHfcv/TVMpbUsLYDbFgR+WW5MB5gLMLudilrk0KQPMy45ZRoWms8ERHATSR0xFOfYG1UKzZww7Elu6Z3GuCXvNxh9zx26+w8ROLkxvj8gwRGbEFvv3UYeO4DR3JXu3iCVh74S7lHwQeGphtYLX2+PLcf8rBkzGkJFvF6X+JumMN6KxiEEwu+o+7gzAxAhNf+feWiDls+fLVScOVz/GY2FYOJn0GCRZknbp3PnBoRK8XXnLE5UydcZCPRR0zH6DZQtcdM9FWRnmwms8zeGHL13cjS0GLmFyr/KwXfJxsd19CCpwodwNwKjbB6IzxwDJNDv+eNZIYPzwq0q57O4iOXyvAbIj5LIS9IxP/eDjinbzH+m+bh2vOkc/xh8RYEjSDDD32bYv6qiXsnaiiDQK8PF91UfhgvEW1UIzXWH3PSvi9SxqT9ZTTbvj1t/Iow8xsms0/ifStC27SC0dkU2ZAu9x3zAW7xjxBHYWOQW0z8WdVn4kUT2A62GU0ra0AGZjS/ixYm0ywGTDWdoO/iQBk4MpBxF+weYBPDM6C/JvjTWD7kveBm1ak+512y3k0G9undANAFb9oX9Hy4wbYfqoVAvNmnDnx57/qoR0kXIsh9EPB7F3xpfJfY0ImBolAtey82mxmaADNgAd3L/8cY6Mun2qHLhzX7x00UP5I/fEbNP8R9dNODz6OJgPq0Vz/9/X8/CkUrV8P2G+ClygXF3OZHn/L5tMWheOK6tcfuvLr6n05VFb+Nzn5dLr59/PxqPVpfITThWPHJqHp8M6yTord9KPPwMf6jbDZJjJWSUBkSqD39PoVo1rJJfhxZniMrw+cuKIaJmP/OonCZ4cxS08336cXcnRj8UXEWBI0pKAqe0FfNwm6MC+Cj0s42xmxuHc4sINeWN3mpyq6e786m8UTG59NSMs+I28M6qE3fIY8XhDaGcR8+Ad+0gJ6oUPQ5DG8nvghek4pLdwqQBM9sNcZV37astZazLAZAqWNgEGaYBpJa3AqceYXccPG3RGw/cerIHTmnSv2x51g8Bvbp0wTFfdcRM8XIJVC80gc++D+x0lWNarwGO7XFWwDkhfbxMwxy7+DNPFzPJh3sI8M12wk66acyONgwG3A64eXQjgnCuXHDMYEpecbFB1TwCmhk1/fnbKON1+Zhym0gA2GicsFIE4uXC+vPDePPl2wgLcLeyg9/p4NH/dVTIPBzF99VH15WfYufj5Hndln3+nRO8kziyZj0vrebLpWh1lWnHB0AAAQABJREFUxREd/NNpbuA08GE92mlYxmGA6czxdRCtcLrDgy23MowPMLu8dvQMufCooXiCDaITQQv/GA5XXuP4XL8BV0RTFt+dnDmwkOCVhWH2bIBJd82Xbhu4GTJpYfmF5tgtrsR0d3I6VdPdtyM6R8H41hzZvZO3GzkjLBCNrjEl7NY2Ix5vMLuTpNVOivEiC4GSYbv6cGVyPwETBzWXhhkmD2N2iMUBu4pppN8mBcylbR+zNsC0+sjDFyw3nAEdRsrokEa0Bk57RsfIyW7dIPSbWydkr2N8ucXp4knyctDh8hZPQRfOqNawSHN/Lt80c4Z5z5jmB0zmsaSiWg4+dyJk+eJy9o59MKAzzw4YXZk7ACTN6JbPugBT684z/zAJwPnuPJw0XACxbYtkKGaa2wA4N1+nly7d5nfhXiBjzE1ZGnLjrlmP9AdsR1oWKLCP/6FSHywvKJqH9LTDoaX2kNvbWZYf2gEAB2ZUlAGOG0Bpd7GnAabx2AxT/WswMWDyQ/mQCybhZHE+pPoM0qeyzJ/pGgPioZ0q0psYMDUy/9OxY54OrLX1VVcfrh/QW7J+arOHfjWEKJjsfTVisbhACOMIzZnpcT5Dd5pZx9w2qsTyazE+lEhjkbt6YAiO5/7np2MPc8kHTLYmfTDaNSvNX2P+NClgsnJm42tmaVG5AKY1SC79cKmWdvyPVWR3VLpHKnIDJTDrAB0xZetAKeExmCD8bGYGHbrF9pph8uQphTnz6sUczLSoXAfM7ISkcYZ5D2R22ilZZfY/yTyZW0gP02R0DjU0m13LyTOSZkusJI3DjGr0uFly+QlDZVBfSGDy/pI643YzTJdfW361uOju/NBkZisbxInymFy0AK9EzJcvf5ovP01ZgGG/vT7lNnJoFxVBxntuQ3DCtrbXXXw2XCQ5/Ib8nDhPmDYXQsXnqVSeH/BM1Y9YckVqZYXh7THL66izSu5V6lgSAJUNnk53Iw1nem7G6BJis0faFCzhn5wGdObONN3/XDHucJbLFSj3VUamzC5dFH7QjuNj2BaeM/PXqZBeG41utc0wza+VHWfO7KtcqiTN1arjMh6lJty03fnAYj7XNiwO6plu5uJiSXdzPNncQnpm+JlhMl/8qOWD5KUQHUhpVr7KfbnH/ZbhPADA5FXAJX2G2ZTLsSynJgVMRjC3apEsSNYyHZZAlStgWtbYQDt3dq85WBGY3hydkOmI44vN2rVc/4oHCNg9yemeyWsYVAQi0TpAkkqVAiUHaOYv/otnJkZ7+/MyPOWUDpgubRajlVisE6BM0ZhhRwrNrrpnpTkGzEU6cJ5321QMHIvkP8cOUz+ZwOgEGjAe+q35F8erbr6EHF/Czad3HgYovgk7HsD53hfzsNe5UAdjAiWfLVsdsnaXH95Z1sHS7TKDOkfC3r13y3KdOuP4acoc+RZvrv44qUrFvvHQhgqLwBRzuWHtVe7rOit1VLmvjD8DEFlJUI7mogtnlKRz0AWH1rEBYuynZnjk+WVKFWT7TpM/b9RTDvxrP12qtXipE2VVj+J26bDG53hdesJf81MXje71AUwLj3ntrM/KxekJWiAqW/8bO9qKN9agm4Nzj/hgjc2OJ7aHbrG/KKQwjtCcCFP58dOJz3jicFMRBK0QKEnXqoRu5Wt91HSeNVgaAJPtnCt8TaWaHDCXpgel6wuYVmnusAEHGDfjdHTX8rWRe8ZsHYgDdKhCa2x2HcMGnsiHiyaMMjLTYHxxOJ6mDjjUhC9vStzkMhv3vuiBnYz81tmsEzI8XeajDp43CZjBtRK6hyqZr2xujCvk9TlVmtI1rY6HdvtjeK99VC6XQzzfWYcNxBJht8jNeJI6/SRpVjZKZwHgP/dKjTepk885cvBeqDPPXwoWyJQizMxhnz1nkcypcnv8vXrkSV8Iruf9Tu678ImxAX3iKysMagYe2OYrHexLRTjVyNk964KC5rtimbU7BKH3yG+HC/qY1WJPcoXheRAQgApABYVA4+rJDSasOyqlKYrBjH8hSBp/qJsfnWV6/6QZoN6Kx54/+maO3HrWCKTPbSSpfzQI/tP/PnILl/5ZplSO5sz2S1qaykZfHMC08Dti/0sPbyFOq0YmLjY7zsiOdPukq0NU9z5A41OeiDGlr3q3gCUOF8RUOuKw8MnBcYY6zxOUYVZJFRadq1tHIz36A9+94wCY+Nhb0meYTbl/qeWJCo7qgoTGVkuTXNnFBUyWMBtnHk7JsENSsdiTJR/aM82ZVZTpZjWW0gk1InYhr2AIzd5ZHTPC9A6UlFGBO1oVOPk6D4BJZZ1MLRwCw45HM3mQRQ6Ob34GyUiNBJguPldujMSarStHnyvmDxmxP/qZU7VAzsE1E6b/3/8YJH0AUOaeptNPku5omXFyn9PoTndpML8ZjrCwfCnIgwBaMYfpwkPr+Js8HXufAM+ScjfbLS6HG/ZC5wAg+XzVsEEdVcxbL3+WqH/vPMnHG38ULsAXQwiYPboKHgBwX9YRiLBioCK7N5vdO6u7Apl3jwdV1m3NPwszDTB/wEz33zdNxaPcAyAwwF25CcNgvZmd4VCFcTsKecyUmf6Ymp1OnoYAJuuJZUDwYV91Z8Sy99Ww3zBu1n+ozKrUyCmlr3q3gCWjr6bSNT53+K4j+ioP9PCk+gKHlVqOVpZhvZOW8YdauBfPf3H5dkkGTOaJ4vDsoz2sh8YyN/kMkwcQ+OVCfUlXDQHMMO9cpmWlus4Yu1jnIiXTnFl4mW7mP6UTakAIK2bJMHtndQ3D5N4H761NmTpXZ5Yc1BwIxh2NSz4ZnS7shDoyirwFsXh34p5f2h6mJUnTEEYeOISDT8iioBTnJBqklN9n1vxyCbaouFoOOX+iHA/pP1tt4JBHw0CgoW6zRhZ+SLc0WphMSwyYLsLQLTZHJR+lMcheZiV7B8sn7zDe/Nh0ufeCkRkAkuHfLKwIr+KB0dHMTmdXX57OOlIa69Hq0pkz6TFfCJKhmfz8MD7qssl64vb8w4dILwh5iMOByafRxRWnIUyf41dv+pN0c+7Ob8xV09RQwLQQ2Uc7Y5acNnZZPZlufqzuY7szaUuImkNKX/VuAUvcwkFMo7NIuVXCZfhpONTFdPK0su9+vr4Zvy9vOiX/4Ma+fe/YInzELdmAyVUtHvhpStXkgMmKJmAuDXJlGwswWaFc9uHdTerWIcPOl2mOuou2hUw3JeEnpRPSCV4j3wmzd4543MGHRXqXsrQcJ+rAgO5UAyzDgSy1A/pO+Sakx9zRAMDU9PnMZubZ5cjnmGwRwFlmbeCizr97x86UVz4ol2tPGequUSCI5GlYBUzPH/rPCN/H5XhZdK5QQ92llfHSp1MWntmpp9FccIvkf1/NlpsenS73jRpp413oNTKjqN0o6ClWN6wXKrO7mvR21g/+OXdHI5/9Rf6M5sMx9wwdbszmC++Vyw2PzJDzDx+scneNx4WlAdAYxRHH7xMasyif8UYWb2C4danGAkzGw+g42+Qf47Y6TeqWpmSdRnxkiNqDtpbIrmTvFrCE7M4c8PDuM6+B8LEDHr6jk7s361LCdLu/uLximncL+vY9SwFgcvzqTEEyTaiaHDCZ9qXlekljAiY7Ehswl3/cYYPMGad1NJZf2AmNbrpz11/+RB06aQ7t2u985yOdqguW9mZgJkbBAwuxpKMDE9Pn21/c2ThwuHhimuMna0h7g4AJQd51zTAZf5hH2kMVulm+jeaHHmUnzeg22tDOWeZkfIGfe8s0vHfZUU49YLDy1QBMP+UPw7HwkrSY7tIe2RGxmZmoZHqz5cvo5vdDAObNAMx7Ry3r6sIYUvQQRMzMeqAyu5o5QHqHWPd1BzppMR0BGM2HY262X+nqux2kKi2Q83DQZziu1Jy0/6AIXFz86jkjXMRCp4jmzErK+LH4QmIaLXSnuTEBk+GxDllsPE3Le8dcWo/rlRyxsvojhTzGZ3bH6Tpfuls2P84nV3+4VDyVh++wbM8wWCZMX/hHblteJ48tU2p/DvnBR393j1nyZ5icXdp45Uqr8X+bBTApYYSHRpZ01diAaeXBBstOwK9YjtnWkZKdz/ipxzxGraMTBn4IJuRmJ2ID4+y/aOY87PNR8ocfNEGnG9NGRT3smK6jJugRn3qRpgBMhmx5d2ZCpuXd6Uanrnn1Hh7HI8J3Pz1TLj5miKy5YldZhHZpfsPTsyx32r131Rmp1Qf1pNlHoXQLU+NOSZsLMDMfRjP9gy8r5EbM2B64aKSRsupWR2QwQAlByWjO3QVjNFenrs6NZuEk3cydOk/UWnjPv1sm944plpvPHK4ydp0/Fw8bjoWj/B4snV+6eb5As3gCkhqz0ZN8TQGYFgfTyw9cpiWXvmrtgv5js7VXCzV0c+aoJcNAM4WEMG4um/L0K6larvoRZP3Q6QzVwDIs3xAsDVjMfUkHTM6uu2Jvv6lVswAmK5yHHGyQaepMNVX4TQWYlt7osAGWW7hxH+2pgSFbZwvp2sn0x3UyN2Bb6EEY4OmIL2Uu6VBEFoUvMxx2Hg60qtMc/bmGGNuZIPyBnLFnwk4dR1cvwKS32tpH0i3Ot/NnIJXBhzQqnTo8cCZ0+vWTcSezo5xywEAs39DdqVoB00dmYVNPN7t4LFR6s3RZRJFdM2ycPhGBRsC84eEZ8uDFIwNqpjEqaxhYb6pCMwg6qKpTDE4h8Dh3urk/hmHuRgt1c9d6h6UQqxLHYO9yly37yAE74BoJZkCaFktOGK5Po4XvwuJvrEK3mBqnKaRlMzclYFqc/LhV4eXIHz84rT3Q3TUX17J803HV7xtb1AYiOz0FbSEwsxg74GOah3nKcDqa21sMU/siS9r3ObWz7rW8mQrPwwDIr3xkcB/C1OlkakkHzI6oD94Rb2rVLIDJTCwN10uaGjBZTtYZunbFYQN0xFAION1NRR0RncEp3w29XTX8RM5goh9+WfILmV+p5Xh6Keq8cOdAF3c8F2r4pRq6ubAcP3uefbE6X+63PjNM8xcOPEajnqRb/kM35qUmX1wIdKOIuJOuLsCbpoNkrRW7ROVDN/NLPZph+ojU3RKU4E36DdiiMGNaWCOsn0y78X3wZSUAc3odgBkPECHQZJpRr6w4KNNDM2lGN3PSTn5dhvVDbDtUtsV84Z2F8vXPc+WG04dDcHtnsmaMxFGYkY9kOpwX+7W4zW56Nrq5h3pzAKZvFgqaXbu2x+pM3EatHTFNxqe17Ks6qvPITkb977LhzXqnEGA5saBKxdlpEdIPCp81kAtY+qp3/PTn/1xE8e+SDphdMQGwZec4V41vajbA5MEWLicsyaq5ANPKyC3TOhvltIYq6ogR2XdDb1cNP+ZM4OMgRzmSlPxRhSVydh7t3HRInHplXAaW1hCts5FduywN+EsDS3IsDmDSH1U46DiK+03SrRzMTzQYeU/kj/ygMCj+6xrImeUViMuPGyo9u+HTG4rhGF9yb9O5x+FomOrLecyIQ0mu1C088x94MWMUZ0TwhvcBmNc/NF0eumRk0kntSQCxgZGOBlLm0XiT9CRv6G7mDL8+QNvD/Oz7OXioeZocumtf2WmzPtoWLMww7hheXdpiNzNl0mNqbLJ0xJTspuYETKaCZW99NfzIpZu1T20RrlnEH0mRnYz6n15U0AX7O2UWs6/yRPoiXmNyHQ8cXBJX1ggAXX25tNAl7quOMbJHYTj/9rskAybLgs95hX3A8tXYerMBJtsGpf6Ey4yNnZmmDq+5AZP5YSPg8g9nhSq1w/fAqCP6TsfupkZvNzN1XhGpAlBSSHoV7vgtQqDOP1wRPvsQ7WGnytoByU9GBgzNOi5sNVRDAJOBhYATBp6kW1mEfnxpqDflR3qVBv0bSMc58/oCLCNCGs1f+kY8zBLzRT76sXhCPdWs/tR3HFaQKPOjjowiw82o1OMw3vvCAebDl470DKylWLEKYgVICuwGLkmdTMYWumU1+8ZB99Cf2kEbdUcBPrxERh05VGdaFg7TZWbzaXbnFqQ8THhMjkyhv4hYh6G5AdOSw6wQOO0EK+lW1da2lGb17Kvb3Kh3gv9ynHwtx31dHpZkJ3NhEDARAUhWZNTdn6t/szOOkG5+SMumlmTAbGpxeGGZNRtgMlI+KO0aQZiEJcfcEoDJ0mGHYWPvAikw/Np0+22u3KxDsiexe7kfp+XBE5fPZnlJMcoL/xz9LEwO3mFHopzYabMgzo3ipfC/Ky5Ec4bJ/T4e2+ZfF79XEPpzqcn8bVWAyaJhprWQRG58vFDe+bQSg/0QCCLv5Nx88ZHPQC3Us5mZa1f2LnAzGz/dTYW00GzuphMwrxs9XR65bKSRauhJMAntZjZdPbM9wGC0UE81g5vthyrpbzyeUPv3TdPwMPQQfd6MDBaG8mtczq/ZqVOF7Sb041wzf+tyz+R2tpYCTDYvKn7g8tS5nkPgwTLQXZtw7r6nRm2RZefOArST6Xh+jdtXLihXfi5cT4mLVEoh0ae4fBFO7jrA5KEXli2F7HPdhKIYkRRVYZk7SubvkgyYvErCcak5VLMCJhsQ5RW6qm+O7DVuHC0JmJYTAhk7JDsAZYdaJ2XvMzPdaabEmAp8qS5AwQMWXbmz8OHXeONe6wa85z6aI/e/WKmdkDx9IGKN4fWgVBl0SDbOntiz6QLzdut3lWUG4JRHFkXAvPHRabLlBn0hrSY7XxbvINfSUtQpdk9YI78hKOkw5DPO6zOvfVQhf1i5qwyHNJ2o/HxAUcie3/llStWE8iMH/mJGb40IES99qVIn7w7NhWSOmTofrP4cS57b4T3PbKommKBi/bjhNG/xATh+40EbUjrbkudTJzPH7hlhet53Pq/UPfYN1uimy2HkMR8MNgrTx6Ga0iNTlFaj1NR9Wmo61ErhYbb3xpfKibjiwgekwzZgHn21mjXS0+iLS+MrIew7VNn6Knmqcei1EuA3G3/8x+0Rftdq24Lu4keD8TRWQQX69k1jKuS9L6ukR3fAI5z793LbCwOgk6cv6ASS/n3yZO/N82tdDVqSATNfTy1rMTf5T7MCJit+SX5UujUAprUIdsR8gBD3JN3BIAy/KF8u3c5FZ5rFp3zY97TfBUMzCb4TslNxMHF6O/l1+nw59bYSf73EYtIAfKd1NHiTLhDFdsrevWSz1f1Bj4DdjATM6x+eJiuM7KZLTUavn84Ee2VGJsBIOpoYwRjMFbq6sxy8W8BC0OSBihWXpRB08po/Z1A/Ec25xTQfYuTuDT6+iDuyWxrpEnlStjhM54u/TFsB6mPlkenlmwlI9BGHz/qMFSyZBHWK/TvAtDTEdHqzgBgGvTl70awFMn3WfC037h25AJ3GXwXOyG9MN/+RE4vBorAiCeIJfdbHzP2/CVNmy1mHDmlRwLQ0d8IMkC8Xsa9SsayZTW6VlJTglDqA0gDS6oF2Nh2WlWtCVkCktZNn3pstdz1XoQd/NFD/o7ye1Ypy0IAOcvdJ/QCeIWemeUkFzA5YAeEMu7lUswImM1WF5QZe/F0SVWsCTOtMBEiq+Xgtnd2wEidfKRNS3UFnSbMTaokHxR4bHWD+PG2BXPhQmczEQEjlOik6J4K3jucc9BfADMDcp27AzFVwgQs1/TdthmCcSTdLd4Y7M4AMazkEDCWQZsRDK5V4O/LK44ep4HP6Y5gWrukRnQaokMfsoW7m0D9pVGk05xK7vTe+Uq5+cLo8fvnIALiMK6FjAA2HjBjo3OCatNO3+XDgBd/ufxQX/ST90T5lerWcdWOBbLF+dzls5/5RQow3DjdOkYsjYs0IN6bGJgsrptTP1NJLsmFqrbnxA5fAyUNBBHQegizDlS4dC7Vtwpe10TCAyOz7MCrqvW+r5IpHyjQcOjOOqJ+SYEUPOtXA/nkAzP5LJWB2QZmqsHyX1Sb/bXbA5J0lDuhLomptgGllyNOsFbinVY2Tr+wj7C/aUWFwunU2Ouh/44LulncufaQUbzniBAcUO591dCXo56+adLCjO7/qTtq7h2y2WvoMiNwN3cN0MbrfXEAmkz+2hX6DkkAeF+EJrgo5+4YCOeHvA2SnTXurJ9LNj+l0MDPLODL7gkraQ/7azHQLlYXzLgHzgSJ54orl6gUwBjamM+w0cwxscezkM97QHIWB9nTL49PRTqrkqhOHQfC7u8AfufsB2sJw9Dj8iC+TlGEL/WY41MPSGgHTks8i4tKrneXgx4TK8ddOi2tk6KBq9HZaeG6BLuzZn/86Ty5/uEwPBSlIqruFDj3sqxgXGP4AvGJz1wlL3wyT2+tNLTs2KFk1NjtgMlYKMVgST8u2VsBkmfJFkfkUaQezdkI/eNGNIBEt8ZAOBtVgrMYXzH2vzJZn35qNjkluUzg44PdfjKKevIWAefI+3WXTJRwwCVB8zaQYL4OMOmKIPrVFmgGX6cy2mVlMkTkoNNKMHvLXZqZbUjEMzjCvemC6/N+VyyWdM+whwORqNrBkQGwrTncGhmHhmG7uv2D5+vCLJ8kJfxsoO27Wq4Y/ax/mz8JWRv9jbiEtNNflHvJmM7dmwNTrItyrRCNi+bDU2YTYP9tR13/U6ebqhGYylcDf5Y+VyZc/Y9NTiXRgOPhwcQtNjsDfwH1g//Zy5wl9l7oZJvdnm1p2bFygztQigLmkypZt7YDJQ1U6SGkvdBXMfsNOGCvXCWnn3ufT78+We57He1NQ9JvfRWSrtbtgzwXLu9hzqcYK7YyyhXpY68dJTiIQeXno58S9mg8wGSdVCEiOEv+muXEwMhW6W5mQVoJj/EdfOll236oX/jDLTPFDvgz/PmBlpZuPJI2HTiE9LT1GM/0dAOaV9xXJU1ctZ6Qaehq4GM10erKBl+Ov0eNWENDQAMxd/dmIDksl5Jaec8tUbQ+XHAMB9t3chlgUNuPRxkefNDvdfkM3o4V6Xe4hb13mJQEw2V60iPgDS9R+zJIowGpsuVz7TDmezKNYPN6RxsyxT3vZfp0uMgsH+3gDobRyEZ6Kg0Qr1NUEvL9qgRIw7zh+6QJMFhvB0g5VaaE0w0+LACbX8efytKy1kmbIaGNE0ZoBkwcH+PVq/YxlS7Mu57TjQg/7D4Y3GpQu8gmWYK94rByPE2PA96vkW63fWY7dqbsCJsMgFBCIJ86YLyfeXBoVoy7J7tFd/thMM8woYuajloaT5pZkD3mYP7o/+t9iuefZmTL64mV0lhnFx/Lyyvxl08nm3NidXdl5g2oZNE+xsCIGb3jn8wq5AoD59NXLJ50iexrIKIC56P2AHEIa24R39KHQHtIis4Xh+V/5sFz+c2+hXHnSMFl7pW7MnKqIP0qVa3eBNSP8kE5zmv8kT33trR0wZ/N1EZSfFi3K2S3J0sD/bunVVlZZDSzqW8aVywvvV6k/EvjBevye3WXzNTrrvijLiDK7Ge4nP8+Tix/Ew6peDezbXm4/bukCTC7HNpewAitH6i0CmKxUXi/hfuaSpFo7YJoYPXZEljGqV/87KSF+GZZ0kItKF8q595dIQREqAXaqVZfrKOft31O64x6XHyedA34n4MTmUdcUR52ch35O3KOH/HHV5tnDjBICQzaQIU+amyuLMIRMPoLm1BnVkDM7RUbgisk5/xwsnXgPlUrL0RuDgMJ40szqzfM7swtDyzoKkzGnKwLm5fcWyTPX1AKYVnFMqsZVs95CQKrTjHAUXn3WmTL64b3Ak6+ZLMMHd5IzDhqsNCY8DM9ykWw3Foa5J/W0MJI89bW3dsCMXxlxOXNVh0JHmVqLsCVaVvGr4+fKbWMqdSvLymLvLfNlf/yZUHajU//fj/Pk/LtLo2Xagf3y5LZjly7AbC7ZsWG50twigMmIl8Rl2dYMmPxqtRkmByE/frpO6DZHOBqqvRS85z9QJj9Odidiuf+xwtAOcua+PWRQ7zwHiqykQE2YvkCOuX5mROFyyAl79gJgdopoSUNjHvpJhh2CVNIttCf5PIZFLJE7yubF90vl2tFFcu4/h8iGa+QrT+ROW+SZ5RtDXb3MRJTIqw2PUXIigwLmPQDMa9MBk1XpKtRrPj1JAArtdZpdoC5kj3z088QrxfL0a6VyydFDZdkh7gMpDEtTEvjVAPxPki9Xt5CvvuZWDZiYBfL9SlMsH606ll8AmOb+Cz5UL7ivTGZhW4TNhn11GyzDHr4j7r+iD/pqMnbVP8LK0QX3ljgaPA3s10FuXcoAs7lkx2YULCwtBpjc9F7SZMu2ZsDkV6sDTNeJgvFcv1p1iQdlzoNBN4+tkJc/mYtNTHbBRdItvz3uVPaU9VbslNoB2WgmzABgXjdT905o5xH5E3brJZu0EGAyDaZCwDJaqGdzzygjbznlusl62fsiSAAK90fCMEKzjmKILKSFZktHGo1u2ehvf1ahS6Bjrl3BgqihZwOjkB6aGUBsZ90rwelqjFHP+IqK58vep/0ie2/bR47acwDqP+ZJeE8NJyIGBgs7IDWqsTUDJleB4hlm3FdtRmmfUKwdnh045sZibJkAYEnAh+9Ky3SUiw7qrRK40sCSBfnRT9Uy6j6/GgT7gL4d5Jajl54ZZnOKwmN5hqrFAJOJoADw+Tpoh0lqvebWDpjcG07rRNYJWbJjPpwj975YoXJpac/D0uPB23eXHSG1B3ers6qJAMxjb8AM04+XnSHz8vjde8omq7TMDDOZ0GzAY3xp7mmA+d2EufLvmwvkmH36y+brxFJ2Qv+h2QCT8Wg5exyqLV7lDSM35kAnYF6GPcOxtQAm2bOBTw26r7fkkqtFGfKbmatA1z0yXd78uFJuO3uEDBuQWddpbc38Wrhpei48af5ypbV2wKRMbVZ/jfIDbZFfDSoHzw045PP+1/iw9W2qd888OXO/XrLK8A7WDVOL5GMC5v3FUV8dCMC8+ailBzC5utVcovCSBdyigMkBnpJ/lhTVmgFTBdv7jw92xKhD+k7IPvcpDgNc+lCpCo+wMt9zi27YC+lWq9gs8hIwj7sBndAryso8btcesnErAUwmKwPILKEJPcmTxC2CBF8zee2jcrl/1EiIFeugIYT+spkdY2aEIa+5pNHMzfS3OMO8B4B5XfYZpvGmAVAmzY+4wQid6e5CCmkE1u8mVMkp106Rkw8YIFuu29OiqznQe5fQf8Scg1uSt6H21g2Y7sUgy6NWifZR4Bt0Lrzy22b0m7PliTcq9MCd8Y46uI+shXMGdSkC5oX3+wN6CIx7mDcd2WepuFbSUod9rMxbFDCZiLmYZfJ015KglgTAZAeMABOF6koWX7SgX/tMhbz6Ca6QkAj774Z1lLP36yl9e1Coe+01QMA8/mYPmAiMEjaO2627bLRy5qwjDKUp9zDDeEJzLmBE/jQ+K4Nfplbhmskk2WHTnnLE7pSQgsIKVDhjJzkZVtKuXi3wWuYGob+3PiuXy+4ulOeuXzGImXWbmZbY0Vdginuan5AWmYM2wC553m1TheBz/SkjFgskLW1R+EZoYr21A2bGI9CoTm0aXndH80R2uaAIOyYkorCg7bxJvvxju2519lMW7Se4p3nhgx4wEcYgCC644YilAzBb4u5l2FxbHDD5OgZP4S0JqjUDJpe3uT+igInCdCWKnqbKDfHXPlsmr34MaT4gk29NfK2eBmk9PBUbjefeR1J79YsqufHJCvVLt3wIYz9ul+6y/u9aF2Am0x2CUNKN9mzuj7w0Sx7/b4lcDpF5yw+LTwLX4Ec5JmlJu8YbFTCHxCztPSATMC8FYI5LAGYa3uoyq4WZK2CmBBQC22sflWGmPV3OPHSQbLJm94yiC/kyHFIs9eFN8b5YpNYOmHyTVatL+yH7HiveoNLNMA/DAbuimTBzmwTOh2yfL7ts1LXOfsoCu+X5Cnnpw6qorw4bmCfX/LO3nqile5paUmTJNrcovGRZtThgLkl3Mls7YLLjoQ86NHR9UDsbP1SpHGBWKViyj661Qkc5da+6AXPKzAVyKSSMTJ3pl8/h93fDeKq2J14u8YG7KDJ+W2KGmZEAWFLBK2DK5s7yOfbyScL9n3P+MSTwkQgT2U+GkbRneM4hTeTnkuyldwEwb1i8JVmLMxtgOZA1LqcbbznELB56wQRZbmhnuRRCCvSpt4DV+AJSVmN9eLMGUk+H1g6YfE3FuifLx+NlpDO7x942E8IHFkZ99dAd8mXnDesGzFc+nys34wqKKkRCAQd7bpYve23aVcNyDjV/lwTA5BNofDGpJVWLAyYzv6Qc/mnNgKlv6HEdDY1KByn2Qs42oLNzEkmv4wzzE1x+Bu7xy3XN5TvKKXvWDph8Rujap8vlsx+row43DE96nYo7mEP75jHkrKo1ACYTVxeAWQaSfG98UiFX3l8k5x8+WNZZxV0zMV7Tk36U7vt0qpt59Ho2nrc+rZBLAJjP35gdMHMBI9cWEpHCms0v28rDL86SB58rlutOHYZTmRD9VAu/OiZ+soWdYGsya6sGTBQwAZOdUsvJ91F2LooLNTg47vZZKq1HuzH66sHb1Q2Y302ZL9c9VS5FJQ5oWcCbrN5JDt22e60ftuRbEgCzJQ/7sIyoWgVgcpxfEq6YtGbA5Jt6OvgSMFGxHPis89kS4HVjyuS1T7FUQ0eo32NJloDZLcuSLK+g3IgrKO997SWMwE8f7HeeiL3LlbH/WZdqLYAZpjMbQIU8NJOPx/nPvXWaFM2qlmtOHib9erkDQM496SO25xqHVVAa/5uflitgvnBj5h6mxZIBSr4+zS3UM/hCB2/meB2qCkiMOuSCibLrlj3l7zv0C53qNNcVV50BNBJDawZMAmC1bUGxr6L8SYs6re+cx90xSyZOdeLt6HzwtvmyUy0zTJ4FOe2uUplWDD9erTSio5zuP4iNlk1v7YDZkldJwjJrFYDJBC0Jh39aNWBCBoF+jaIsMzqh1ja6HDoml2Rf+5hLsoBQ/K25XCc5GVdD0gCTHzHj8Jj0w6/P9o/fLtJndA7cprtst24XG+s19Gw/SzpgMl/jf5ojZ1xXIIft1k92/1NvLVvSdZCjIUWlAWAKW/hFg2GSw2Ks3tQZ5jRpTsBknV/7cKF89t1cue7k4dI3+ECIU5bd1AaYNcsm2U5o18ek0YPYT/m9ojwETphtJ9NmmO3au+Xbg/7cXXbaIH1JlvJjL3uiTL6b6AYBtqVBeDT6VAgW4QPvyTTUTGXrn2FS8hblW7e0ajWAyZOyBM3WrFozYM43wGSb0l7odS1QNxxfP6YcM8zZjoKiJmCelAUwP/9lntz8bLmUYsahCmFut16+7LdFvkoYyaUTtkbAdJlxv7kC251PzxAuz16LWWbfnvEsMwzLzLmUi/FSz5aGumaY9FtfgOIAXZv69LvZctr1BXLknv1lty371HnViGHVNw21xd9Ybq19hsmVGyqtjkRf1Z6KvnnCncUyYap7bo9t6iAsq/4Vd6WT7YviRR9/q1LGvDdHFnhHCtw4ZucesuHKnbUOk35c7Jm/rXmGyXbbBfe+uR/b0qrVACYrlQLZeQiotapWDZjshChD9kLtiEEhshPS6QYA5qsETJwC4h4ml2RP3LXmDJNyZs+EaC2VMMJw4HkdnIY9BeBqg24unbC1A2ZQRFmBizwzS+fL8VdOlo3X7CZH7zVAvWUDujDMNHMu5UZ/BMyLsYf5YpYl2WTYVi9Jel12Azy+UcuHoScVVssDFy6rgq2z+TU/2dxbmt7aAZOPGagK+yrMrm2gr6K/KWAWuJdJ2FcP3KabChdJtp+vJs2Xix8uiYEUfvff2vHaOJD0k1Y/rRkwW/oqSVherQYwmajWLl+2NQMmOyFBkZ2Egyc7iekGmDeO5QwT9zCjngQDlmYH42Izdz4H4xAPrxxOxp3LwlmUM0t3kRE4ln7MX3vICLzcbiqXTri0ACbzSnmqdzw1U67Ew8lrrsgvfZZ2/VWu3j7+dracd+tUue3fkLDTP/vVHUtBQwHzjU/wGgleRxl1xGBZb1W8RlKLagNMA7fMQkqr2ySNdk4K2HpYZ/ivinbH6wDzpLs4wwRgkoHH3NFP89D9BvZ2KxzD0Gepxv9cpU+uMTAKYt90DciZ3T6z/pJpUI+Jn9YMmJxdMu+tQbUqwGzth39aM2BGnTDRqthZDDBveg4zTJySjQdXnMqzHmv+2DfNDL0j+ieXbdeADMuQN5dOuCQBZpDlVDAsxwX+wyHMYPjAjhDOPli6d03vwYsLpGH8NH/9y1w564apctnxQ2SVZd1J1SRPrvZcAO7wSyfKiiM6y6l/H5QabC5hpHpsAWJrn2Gyr1pfou76aCZgnnx3sfyKNy2VD324XXv+oDCJrKYSfXW5wXly/C49pX/PzLXLXPpqawXM1nLYJypydPCwCozeYnprnmW2ZsDUTsc+5dHOalXpCpkQuo439V77DKdkqazWycCOZx6dq4bDTfZDcDpvs5Q3Ly18z56qETBvf7JQbj17eVluWMMG/dQImoiYrUt8+v1sLFtOxb3MwbjMn/kVb0nJ5tfcc9UdYBYAMIc2KWCyHp94rRjXSGbJf44dJquMTK+nZPvINR8twTejZL6ccf3/t3cdgHEUV/vZki1ZXbJluVFMx0AopoMxHVNNTGjGdJL8SfjJnxBIAoGUH1JJD39CEhwgofdeAsYUE8D0ZnpzlSWry+r2/32zN3d7p72i00navXsD1u7Ozs7NfjO737437735TBYcNV5m71ru+QEUb/x65Wc6z0472UeO9fNxdH7HkTC/8w9ImGtCulueZAn8b66xF4bA5SEN936AqF3TQpJn6JTZeLXffZ77fiVMrnlJydkvyVcSJkHh2OjswlymGSR+gclpBwnz1sfWya8u2BTuFfkpP4heA9Yrj7/ilZ9KXmwZe8ytlTBJmE+94SJMkmsIZz509hq2g4P0MCwjRIfn8NqQPBFK7rI2z71l/z24hIsy18k+O5fLvEMqZa8dvEnGfZ3f9mMJ8Bc3rJGPV3bLHxEubiyCQA8mxdZt66Lx2+KXW+T2fzfLRWdWgzDH2VOe28GQGQ1LvvGL5XL4PqVmNRIbBnAwdXo2chgy+bH9Gj5q7nuqWZ59pUnOnjtBTj+yOuXnlE30GtdDncf6+Rg6v+MQ5kXXNcrntS7CjH1WaesRGn7lxaPk3CNKZFf4VXslr/a7y/Ui2tofblsj9HP83tlTpQAk5YdE6ZIL1Q/uKcvsnfiOMHl73Rj4HPx+S0teb5HL/2+FTK4eI5eczS///i8yr8GZah7vN9WyycrZ89xawvzzwy2y+LVuY21mz/NJNeG33GAjb8upefKdL5ZJUZzIGuHr3de59hc+UCeP4wMjH0ugTKgqlJUwJjloz1IYzUwwHxuuooHafR+rmXz/TyvNclcnHVqZ8ba//XEH5hJXyerabikpyYP6d6rsuu3QfGhwObg/3V4nDz7TKnf+crqU4feCmto7+szKKk8ubTPuMKVFG+STFZ2y366lcsHJNYiXHG3dHG/8euUPdR7rx/9RhHnxdfDDrI1E+jEFUCb2WSW1zd13nHE5iSeJebXf9vPaxh6MgVpZ9vF6mXtQFVbpmdQvdrItO9xbPwQqiL1nXxImVRa0mE3U0bE3MhzHjNW6dFmb3PhgPSbku+TgPcrlqH3LEUKsMGzy7NXmVPN4D6mWTVbOnufWEuYHq3pl5bpes85eF5ynuSgtpRli3QMbH0YL6sZHbQnC3f3XUSUyAUEK4iVbv/t8OxbGfendNrnt8XUmmtAR+1XIaUdOMPd0x6JGeWRJq1nO7cxjqmTPGcUmEECMdsldnS/36f70x1vXykPPtshfLtnEhI8bbENJXJ+v6ZL7n26UxYjhusmkAtl7p1J5BWPtzY/WyxH7VsDNo0o2rYGbQPwuGXAzPl7ZJRfBx/Qr88bLnH3KB3y9Hy6ow3qdi2GwdP0DjXD5yZOjETD/+NnlxsXikeea5B6MOwZFOeXw8TJrl1IZD6MZI6yRoTyS17ge6jznGbXPviNhvgq3rjpYq9e39OG5FGlo7TNChOOv7vit9+I9SUO8cxGUnYtJx0ux7efxmoZuef7NNrnnqUaZAgFgPp7TWbuU9QuDGK/Ooc4f6VVJ4t2fLwmTjeULnaoCPyYaFbz0TpvcACmqDXE3D92zHFFRJkhRofeqH7EDlvfklRcv36tssjx7nltLmCbPHEd+fwPi5BFrQ5YgzS5I9uOgBqkoTvxmtvWzzSSRNz7AckRPrJMVdT0y98BKOXSvctl8Ml/wkQd5xdoeefDZZrnziSZjYDL/yErZf+fowN6sz++JbianX/6ZHLZXqZx/UrVxqI6nXk12L73A/jpK4y80S2HBaDnr2GrZe0dEX4JREWO6vvh2G87XShec0w/cvQwvtmopxYLf6Sa3qvXiP640FptXfm2KUX2lW+dIXEc3mIefa5H7oX5tBk5fOrhCDti1RCbDotj9UbGqrlueWNos12NqYItpBebD4wiMTff4dbffK3+o81g/33TO7ziEGTl28jm+GDqvAx+4/MDqMO9HMc8pn9dEyanXKcHn/ImXmvHB12hw++oJNTJrV6xYlMS/OFH9Q3GO6+3m+1Dh4VvC5ByY38Pl8aH910N1ctuj66QAZPnD86bKjlsU9YtI4R6wdnB55fGcV346efYabpMRZrzftW312rJeagLYR9fev1aehd/gZgjW/b1zpsi2m/ZXVbvrWFXfLb+EC8Nr73XIPrsUyfknTpQpE6KtcN3l/bi/5I02+clfa+WvWFh5s8nJ3T5iCZUvrtffb5crrl1pIr8cN7tSzj62BsGl+390dUEDcD0wvh2Se1kpVOWnTzFqWq85VDchJsLtSUhlV/x1jVwCA6ZDdo8slJ3oGj+c40f06voeueqfa+XNDzpk1xlFsOydCNco7/k72+aGll751Q2r5PnXW2XGVkXyndMmyzQsiO0mV5a1z429bjjynGfU/nZ8wjTPMZl0gIn1E7fPoMX4w621CPXYLbPx8XURxpFf5ivdt8SP7GQfAe7yw7nvW8IkCHypcPkvPycOxmWfrseXbqMswZJMO29TJMfMqpBdti4OzwWk+hDyPlMtm6ycPc/tUBAmLREX4Uv18RebpRIh1I6ZVSlH71cpYxKohtz9SPXtcyCdu59sNoEBjty3TA7bu0ymQj0UhESp/LI/rzLz7VddMDWpKssSJj8yXoKq9cFnmuRtzBvtvn2JzDu4CvPhRf0snN048PoPl3fKnYvWGYOgmVBpzz2wSnbZhuPMKZkqWVJCvhiq2PEVeXLF1ybDeCl9idXdxqHef+/zTnngmRZ58Olm2WunIpmD6ZDZu6WuoeCyWjSmemRJk3yKKZVDMaVyJKYNNpk4Ngn2/e/MPl/uM+nmOc+offYzS5gcbx9g3PA55bjbZVsEcZ9dJbtuV2xCXbrb75d9v0qXxMfXhEkpk1Kc10D0S+fadpDcP1jeIb/512oYuHTLrN3K5Btfmgj1mXcsx3j35JWfTp69httMEia/VLlW463/XiftnX2wRKyGarJCyosxN5RYM2Shito2tfXJoqWt8vub6mQKfBzPPb4KL7KyqDJ+PXj+rXb5ERZZ/u9TqvGxkHwOkNL4729eLYuXtuBex8rFZ06VraYVwjoxmrBs37nv2xIupc3P13RDwlqFefROWCCXyddPrJEJIYd29zXx9u9Z3CRX314v/0JEn5oq/3+gtCMI/l/uqpNFL7RhHdbRMLirkW3hm8opkHQSDYRInL+7cY1Rb59yxHg5AXPETN7Y9/+VTJZznlH725kjTM533oEPLKr7aSx00ZlTZI8ZJQmjOPW/0+HNoXTJ+dh03iXD0VJfEyYBCIKU6e4otvfuxQ1yLwZqJ/bPPGaC7IM5qdg5Aq8HjvV45aeTZ6/hNhOEScvl5VDp3Plkg7wDS86d8aV63hdrzDyl+/7T3afU8/tb1sqLb3XIjC0LoJ4cb/wP/RBwOd49MYj2Jf+3SlZhbpYRgOKpBRuhDnz+zVa5+rZaKcMH1El4QR87q8oQpe0n929456EjXYlW5JQ273lynUCIwDibCEOhkqQB09tAFl++YrmZfz3nuIGtRuL6+WHZbYDBy5sfrpc/31GPeXKRw/culZMPq5Sy4sxMbpE4/3JnrfmAmYQpgXOOq0YUp2LjXuG+Qe/+cJdw9tMtx+vYu871gydM9jHda27GVFEfgDtk7wr5Cp7VWPVz/zsY+RxOM4xhuDGfJt8TJh+ULkqZPgUwXrNWrO2C5NQitz5aD5VPgZxwSBUMXErD85teDxfr8spPJ89ew+1gCbMWy1vduahBnn+rVbafPk5OOHS8mUOjU3EmE9Wcb37YITc+zKWNumWPHYthTFWJ6DrJ5wgz2Y6B1LUG2Hz1yuVy0mGwCJ7jSCn2ekrji2D1yo+nVTCG+iJUr5TGp2E82C9o20/2Gm4jeZFRH8mLlKTUuby2Sx59vlnuAnFuAWvtow+olCNhVRsv/eKGWnzwdCJIwZS4BB/v2uHM52ottz/eBHeHThjqlMuc/crg6lSQ8SbwA5dTKvfiI/eVZe2GME9AP22/+bgwwXhj378p6Zbjdexp5/r0CZMaudc/aMc0R4OswjzvwdDU0MJ6q2mRe+nfav/kcIHoQvpd+pcv/a2StV0ZNCnTtptbSk4/uma5vI6VIHaH4/6FMDaYWBFfDZbuQ8ffcl9r97lNlzBp/XrfM41y8yPrjCrsG6fUyJy9M+97yLa7Ex/8x19ogZHGWvOB8fWTJsiR+5QhnqQ/n6TbHmeAhgZ54HdbmHkhYt7UiqDYMOh58S3MG2Hx6R9/ZVOpruzf77af7P3jUuftaTLMkfOx6Oy6clkucr4e4+xXN6yUF+AqsOPWRfJ9OKBPhVGL++XzOj5G/vsXK4za+8yj/Sdd8nY+xwfAb29eKy+/3SEzt+d91Ayb2vg/0AL89O8rTeCU+UdNkFMPG2/sEGL7iJ2QyTzWxZ506hw4YfI6Pqv0p3wW0bVq0O+XwX93h+nei56z/X5Mfovq44WR7yVMNpoDoiMgc5leIFPS4KT7g/CzW72uG1aJjrGBV1Bt56GJriWdPHsNtwMlTEp6S+E28+h/muCv5Xypzjt4PPy1hlfSWwmXgHvhNvAw/Dc3qRkDX7pKs2KI39S09AX8AQyAJgOfc46tlH9D4qNPJa1njz9ovBw0szxsABbds/YlGcnli9PNkJHjBGVMIWe+f/ErLfIQPnKIHS1vD4bL0ybw3+T86c/+sQbGLt1yzaWbIiBFZrUDkdYNfI+GKbTg/PcLrRhzrVIzPl+OP7AcfoElxmp44DWmf0Vzey98NxvM2B+DoBvzsMwZ+4/Wy+5kn69M5DnPqB0LAyNMWv8yBOUDTzdJdVW+HA3jO2oY/Gj96sYqdj8fc5eM6uP3FAjCJIh+jjGbaic3t/Uan7CF99ZJKfzsjj2gQk4EEblTph5EW4/zMJIyQw8kdsL7yKMfJpMtz4AM9At899MO2R+GSwvwpb0pHOltyDRTeBj/sN/5kr/50QZ8PbfLdtML5cIF1bIZ2uSXROxo8UtjqJfeajFz19+GJmHvHUoRPSdxhBmLu/terIGPzYs9Zr73dc4VzTCkWvIGjFpuWm0c9efBoGVrRKW65OrV8qeLp8EH1jterP294d7e+Gij3Pdkk8Ht7GOr5IDdOOefmXnKdO6FH7j1iIBzK9x4HkPwg8kTCuQs2CLstUPEIjcR/u7fTKUcy0SeydQIk1NVlIhvfLjeCBM0XDpinwrMYY9JaR1TdxtHep80ybnLkXrHDOT+A0OYVNNxLpPboKd1TT3yt3vguwhpYCq+/r98/ERj4EJryVQeMN5/snL2vPMwJiZMlqHq+CG8HB6CyT19Iv/rpBrjQO8XrNnvnBO+AUHC65v6ZP4cfkk7DtduteNwt5dW3B/A3eEaGI8wFBs/Mi44ebJUMBQb2hw7XG2/2HbGHjM/liBjj50ytobINrauViz+ffXtq42argrTALvBQvLrsNzO9NxzpAWp71HiZTD7P95SL1wJ5gC4h1xwcrUJ3pB6LUNbkni+gTnBP96yRlau7TaEdDykdhp3cb4tNsXiz/Op5LEMx4lTNjFh8gOSfqj/eqReln3SIVttWijfOm0SjO/89REUi02iY4b088OYTNRGey4whMkGZ4OUaYHvRlyrtz/qkLsQHYdRcnaDX9SXYBi01dRxUfNOLJ/KQxdbzl7jPIzxCbOto1ceg9k5fSo5V8wv1QOhMo616rXtHuktVVCPPIfYp4uapDIUCm0O5jdjVWZD3U7iSin8Dkghr77bDv82+EXG+reFXoTutth+sXmxx8yPJcjYY6eMrSGy9aqLz8xrCJDwCNTrryBs4W7blSAO7ni4ZYyMIQjn2l5ath7Wvc3y1kedctAexYiUVSYzoDnwq4SxHu5TdEO584kGacL4o8pzLoiTrlTu5IV/Knkskwph1iLgwN3w934KbZmxBY3vEGISWgy/TVG4MUm2z88OkmUQLHh5L4EiTDa4AyHCGCIqWxLj076I+cLLrl5hXpQnwtDg7KOro27P63aT5dnz3JIuww+kOXZI+L3P1suvb1wtDMBMC86vzquRAszV9P92jmrOiB/wnugS8Mt/1sqTL7bJtlsUyOXnTUas1eGZY6V08Zc712A1ERpD5RkDG1pAM584h1MI6/Axdmy/2LzYY+bHEmTssVPG1hDZ2rrcbbB5JmACCPMnf1suPfgwOunwCYghO7Hfx1mktszvsQ1XLFwti9Bnkybkyw+/4qz16SGsZf7HM1AjVbV3LKqXvyJgPefbLj13quyJwBM2WaztMbep5LEM+8wp21/C5EfPEy81yZ9h1MPn8/uIpsVwdlzNI+iJZO+1GpJf7ytwhBlUN5NkA4AxaW/DC/hBGGzQIXv+nAmyLwJwe4VKY13JHkR73nkYI4TZh4fvYzi8PwyJg5GJKBmddDgif2wbefCTtdUv53lvL77TLrc81ijvfdplAm8fBfeD6QjRNxSJ0Ym4Yg2thqmKnQNJ40uHjHdWXwmxVGjj/DwOoo6Ra/vFtq/fMU/EZLoJM1xfaCd8bK5L/ntUhd74CIIAwAitGDFpTzwUQbexokdphnwb7X25t2vW9QjdRGhJPAkGPeyjuQiQHpQIQ+57Ydd88HmH3AJ3sZcw9hjZ6zj41M6Au5WXhBzTlaaq2Dwesx+d/AhhrsdH4Vvweb77qQapBYb74qPsZGiAaP2cDYl8T+OkIPF+4AiTA4VWnPzay7ZEdZVZtQJqF660QOvG846vRnza4n6DKvahIxbuPLvPLemSaNHo6LbHG+TpV5qlFDFJ6cw8E1/I6UZM8Qv+NHKhmm/hveuMWvlIrFhBi9pMWYISw5chnS28ey3cHrrhQF8Ov8sJ5sVlXV0s3m5MUsmLLWNGdUzmgAjTVBA9Ftgmd5UcZ5yTe3BJg1HHb4Yg+WccUw31XklGJU4GdrgPYezugvq8FR8bp8GnlqHsJsK9JihSpbs/3fucUnkLbjr/uG+tfIzQc/t8oRTBI6r7uYy5cbfXx+bxmN3m5DuE+fGqTrnhoXoTb5hLlJ2GD+gtYayVDVKlxYGSZdDUyYEkzGyVMu1A4vbV99oQZm+N+bKkJHMKggVUgOTsAxP70PEad57d53Z9V5+8gFUvFt5fZyJ/zMNc6elHT+xHwqwjyImre/zlrnoTQm1Sdb58+7SJss0mBWmb2FNdztB9XJXmYRhDTUQYOarhGA0mNlm83fnJ8ux5NyHyepvvvEbdx07tkfPex9F1eJdhHbg9ee2DNrnmrlpZDTcUOrmfjukAzg3bceZcPbC/XQjJRqnyV1CZf/h5l3xhm3HybQZID0AYvoHdqVP6Zkibd+JDlFqHsxEt6ECoS0ugqmeK7SuvPJbB/6ZsfXMPVmFpRLSwRoy3fPk61vLcd6dghIrkvaWaqEym9ixoH06BJEx2SpCDGaQ6qGgVTF/Iu+AXRnXgMftXwD9FDCwAACR+SURBVOCAxgbJ49PyIeTcx8vvtUP92oDA3V3GXJ9+WtskWU0k1fb5tdybMKZiUPdnoQacPbME/ojlstOWiVdQib0XzpHeASMPqsgZio1zy4fuUeEs4eYuHHrZhbMGeowLR4owbZsZE5hGLQ882yBcuu6o/SvhB1lliNOWSXX7Niw36Tv79MvtsvsMLGw8q1xmInBDPqSJbE6M7PXQs03yGJ5Xxuc9Fs/ZPphSiY0TTAxiSZTHjdD+0C2JZEkNAA3IDkKkngkJgpwEFU+OBC4ObbUzQbqPwBImQc42AyCvgcOHaT3mne54ol5uemidWSfxaydMNPObsVKA+0FkwOqrblwlSxFpZmtYIH7zlEmyNYjSa57F63eDnsePBX4kXHEtpPSGXjl2dpmcfcz4pHFIKXU9A0fwq65bZdYGPRcq8S8dMsH5Gg6BgiKRhINBHaOmkSZM3gzvm/Obdz+1Dr59dQanb86fDBVqWUpSAKX76x9AbNvFLZCM8uQbcBHZA5bfXkuQRcDLrj0SHQ3o6IbCZcR2hCaCy4hRBe1O7ueU+VxN5Nd4VjkdczyM704/ilJ+eosZuH/Hr/t8B5Ewg5gCTZi5oJp1D6plcGO4AWrVd7As1Mzt4cYAY4MtphaG5wH4INLtggvm0umaAaUZ7YVfq7maKDHd/kSjiSBDFdC5CDj+ha3HGfW2GxNqLD6CHyXdRJZCff0FLJt1Lvxjt4f7BZMhxRAzhjbO5TgY1DHrjnmDRg6dmiPHoZ+M+kFeH26Ks2PqDO+aHVuGB6a4xzU8wXIfruww67xy+THOcTMOMmMIe803NbT2yfMI2nDTI41G6zMHvrEnHlphVumJbkHuHPFjbTHsBO6ChmI5VpY5HguqH7RbOfybnVCFxJgfKJ/C+O4eGPQw6MX2+Kg9FYvQz4TbTzYnqmAL4W8eFDeS2L4INGFy4PFF18vRlyOJ8yQvI0g0rfQ+W9Ul+8Fy7iwYG4wryIMBR5OZa6N658TDoNLZvcKoh4I2TzAUXfnRCqjMltCXrsnMqZ0zF2tJIuYqE33r/hoKJDEdHyDnzp1o1gs0BBEaWmaDP7EjzU1ErCvZsSElFnQlN2Ha33FOO8Za7h91nw+3JbQTPsbFidrhWQd/0FUPpwPe+LAdRFhnJJ9DEGJvASSfGtdCzU9hEerbECD9fVgon3BIOYyhyvABNzQWyg4ewfq7DvORzyA4yQ0P1mNB5NEIW1chx+xXJbSI5wfts6+1yITKfDkVBj30j83UKix+RimIhj5uPANNmLwRGmZ0wMggF9OdWKHin/fXm/lNriW5Al+zu0ANdtEZk2G+nx2m55nuVy4cfOXCWuOGcvxBWAFj2hijfh2PuaKvfqlG5mHuzj2aoogHJ9zn2Lao82kcO3VEajV74cORI0ze6EY6TiLd+0wDXFHqTaQtqmnpinTFwjXy7iddcKAvkB9/dbJUZ+Fcm7n5DPzhlMpv/rVKnsLKNaUIdtCNjxGqb+ch8MCZMLIKontNOrDQT3lcQTBVsfZ+A0+YvBGqQLheY64lvqw578GlibgE11EwCtoPCwprSowA59see74VhTbK9ffVylzEWj0ahi7T4V7B5B5JUYRIEjElIn+izvPamALJj6MvMEeRP1H1ubJNA9zHVkpN/HuOy0Kk9dHtTXTtCljRMlrQvVAhVlcV4h/V/RVywK4lgZ2PcuMw1Pt9cIN7A2t7PvB0g9EGzUVQ9603GZgh2lC3cSjrp5aLBlAMgxfklBWEyQ6gqpJzmrmY+DDyg6EwAFF6/NQ/DBl36Z8+l3//eQfnQTYMFE2KUSSC86Ei4Z3IcUgaDN1g1HXIizp212POhWsxV0fKOvmR45h6PH7LXZano4/TJ0zWNQYvvMPOf1vOOb4Ga1RW5vQ8JfFIJ3X3bIARVfD8D9O5V/c1XBQ6GwzAsoYwc80AyD0YdT89BN5HxJYLf/2ZPPSH7Yz18CiEHKHCyNBUiMPCVJb0OHiE2e8+XffoPpcHl5C80Rulff1GOfF778mlX54mB85UTUZ6oy73rqJ0yTlcboOesoYw2RG54JsZ9AHnp/ZbwrzvN9uah5l+YfQXpARgRckQh6RwnDphRkt9lALDv2LgiRyG6nQRmW0XC9qrIuWdTJtvyrgOTG3uulyVmOyYc1SfEQ8aqazHyie9fSLnXvGhEiZx05QyArSKzRu51dpSbmcqBbOKMHnDueCbmUrHapnkCLgJk6VJXOTKsWPzTCB1F2/GqDZZNrr++KTnlHOXd+/b37W1uYmLlOg+7rcfuiiqPhQy5TzODYQw6YLDRQ7W1PUgOpSDCz8kzvlfJUzbV7pNjkC2qGLtnWYdYRrVLOYJol4i9m51qwi4EPAiTHs6D+IVpavRocjQseOp/7GbprwI1dbsdS5yrdkLHw4vYVJjNgYO5YwByzUq1yO6FBM/HEiW3J79EyVMA4r+SYpAEIOrJ7uprCNM3rCqZpN1u54nAokIk+ctUYzF/AuOmBVOfiHMjS5DN3eboonXknSYiaM+KHkdPw7ysLzjusZe6cQSelZitkTpYCFy1o+VMMODQHcSIsBoPtkWWSwrCZOvBYb5cr9AEvasnsxJBJIRJkGxY4ikmcfwJCHetPkWOEswkWO752xZ3n1NovKRcg7BRY5j6+j/GzbHfQ3znGOnvsix81FAqbITvszr4JrERYAoGZAgmWIJ88wfKWE6yOjfRAgEOfxdovvKSsLkDdPnulNVs4n6PufPDYQwCZYxCoJhkKOmDS0WTSI0SIZ3wnOIUaQVOe2UjjppCc2cchFrqGZnE7rOKcO/torwafdvuPfDZcMlDe/zI6ADgddb2zdgS3cHhygdsnRUsO487p/xQyXMSA/onhcCjHFN6dIZR14lgpuXtYTJLsnVgAbBHY7D2/KBEqZtHQmTK9/LRpBmmJjCO56EacnN1hFPwjSUFuK10AymZWSn3vA51OTeZ8U4DmVF7/OUOeGcpfqVYf9WIOhFby9OUprEKUuOzLCxPm2e3Z5+uRIm0NKUAIFCkGUQVyJJcEvhU1lNmHxJcLFphqHSpAjEIpAuYVryoyM/XwxUW5IAbb79Hfexe5/nR4Iw82HazydhPZYua0LQdLaJ6lebSIrxyRL3ibMLLv9A3UosYLrthwA/xBgvNltTVhMmO81RzUaMGLK1I/W+Bo7AYAmTv0hpk0SUhz+xpOkmSfc+rxtOwiQRFowdJY0IMt8G61dKlVZitFu2L3a+ku10zjvqNZLr/B8oYRIXTf0RoCq2EOMsm1PWEyY7j64mDJ2nSRFwI5AJwrT1GTUt5gQpwVlytFuWce87xywZSfa8yQ2dGqhK1tZhamUdeHc5qrGNshqxYHugbTFyIvJJfpYsnVY4pOjO4z4DZrOe0EYJM9JluudCgOOJsWKtKt91Kqt2c4Iw2WPqapJV4zYjN5NJwrRkxfnB/HznxdGHyDg22fPhY0wTuCnTfT6yHyrjKhg556hXbSWmiKsc29GLL8VmqF7bEamHp0iWlhAjW7zpQimS52SQLGPzTr1UJUyLl24jCJAsqWnJ9pQzhMkXDaVMnc7M9iGd+v0NBWHy10kylOwKEDGoF34aUSRnDzAeXfwWU8beQ/S1zOXl5rrQxbH7/G0uoVS7rscEH2B5h/RIl3bfbh2ypFQQKYdzplx/suTvK2ESBU1uBLLVhcR9j3Y/ZwiTN0yyJGnad5YFQbe5icBQEaZFk0TEMHtMhugw/uzcZewYtMcRAoyWLk2+qcibMEcjODqZkZbh9fCn7IFLFY/DKlVc6xCn3UbIktUymfNm602WLKOESRQ0WQRyYd7S3iu3OUWYvGF+8VM9G34BMVNTTiIw1IRJUEmElDYZHIDznIzL6pBn9AjsT5gkRpQJFQuXtlnhDISzg6FFZ+dGWL4iSg/8KW1dNOKhuMgN55iYHNKMECLzeI7VsYhdscUpx7PRSQkzGo9cPuIYYWD1bJ+3dPdxzhEmb17nM91DIHf3h4swLcJcsaGgIA+W23B1YkgdV7IkZ3JDpxISJq4lwdG1hRIlgw/wBWYkWJ6AjyiPmewLjYTN5CZDe87JxzU8HwloxOyopIQZBUdOH2Rj6LtkHZqThMn3UTdUs71qOJtsfGT1+eEmTIJJsiLJkbxIbiRPpoEQppUCGRy9pQ1uIjAuMtePQl3OjqmT7Gcly1iydJOmQ6wOWboJ1Kkk+q8SZjQeuXpEX0v6XOZayknCZCfzvaJGQLk23KPvdyQI0449EpOJTwt1LecbUyFMEhutEdsgTTZD/cr5SjqK2Doxqp0bZBZ2LSka1SyyIsehfZZGplXJWnJldrykhBkPmdzJz+bQd8l6MWcJk8DQ7L+LL6tkKOn5rERgJAnTAsr5zbGYg2SADUqbJE5LnmQ97pPoKCGyTHNLHxYWsP4qoXi2qIznqEp1XWyuW17fJz+9uUVW1W2QyorRUlQ4SipLR0lV6WgpHTdaplRBT4z6t5mcL5PG50lNRWLfACVM23O5ueVYLIS/cSofV9mIUE4TJjuURkAMn6cp9xDwA2ESdb6EaJqfB//NDVivq4/xXZEoP/JrnqTZtn6DdEIFy4+8jaPAjpijJNGZkYs/3OIwdJXZMVbhV4AsX32vy9RhyjpFnALOBc7LD/sLjiiRBQcVO+fi/FXCjANMDmSTJHMhOEGirsx5wiQ43VBtUb2lKbcQ8AthEnUrVRYWOgtXd2F5ugL4U7a0bpBWBB8ARTqsaMiRVOoQJHnTXGszHApF3ij5/QOtsuiFDl5pkjHmCZGkzXOvp3nGnBI57WAlTIuNbqMRyJXgBNF3HX2khAk8+MKh5WxvyAAjGiI9ylYE/EiYxJpqWlrRcq6SGhByHAmTW45Vhy5x4EocupRUeZahIB9c2inXgjBDYiezTSKRMoUtYZ1D5siCw4vltIOKzPl4f1TCjIdMdufnqpFPbK8qYYYQ4YuIi+huMJ/rsTDpcTYi4FfCJNYdXZgqgJTp4jNHksQ5Q5ghgnR40FHbwqvadNM7y3vk5zc1wy/TOWamCaxu5jjDNZqy9g+H/elzimT+gUqYFhPdOgiM4Tw7/Ig14TmCaXvkqcpxRBzS1PB5uTIM/EyYnSHCJGPyVWWmLPGkcoxuDBEj+8l5eFGCO9g0QH373YXNsnadYxhEqbO6PE9KoeqlBqUb86OsixqVFsyLck6UZVjvgsOK5FQlTMKqKYRALlvEeg0CJcwYVLh2Jo2A9DMiBpgsPPQzYXaRMLnCDsgM/xuSM6QItnOMfpDp6GANWZIv60GWv72rTd78sMfpLVy4aU2eXHRyqWw5KV86oEFph9TaA9Js6dgoV93RIqvXmtlRU8dph4MwZ6uE6YCnfxlWkct12WGmiOCRUwmz/zDg/FGnWs72BybLcnxNmCA3EibJ0kiAxD40/4iJA+Yyx2xIlpQUr3+iTe5b0hn+2KOv52Wnl8nuW481dYSuMJfxz/l/bpRPV1LEdLJOO7RITjlACTMMUA7vUIU/Tsmy3whQwuwHiZNBq1nHMTxOAc0OPAJ+J8xuBlAHGxrCxB+rifUy+nnk5U75y/1txuCHBMiwZWccUSRz9xoXV0K44JpG+QTznSRccuZph5XIyUqYgR/Xg70BjjdaxOZxzltTFAJKmFFwRB+QMOlyoik7EfAzYXKOkeEbbZQeMhqnCUz0O8ucoW556u0u+cPdrdINNS4TJcu5+xfJmYcWJ1yj8Jt/bYKE2W2uYd3zDwVhzlIJ0wCSw38YmEDJ0nsAKGF642Jy+RLhfCbnNTVlHwJ+J8ye0LSAkTABvyFLdoOLMD+r65Of39osK+tC0Q5wesfpY+W7J5VJeXFiEcFNmCTk+YeUyEkg2kRJ3UoSoRP8c7kYUH0gvaaEmQJaJE36w2nKLgT8TJgkSxtMwxKmQZ/DMMSc3Zh+vPKWZnnl/S6juhXw47SJ+fL9k8tlkwmJQ9yxrm/9rUk+WUkDIcew45SDi5QwCUyOJvW1TN7xSpjJMTKqMMacpUO4puxBIAiESbLE/xErWe6bWUeRZSt65bt/b8D4dAiP0sH/nlUh203LDxv+JOqtb19LwoRkuoG/gMWhDymSE/cfl+gSXUA6ITrBPam+lqn1nRJmajiFSFPVsynCFYhiviZMzJ33hubPrYTp0BoDrjvRf95a3i3f/3uzw6hAfDz8LX91boWMLwsFMkjQC61wK7kYhLm2IfQViMrnQ8Kct68SZgLYsvKUkmXq3aqEmTpWSpoDwCoIRf1MmCRLOw0QNvwhqFDJGu8STLC/bQizJUKYWI2EhFmF1Ug4/x4v0R/zusfb5fGXocplQtnyktHyP/NKZKfNxjh5cf7qHGYcYAKaTbIcA82E8zEW0JsYxmYrYQ4QbNr/cB3NRC+kAVapxUcIAX8TJn0rIf1BvCRhkv/wsJqtgQtvOIcwIWHyHI6rykfLL89JTpiLXkec2UfbEe3HXGqsak9FDFm6oCRLSpjJEArO+XwsP1IAX0tNqSOghJk6VuGSJE3OaXINQk3BRcDPhMlABAygYQgTEJMwI8k5ImFecq1DmDxHwvxFEsJ849Me+d09rdLaDrUu3pV0QTl890I5/cDELij2t5UwLRLB3mrIu/T6TwkzPdzMWoOMxKIeJ2kC6IPLfE2Y+BgzcV4tTlYQIFeG3EreXkHCbALxOZJnVVme/Pysyrgq2Y9re+VKrI/JtTVtCOndty2Q848tNVFd7E8l2iphJkInGOeULNPvJyXM9LGDhOnEnVXSHASII3ipnwmT2gsSJieXyJWctzScCcK0ilkS5g8WNhrpk1MENPr5WRzCbFm/Ua7Gcl+vfxxyQUFlk6ry5H+OL5PN4YqS6hSDEuYIDtgM/LSS5eBAVMIcHH6OpKnq2UGiODKX+50wjco/RJSOoY/FCZQJgnwHhHnpwiaTaecwrzzDW8L826Ntshhzl6ZOXFsKI58L5pbKjps6Rj5KmBbb7N3mc5mufMcFKXvvcmjvTAkzA/jyZUNDIJU0MwDmMFbhe8LEuKJUSTLErpOwQwnTEuZl1zuEaQiP/pijN2JecpRMHp8nRQWjpKZyNObbRZYu68I51iYmXN55c0rkgB0KnDrxVwkzDEVW7qjrSGa6VQkzMziaF46G0csQmMNUja8Jk8ToGMk6aJDrmOcizGWQMC+7PuSHifywztbZMdc5FOlUYf8etluhnIJlvApdiwIrYVp0sm+rZJm5PlXCzByWSpoZxHI4qvIzYRpiJAkihSVMD8K8/J/ww2QKlbU7Ub6bOM06mLaemi8XziuVYkif7qSE6UYje/aVLDPbl0qYmcVTSTPDeA5ldZYwb/nZ1lBfjkbfhVkn/LMeWaaPwwVCO6mWY/FUy3K+0RKdaZkHYf4IhGnmN10NiqbCSB3TqvPkUgRlLy6MLeHdJleVZre9c4Ocd8VH8oMvT5PZu5XFntZjHyHAHjZzli4tgo+aF9imKGEOQdfxhchlwWykliH4Ca0yAwh8uqpLvvPbT2XrTQvl2FmVsseMkn7LGqVKbqmWY7NTLesuF48wf3xjKNKPKcDKQZDwrXRfy7zSolHylSNLZOfp3pF8osrHYMtzr7zXLo8+3yTvfdohP/nGJjJzu5KYUnroJwTGgigpXWrKLAJKmJnFM1wbXzIkTF1PMwyJ73bYRx+t6JQfXrNCVqzukoP3KpUL50+RosLIslheRDKYPIKQzvVoqiFDXmuNftq7Nsijr3ZIF5a0/KS2TzpgrV3b0CetcCGxKlqSJ9OCg4vlkJ0LXLObTr7969Umnmtp75OFD6yVp19ulembFMjlkC63mFIYlnzt9br1BwKkyAJdz3LIOkMJc8igdSrmEk38Z154Q/xbWn16CJAs7n2qQe57qlHqm3pk/hHj5ZA9yuHX6O2f6EUuqeaxhamWdZcz44c8yH/8z2Q4vGjy7DEO+B9Js6VjA6y3N0pb50b5wubekqVFzNZnj+uAw3/ebJNHnmuSonGj5bjZlXLU/pXCxYU1+RMBGkGPHaOLPw9l7yhhDiW6obopadKCVpN/ESBhrG3okcWvNMtND9VLRUm+nHT4eDl0jzIzF+RueSy58FyqeQMp667TjB78YV4qhOm+1t32ePu2POdNl7zRKnc/uU4aW/tkwdET5ICZZXBTGRvvUs33AQI08qLVM0Mdaho6BJQwhw7bqJoZR5vxZ+2LKeqkHvgKgdX13XLltSvlfczXzZxRLOceV4OFmcfIGDh9M3n1Yap56V4/1IRJLcjahl75+321suyTDtkN9/21E2pkc6hfNfkbAY3eM3z9o4Q5fFibKCuUNDd4vV2HsR36U6kh8MyrLXLXogZZ9nGHHL1/hfm32aSCrCPMFXXdRvX63BttshXmKY+F+nW/ncvCHwipoaWlRgIBWsLyQy4Uk2IkmpBTv6mEOczdTUmhG/NKvRoWaJiRT+/nGMHpP1BR/vGWNdK+vk/OOq5ajptVJQUx5vpe30BeeWyFV36yvKGQMPswBh/+T5Pc8ug6ycdL9/xTauAuUm6MRtS+Mr3xMpxXMcyd1XoM5+/m8m8pYY5Q73dD0uzh8k2aAoFAbUO3XH9/nbwAQ5jJE8bKmZjb23azcWGL2mSE577JVMu6y2WSMDtgXUu1612LG2RNfY/su0upnI77maTzlO5u8u0+fXPH5I0GWfq2iVnbMCXMEepavgC53iGJU2lzhDphgD/L/lqGeU0axNDNYs8dSuT0I8dDjTkuZamRP+kmQtuEZHmZIszP1nTJvx6ulzc/XC8H71lurF+3n16kKj3bET7fqiXsyHaQEubI4i9qDDTCHZDmzy99u1X+dFutfLKiS06GNe0ph42XsuK8qNq8SJAFvPKT5Q2GMFl3W0ef3P9Mo9zxRINMqR4jF54xWXbfvjSqvXrgbwRIlvSx1PnKkesnJcyRwz78yzTl7+7dYMgznKk7vkdgXXOvPAASWvRiszHnP3q/Sjlo9zIpK3KI04sEeVNe+cny0iXMFsy7PvNqqzz5crPRZhyxb4WJalRZpvo83w+wUAM5n2yMezBvrnPLI9trSpgji3/41/nC5Jwmzfs1BQcB9tvaxh4YztTLXZDettqkUC44ZZLM2NxbTcs7S0aO9u7d5dIhzHegPr723rXy6couOWZ2BeYpJ0pNVeIABva3desfBNS4xz99oYTpn74wLbHh9NwvS581UZsTB4F3P10vV0NN+85HcEOZBTeUfSvhx9g/HJ1X3ybLS5Uw+6Dj/6y2Sx5GhJ4nIPnusl2xnH3cRNlpq6I4rdZsvyJgVLCI3KPBCPzTQ0qY/umLcEs4r0lJk2b/moKFQCtiry59p01ufQyRcqCynbVbqcw7sEqqKyKSXTJytHfsLpcKYTKc3f3PNMjzsOStQFi/BUdNkF23KZbSmLlVW79u/YuAWWkEbiN2tRr/tjS3WqaE6dP+5suSFrTqr+nTDkrSLH7w3PRInVx3b52UI8zetxdMlj23L4a0MCrjKlla774Bq9ff37JaGkDSZxw3QU49olrGYckyTcFCgHOUjAebH20/FqybyOLWKmH6vHOpouXLV4VNn3dUnOZ9iNVQbv/3Onnu9VbZactxiBZUKbtB6iNxupNbmrT57rx4EuZL77bLw0sa5Y2P4CaCuLdfPKgKy5WNs1XoNkAIcEho8HR/d5gSpr/7x7SOL06G1FMVbQA6y6OJXYgWxLU3/3TbGvno807Zc6cSOQ/zigNR08YS5irEu732vrXy+vvrZQaI+MtfnCjTpxbqaiIe+AchixF7uH6lqmD93VtKmP7un6jWGRUtJE7z8ow6owdBQIBro97/dIPcjvnNTkTboTHOnli0ugouHm5p0t6LO499vhFz201tvbJ0WZtchzUqC6C6OxFLkR2Hxa8pmWgKHgIkSFrBcs5Sk/8RUML0fx9FtdAxCFKfzShQAnawHFasjz3fLA8/2wSyzEO0nSqZvUv/YOexhPnYC00mSPry2m4QZZUcsXeFCdMXsNvX5oYQML6VIEq1gg3OkFDCDE5fhVtKacNKm+FM3QkUAiTDuqZu+enCVfIKrGq3mz5OfnTeJkbatDdiCZOriVx+zXJZubZL9gOxfu/sKYgqlK/qOwtUwLaUJY0KFpKlpmAhoIQZrP6Kaq0xCOoTLBumStooYAJ0wHnpp15ukXsQCP2j5V0mCs/BiBY0bWKBrABBPr60RR7FiiKbTxlrlt06cGa5qu8C1L+xTeXalVTBqlQZi0wwjpUwg9FPcVtJKYRWtCRPpc24MPn+RFNrryx5rVX+cV+dYCEKEzHoI1jYUpNw3ryJMguSpfpT+r4b4zbQzlWSMNWwJy5Mvj+hhOn7LkqtgZzb7O7ZoO4nqcHl21It7b1y1T9XyZvvd8Catli+NX+KFKo/pW/7K5WG8QOIRlkxnkSpXKplfIaAEqbPOmQwzTHSJiRNI22quDkYKEf0WvZjPaL2MEC6Wk+OaFcM6sdHQ5TkmpXah4OC0VcXK2H6qjsy0xhOaVKVp36bmcFTa1EEBooASZJzlap+HShy/i6vhOnv/hlU6+zcptoEDQpGvVgRSBkBql/H5I8289ApX6QFA4OAEmZguiq9hpIsqaLthWGQamnTw1CvUgSSIWCMeiBV5uGfSpXJ0ArueSXM4PbdgFpuFqmGURC4U5MioAhkEAFVv2YQTJ9XpYTp8w7KdPOMtAnfTZ3fzDSyWl+uIZAPs9d8zFNSDaspNxBQwsyNfo66S1phGjcUqml5oEkRUARSRoDuIcZNBESpsXpShi0rCiphZkU3pncTxg2FQQ8w0am8mR6GelXuIECi5IoiebR+zZ3b1jt1IaCE6QIjV3c5v+moatUwKFfHgN53fAToT8kFnWnQo8EH4uOUC2eUMHOhl1O8R1rU9sB/kxKnJkVAEXAkyrFjVJ7UseAgoISpI6EfApzfpMRJwyBV1faDRzOyHAFKkYz5SqlytIqUWd7bA7s9JcyB4ZVTpamq7QmF2supG9ebzUkEKEdy2S26iagvZU4OgaQ3rYSZFCItYIgTxkF9EDdV4tTxkG0IkBzpIkKyVKLMtt7N7P0oYWYWz6yujaraPkqc2Ko7SlZ3dU7cHNWu9KFUY56c6O6M3KQSZkZgzL1KGKeW/9Q8KPf6Puh3zGlJxnvlHKUmRWAgCChhDgQtLRuFANWzVuLcQAOhqLN6oAj4BwGqWq1Eqctt+adfgtYSJcyg9ZgP20vipCeKsayFylaJ04edlKNNIlGaYAMhQx4calIE0kZACTNt6PRCLwRIniROWteqgZAXQpo31AiQFEeBKalyVYvXoUY7t+pXwsyt/h62u6XESeta+nKqP+ewwZ7TP8SIPMaIB5OUo0GWKk3m9HAYkptXwhwSWLVSNwIRqVOta9246H5mEHCCDIAslSQzA6jWEhcBJcy40OiJoUDAuqZYqVPnO4cC5eyu06hc6Q4SUrtqNJ7s7m8/3Z0Spp96I4fa4hgKwacztDanznfmUOeneatG5QopkhIlXUNo0KNJERhOBJQwhxNt/S1PBEiWlDhJnuqe4glRzmaSFClJjkEAdJKkJkVgJBFQwhxJ9PW3+yFAY6GNJE8YDBny5HG/UpqRrQiQE0dD3Uo1KwmSUXiUJ7O1t4N3X0qYweuznGkxJU+SpePfSV9Ppc5s7XwTVCCkbiVBqro1W3s62PelhBns/sup1lP63GBi2To+npZQcwqELLhZkiFJkXOSlCbzGfQ8C+5LbyH7EVDCzP4+zso7JFkaAsXOBs59mmOVQP3a2ZyHdFStDlEa0lSW9Gt3abviIKCEGQcYzQ4eAiTNXi5DxvlPVd+OeAdyySz6RlLdSoLUpAgEHQElzKD3oLbfEwHKmsZoiNGGcMDlyKxU6nmBZqaFAHnQSIs00sE+pUgeU92qJJkWpHqRjxFQwvRx52jTMoeAFTgtaZrACSFJVBW5A8PZGOgYYnTUrEZ4xB+zHVhVWloRCBQCSpiB6i5t7FAgwJi3VOE625A0an+I0qndz4FtLPlZ9w4GMzdzkMqKOTAK9BbjIaCEGQ8Zzc9ZBEiQlEQjUinI1GQ6xkVkUKdMMJcyI+eRAKkydfYdNao5Zr45zz/OeexpUgQUASCghKnDQBEYBAJWxcs5UkqoDpE6FY5U1CISno2vSud/JgYAMFtONGpSBBSBtBBQwkwLNr1IERgYAkZCdV1CMh1MIv2NsmzIff4LkeNg6tVrFQFFID4CSpjxsdEzioAioAgoAopAGAElzDAUuqMIKAKKgCKgCMRHQAkzPjZ6RhFQBBQBRUARCCOghBmGQncUAUVAEVAEFIH4CChhxsdGzygCioAioAgoAmEElDDDUOiOIqAIKAKKgCIQHwElzPjY6BlFQBFQBBQBRSCMgBJmGArdUQQUAUVAEVAE4iOghBkfGz2jCCgCioAioAiEEVDCDEOhO4qAIqAIKAKKQHwElDDjY6NnFAFFQBFQBBSBMAJKmGEodEcRUAQUAUVAEYiPwP8DhPuNC/rPxZoAAAAASUVORK5CYII=;imageBorder=default;" vertex="1" parent="1">
          <mxGeometry x="600" y="410.5" width="90" height="80" as="geometry" />
        </mxCell>
        <mxCell id="8q4tUTvbmkVYXoXBBJad-41" value="&lt;b&gt;Chainlink &lt;br&gt;&lt;ul&gt;&lt;li&gt;&lt;b&gt;CCIP&lt;/b&gt;&lt;/li&gt;&lt;li&gt;&lt;b&gt;Automation&lt;/b&gt;&lt;/li&gt;&lt;li&gt;&lt;b&gt;Funtions&lt;/b&gt;&lt;/li&gt;&lt;/ul&gt;&lt;/b&gt;" style="text;html=1;align=left;verticalAlign=middle;whiteSpace=wrap;rounded=0;" vertex="1" parent="1">
          <mxGeometry x="700" y="430" width="60" height="30" as="geometry" />
        </mxCell>
        <mxCell id="8q4tUTvbmkVYXoXBBJad-45" style="edgeStyle=orthogonalEdgeStyle;rounded=0;orthogonalLoop=1;jettySize=auto;html=1;startArrow=classic;startFill=1;" edge="1" parent="1" source="8q4tUTvbmkVYXoXBBJad-42" target="8q4tUTvbmkVYXoXBBJad-33">
          <mxGeometry relative="1" as="geometry" />
        </mxCell>
        <mxCell id="8q4tUTvbmkVYXoXBBJad-46" style="edgeStyle=orthogonalEdgeStyle;rounded=0;orthogonalLoop=1;jettySize=auto;html=1;entryX=0;entryY=0.5;entryDx=0;entryDy=0;exitX=0;exitY=0.5;exitDx=0;exitDy=0;" edge="1" parent="1" source="8q4tUTvbmkVYXoXBBJad-42" target="8q4tUTvbmkVYXoXBBJad-35">
          <mxGeometry relative="1" as="geometry" />
        </mxCell>
        <mxCell id="8q4tUTvbmkVYXoXBBJad-42" value="" style="shape=image;verticalLabelPosition=bottom;verticalAlign=top;imageAspect=0;aspect=fixed;image=data:image/png,iVBORw0KGgoAAAANSUhEUgAAAQIAAABeCAYAAADIdBpoAAAKrWlDQ1BJQ0MgUHJvZmlsZQAASImVlwdQU1kXgO976SGhJSCd0JsgnQBSQmgBpHcbIQkQSgiBgGJHxBVYUUREUBF0VUTBtQCyFkAU2yKgYHdBFgFlXSzYUPkfMITd/ef///nPzJnzvfPOPffcO/e+OQ8AsixbKEyGZQFIEWSIgr3caJFR0TTcCEADHCACAiCyOelCRmCgH0Bkzv5dPvQBaNreNZ3O9e/v/6vIcXnpHACgQIRjuemcFITPIvqSIxRlAIA6iPh1sjKE09yOMFWEFIjwg2mOn+WxaY6dYTSYiQkNZiJMBQBPYrNF8QCQaIiflsmJR/KQXBE2F3D5AoSFCDunpKRyET6FsCESg/hI0/npsX/JE/+3nLGSnGx2vIRn1zIjeHd+ujCZvfr/3I7/LSnJ4rk59BElJYi8gxErj+zZg6RUXwkLYv0D5pjPnYmf4QSxd9gcc9KZ0XPMZbv7SsYm+/vNcRzfkyXJk8EKnWNeukfIHItSgyVzxYmYjDlmi+bnFSeFSfwJPJYkf3ZCaMQcZ/LD/ec4PSnEdz6GKfGLxMGS+nkCL7f5eT0la09J/8t6+SzJ2IyEUG/J2tnz9fMEjPmc6ZGS2rg8d4/5mDBJvDDDTTKXMDlQEs9L9pL40zNDJGMzkAM5PzZQsoeJbJ/AOQZMkAqSERUBGvBDntwByOCtypheCDNVuFrEj0/IoDGQG8ajsQQcs4U0S3NLawCm7+vscZhYPnMPIermed+WBuR4t05NTV2a93mPAnAqEQBi47zP0BYA2V4ArjdyxKLMWd/MXcIgXwEZQAXKQAPoAENgCiyBLXAErsAD+IAAEAqiwArAAQkgBak8C6wFm0AeKAA7wG5QDirBIXAMnASnQSO4AFrBNXALdIFe8Bj0gyHwCoyDD2ASgiAcRIYokDKkCelBJpAlRIecIQ/IDwqGoqAYKB4SQGJoLbQZKoCKoXKoCqqBfobOQ63QDagbeggNQKPQW+gLjIJJMBVWh/XhRTAdZsC+cCi8HI6H0+BsOBfeDpfB1fAJuAFuhW/BvXA//AqeQAGUFEoRpYUyRdFRTFQAKhoVhxKh1qPyUaWoalQdqhnVgbqL6keNoT6jsWgKmoY2RTuivdFhaA46Db0eXYguRx9DN6Db0XfRA+hx9HcMGaOGMcE4YFiYSEw8JguThynFHMGcw1zF9GKGMB+wWKwi1gBrh/XGRmETsWuwhdj92HpsC7YbO4idwOFwyjgTnBMuAMfGZeDycHtxJ3CXcT24IdwnvBReE2+J98RH4wX4HHwp/jj+Er4HP4yfJMgS9AgOhAACl7CaUEQ4TGgm3CEMESaJckQDohMxlJhI3EQsI9YRrxKfEN9JSUlpS9lLBUnxpTZKlUmdkrouNSD1mSRPMiYxSctIYtJ20lFSC+kh6R2ZTNYnu5KjyRnk7eQa8hXyM/InaYq0mTRLmiu9QbpCukG6R/q1DEFGT4Yhs0ImW6ZU5ozMHZkxWYKsvixTli27XrZC9rzsfdkJOYqchVyAXIpcodxxuRtyI/I4eX15D3mufK78Ifkr8oMUFEWHwqRwKJsphylXKUNULNWAyqImUguoJ6md1HEFeQVrhXCFVQoVChcV+hVRivqKLMVkxSLF04p9il8WqC9gLOAt2LagbkHPgo9KqkquSjylfKV6pV6lL8o0ZQ/lJOWdyo3KT1XQKsYqQSpZKgdUrqqMqVJVHVU5qvmqp1UfqcFqxmrBamvUDqndVptQ11D3Uheq71W/oj6moajhqpGoUaJxSWNUk6LprMnXLNG8rPmSpkBj0JJpZbR22riWmpa3llirSqtTa1LbQDtMO0e7XvupDlGHrhOnU6LTpjOuq6m7RHetbq3uIz2CHl0vQW+PXofeR30D/Qj9rfqN+iMGSgYsg2yDWoMnhmRDF8M0w2rDe0ZYI7pRktF+oy5j2NjGOMG4wviOCWxia8I32W/SvRCz0H6hYGH1wvumJFOGaaZpremAmaKZn1mOWaPZ60W6i6IX7VzUsei7uY15svlh88cW8hY+FjkWzRZvLY0tOZYVlvesyFaeVhusmqzeWJtY86wPWD+wodgssdlq02bzzdbOVmRbZztqp2sXY7fP7j6dSg+kF9Kv22Ps3ew32F+w/+xg65DhcNrhT0dTxyTH444jiw0W8xYfXjzopO3Edqpy6nemOcc4H3Tud9FyYbtUuzx31XHluh5xHWYYMRIZJxiv3czdRG7n3D4yHZjrmC3uKHcv93z3Tg95jzCPco9nntqe8Z61nuNeNl5rvFq8Md6+3ju977PUWRxWDWvcx85nnU+7L8k3xLfc97mfsZ/Ir3kJvMRnya4lT/z1/AX+jQEggBWwK+BpoEFgWuAvQdigwKCKoBfBFsFrgztCKCErQ46HfAh1Cy0KfRxmGCYOawuXCV8WXhP+McI9ojiiP3JR5LrIW1EqUfyopmhcdHj0keiJpR5Ldy8dWmazLG9Z33KD5auW31ihsiJ5xcWVMivZK8/EYGIiYo7HfGUHsKvZE7Gs2H2x4xwmZw/nFdeVW8Id5TnxinnDcU5xxXEj8U7xu+JHE1wSShPG+Ex+Of9NondiZeLHpICko0lTyRHJ9Sn4lJiU8wJ5QZKgPVUjdVVqt9BEmCfsT3NI2502LvIVHUmH0penN2VQkcbotthQvEU8kOmcWZH5KSs868wquVWCVbdXG6/etno42zP7pzXoNZw1bWu11m5aO7COsa5qPbQ+dn3bBp0NuRuGNnptPLaJuClp06855jnFOe83R2xuzlXP3Zg7uMVrS22edJ4o7/5Wx62VP6B/4P/Quc1q295t3/O5+TcLzAtKC74Wcgpv/mjxY9mPU9vjtncW2RYd2IHdIdjRt9Nl57FiueLs4sFdS3Y1lNBK8kve7165+0apdWnlHuIe8Z7+Mr+ypr26e3fs/VqeUN5b4VZRv09t37Z9H/dz9/cccD1QV6leWVD55SD/4IMqr6qGav3q0kPYQ5mHXhwOP9zxE/2nmiMqRwqOfDsqONp/LPhYe41dTc1xteNFtXCtuHb0xLITXSfdTzbVmdZV1SvWF5wCp8SnXv4c83Pfad/TbWfoZ+rO6p3dd45yLr8BaljdMN6Y0NjfFNXUfd7nfFuzY/O5X8x+OXpB60LFRYWLRZeIl3IvTV3OvjzRImwZa41vHWxb2fb4SuSVe+1B7Z1Xfa9ev+Z57UoHo+PydafrF2443Dh/k36z8ZbtrYbbNrfP/Wrz67lO286GO3Z3mrrsu5q7F3df6nHpab3rfvfaPda9W73+vd19YX0P7i+73/+A+2DkYfLDN48yH00+3vgE8yT/qezT0mdqz6p/M/qtvt+2/+KA+8Dt5yHPHw9yBl/9nv7716HcF+QXpcOawzUjliMXRj1Hu14ufTn0SvhqcizvD7k/9r02fH32T9c/b49Hjg+9Eb2Zelv4Tvnd0ffW79smAieefUj5MPkx/5Pyp2Of6Z87vkR8GZ7M+or7WvbN6Fvzd9/vT6ZSpqaEbBF7phVAIQrHxQHw9igA5CgAKF1I/7B0tp+eEWj2H2CGwH/i2Z57RpB+ow4x020RswXpRxDV3wiAjCsAgQiHugLYykqic73vTJ8+LVjkj+Wg9TT1KGZ+Bf+Q2R7+L3X/04LprDPD/2b/BbDpCG3MG1LEAAAAimVYSWZNTQAqAAAACAAEARoABQAAAAEAAAA+ARsABQAAAAEAAABGASgAAwAAAAEAAgAAh2kABAAAAAEAAABOAAAAAAAAAJAAAAABAAAAkAAAAAEAA5KGAAcAAAASAAAAeKACAAQAAAABAAABAqADAAQAAAABAAAAXgAAAABBU0NJSQAAAFNjcmVlbnNob3TlmIvWAAAACXBIWXMAABYlAAAWJQFJUiTwAAAB1WlUWHRYTUw6Y29tLmFkb2JlLnhtcAAAAAAAPHg6eG1wbWV0YSB4bWxuczp4PSJhZG9iZTpuczptZXRhLyIgeDp4bXB0az0iWE1QIENvcmUgNi4wLjAiPgogICA8cmRmOlJERiB4bWxuczpyZGY9Imh0dHA6Ly93d3cudzMub3JnLzE5OTkvMDIvMjItcmRmLXN5bnRheC1ucyMiPgogICAgICA8cmRmOkRlc2NyaXB0aW9uIHJkZjphYm91dD0iIgogICAgICAgICAgICB4bWxuczpleGlmPSJodHRwOi8vbnMuYWRvYmUuY29tL2V4aWYvMS4wLyI+CiAgICAgICAgIDxleGlmOlBpeGVsWURpbWVuc2lvbj45NDwvZXhpZjpQaXhlbFlEaW1lbnNpb24+CiAgICAgICAgIDxleGlmOlBpeGVsWERpbWVuc2lvbj4yNTg8L2V4aWY6UGl4ZWxYRGltZW5zaW9uPgogICAgICAgICA8ZXhpZjpVc2VyQ29tbWVudD5TY3JlZW5zaG90PC9leGlmOlVzZXJDb21tZW50PgogICAgICA8L3JkZjpEZXNjcmlwdGlvbj4KICAgPC9yZGY6UkRGPgo8L3g6eG1wbWV0YT4KREJz4gAAABxpRE9UAAAAAgAAAAAAAAAvAAAAKAAAAC8AAAAvAAAL6IDQ8BwAAAu0SURBVHgB7F0JVBbXFb4YFReIniiKK6Im0h7BRNRWSTAYjYoLnuIS3HAvrjHGphVplCSgPUpUTgVBwWjBkEgsLqmiadyXU1GrqKixLkdFo1VR9nX67qQz/G+Wn/ll+3+87xycN2/uve/NN+99c+97b37tBJaAEiFACLzUCNgREbzUz59unhAQESAioI5ACBACQERAnYAQIASICKgPEAKEABARUCcgBAgBIgLqA4QAIcAQoDkC6gaEACFAREB9gBAgBMgjoD5ACBACDAEKDagbEAKEABEB9QFCgBAgj4D6ACFACDAEKDSgbkAIEAJEBNQHCAFCgDwC6gOEACHAEKDQgLoBIUAIEBFQHyAECAHyCKgPEAKEAEOAQgPqBoQAIUBEQH2AECAErNgj2L6jCM6nl8DypU2gfn16VIQAIVCdCFhlaHAvsww+CMyGkhKAObMawaQA++rEgGwTAi89AlZJBAsW58LpM4wFWGpkbwfbEx2hZQu7l/5hEQCEQHUhYHVEcPxkCSwOzuXud8igBrAsuAlXRieEACFQdQhYFRFgKIAhAYYGyhQX7QC/dntFWUznhAAhUAUIWBURbN1WCNEbCzRv6/Uur8CWjQ5gRxGCJj5USAhUBgGrIYL/PhZgzIRsKCjU/x/Y/vRxY/Ab3rAy90u6hAAhoIGA1RDB8rA8SP2hWKOJ5UWOjnaQkuQITZqQW1COCuUIgcojYBVEkPVMgKGjnhu6m7G/awgfzW9sSJaECAFCwBgCVkEEGA4M9TMfFki3U485AwmbHcHVpZ5UZNPHtLQ0+PDDhVBUVAT29g0hOjoa3N3da+Wedu7cCRs2xIh1t2njDJs2bYJ69eoGzrUCqA1VahVEgHht/lshxMZrTxQq8ezhXh82RDZVFtvkeXj4ClixYoXc9tDQ5bBo0SL5vCYzvr7D4OjRo3KVmH/zzR7yOWXqLgJWQwTFbHogAJcO76uXDrXgDw9tAj7eDbQu2VSZNRHB4MFD4MSJEzJ+Bw/+CL169ZLPKVN3EbAaIkCI086WwPyP+c1EetC3blUPtic4QgMb5wIiAr0nTOU1iUCtEcG1n0phXVQBLF7YmIv3/7A0D46dML96IAE0PdAeZkxpJJ3a5JGIwCYfW51rdK0QgcC2CgTOzIGf/lMq7hbEXYNS+vlhGYyZmA0YKlSU0BtArwC9A1tNRAS2+uTqVrtrhQhSdhfBX77Ml5HET40HDyz38Td9VQBxWwrl6+YyOE+A8wW2mogIbPXJ1a121zgRZGcL4M92EOJRSvhlIX5hiF8aYkJvAL0C9A6MJFxBwJUEW0xEBLb41Opem2ucCCIi8yH570UqJCePt4fZM8vj/SPHi+GPIXkqOa2CTmxPQWK8I1vz1rpatWVPnz6FlJQUcZnt8uUMuHPnDpSVlUGXLl3AxcUF3NzcIDAwEDp27GCo4soQQW5uLnz//T/g4MGDkJFxGW7evAU5OTng5OQEbdu2BQ8PDxgxYgR4e7/DJlXLPS69hg0ZMhSOHz8uXz506BB4evaER48eQXLyd3DkyBG4du0a3Lt3DwQW3zk7O7P77AiDBg2CUaNGGb5nuQKTDNqMiYmFY8eOifaxzubNm4v2cV/FgAE+MHz4cEP3gWa//joJtm7dKtbg5+cHQUG/F/NoPyEhAc6ePQe3b99mP3pT//9YucPEiRPBx8dHlFP+c/LkSYiPj4fz5y9AZmYme1kVsba5QPfu3WHYMF8YPXq0UoU7T0xMZPUmimVdu3aFiIjV0LCh5dvl16+Pgj179oh2evTwgJUrV3L1vPAJe6A1lm7eKhX6DcgSfvuu+u/tgVnC3XulXFvmLcrRlNXS/+a7Qk63qk/YYBfYZhuhffsOgoODo9m/V19tJixdGiIUFxdX2IywsHDOVkRERIU6paWlQmjoZ4KzcxtOV69db7zRTdi//0CFdtnyIWcvLe2MwDYZGbpnrBvvBXGyJBUUFAgLF34kIGZ67ZfK3d09hAMHfjBkvls3N9mek1MrUSck5M9ymWRTeezXz0tgJMHVMW3atAr1EOPdu3dzeqYn/v6jORtr1641vWwoj8/DtL2tWzsb0jMiVKMeQdCCXPHnx/RYy6tvfVgdXr5RCPcUfDD5l18q0tORyvH7A/wOAb9HqOqUlZXF3haT4PDhwxaZ7tu3L+zcmQKNG+tvibbUIygsLIQJEyZCamqqRW1B4QUL5kNYWJiuntIjGDlyJOzatUtXXusCvrW3bUtkX4lW/BzQCxg7dhxcuHBBy5Ru2bhxYyEyMpJ9c6I/N9SuXXt4/rx82zq2S3qT6ho2uXDq1ElwdXVlXsgIOH36tMkV89k1a76EGTNmqIS+/XY7TJ8+XS5Hr+3KlQyLvILx4ycAIxvZxtSpUxkO6+TzymRqjAj+eagYQkIrdvUjVzeF3p7l8X5MXAF8lWBs4hC/TMQvFKs6YWfdu3evymyfPn3E7cAODg5w48YN0a3F0ME0jRkzWnQpTctM85YSAW5HRhdVmby9vcHLywvy8/NFlzcjI4N1tCtKMQgOXgJLlixRlWOBckORqRAObF9fXzHcwHLm7Ygh0vXr103FxLyR3ZHZ2dnMDR8AV69e5fRbtGjBiG48NG36y0rSpUuXNMkIQx4kHL2kJAJTOQx33n9/sFiEIQjaycsrn7zGCxjidejQHpgHIqtiuBUQECAOXrz/pKQkuHv3rnxdyly+fFnUlc7xiOGjm9uv4P79+3JxVNR6mDRpknxuLoM49+zpKYZkKIdbv9PTL4ihkzk9w9eMuA2VlSkoKBNGjnluyM1f+EkOV10+0/Uba0y3r0+WcO16Cadf2ZNz5/7NuWPomnl69hJYB1WZfvz4scBYXyXPvidQyUoFloQG+/alqmx7eb0tnDlzVjLHHdkgE/r0+Y1KR+n6SkpscKhk8X4ZEQq3bt2SxLgje8sKXbu+zuk1a9ZcwLrNJX9/f06nZUsnYePGjQKGCsrEBoHA5iA4eWwXe8sqReXztm3bqeSxncz7kGWkDCMDIShotkre1A1PTk6WxLnjmjVrVHrz5s3nZKSTqKhoTvatt3oaDqXmzp3H6U6eHCiZrZIjMky1p9j4fEMkgLH/si9yVe358XCRYf1pQdkq/coUsAke7gEgCTx79sysSWUsOnPmTF15S4igd+8+XFvee2+g5sAxrezJkyeCh0cPTo+5mKYicl45R4ADwUiHy8zMFFxcOnF1YNyvl5SxLg5aPXKSbODcA/OGuDrefddHuqw6ahEB2z6tkjMtCAgYz9mXiIBNyJmKqfIxMTGcHs5J5ObmqeTy8vJU8y379u1TySkLkKhee60FV4fWi0ipZ8l5tRPBg59LhXcGqScHtSb8xAnDTH7CULoZSyYO9+4vktQqfWSz8MKqVavEiTActA8fPqzQ5oMHD7iHhoNELxklArYywNnEiSLmZuqZ5crZjDen26mTK3ddOlESAXOvBRZnS5fNHpOSvuHqwPZpvd3RyJQpUzlZnJA0knCSVEmGbBVDU7VNm7ZcHbNmzdKUMy1kH1lxOkgErq6dK3xrs3kbAQe/RBx4PHXqlKlpOf/5519wcmxeRr6ml/n002WcDlsF0RN94fJqJ4JPQnINv83/uiFf90buMoJAotAiEGXZcP9nAoYUtZk6d+7CPTzsLFrJKBHMnj2Hs8e+WNQyp1uGqwxSR8VwQispiSA4OFhLTLMMBylbTpPrwLr03lqmg1SPlDQrYYXr1kVydcTGxmqKKj0CczP6pgZateIHNHohRpJyVSAuLk5Tjc0hqd7u6enpmrJYyOZSVKtDbNJaV/5FL1QrEfwrrdjQwMWBbGTwbthkPMSI26KONV8UJKN6bHVBQPdz8+bNqkHBJpU0zRglAuWb8OLFi5r2KlOoJIIdO3ZYZI6tMnCDNDV1v0r/5s2bnAxbjVHJmCvAN61EaHicM2eupriSCNh+D005ZWH//v05+/gsjSTlWzs8PFxXDcMm03swF36tXbuOk8X2VUf6HwAAAP//KAx9PAAADPdJREFU7VwJUBRJFv144QEjhniPOirIeov3FQreCN7ryaDreqKr4X2DAuKB6CgzoovGjooCo+sR6qijo6PGqGuIMjreV3jhfaAgp9ibv4zK7mqa7sKu7ipifkZg/cz8+TPzVdernz+zdNCxBDZInz4BDA5IheQnTJCRwoJLQ1fv4mY1P7GRLo/MgMfJ5m0WLQLwjwBHaO5ZzKw9ayqTk5Ph+PHjkJT0B9y4cUP4e/nyZb4mr169AjVq1MhTv3TpMli2bBkvDwlZDNOnT+d5FD4xMMuXd4WPHz8K5UWKFIHXr19BsWLKzq9Hj55w5swZ3vcvvxyGdu3a8bwlYcKEQNi+fTtX++GH72HkyJE8j8KhQ4dg8OAhvMzTsyn07OnD85aElJS3sH79Bq7m6+sLCQnxPC8K1ap9De/fvxez8OLFcyhVqhTP5ycMGjQYDh8+zKvj4+PAz8+P5/MTcEyzZ8/m1YGBEyAiIoLnDYWHDx9Co0aNhfuK5Xg/L1++BDVr1jRUE+53/foN4OnTp7xc7nh4A7kCEoEtUtyOTF0brxRZf+P+lWqLIShu8/Hjx7oFCxbqmjVrrnNyci7Q34MHD0yOJzx8qcTOqlWr8uilpKRIdGrVqp1HR4kCRgSSfhITLxTI7KxZsyTtN23alKd9fHyCRKegOBrrd+vWPU8fWFClSlVJP+np6Sb1jAsDAkZI2h04cMBYxWR+69atknZTp04zqScWGvczc+ZMsYpft23bJrHZtKmnjr0UeL2SAihpTLT19u0nXede72SRQLvOKbr7D3LFppq8vnnzRjdt2nRd2bIukhtj/KM0l1eSCNzc3G2CU/fuPSTzO3/+fIH6YW9ESfuNGzfmaR8XFy/RMYeZnLpOnbzy9IEFWieCK1euSHCoUKGi7u3bt3wu+MDjg2+IARKDrZJNiGDJinRZJIAeQ1R0hq3mpojdmzdv6urW9ZDcEMOb4+nZTDds2HBdUFCwDt8Kp0+f1jFXToflhnrWEMG7d+8ktr75ppYiczM2Yg8i2L17t2Quhhh9iTxjxgzjaQh5rRMBDrJXL18JFmwpwedy8OBBSZ27e11dTk4Or1dacECDcpcRcvSu3ciF0YFpclTBtbwD7NzuDCUdHQR9HMmmzZmQdClXVns5Sg7MdMAwR2jTquDr6aysLGjRoiXcv39f0lXbtm2BucFs/dwWypQpI6kTM4w8JGs7a2ME7I0B2dnZgnkHNilc85YsWVLsTpGrcYzgt9+Os/m3kG17zpw5EB29nut/991qGDNmDM+jgDEI7EdM/v7DYcMG/ZpfLLf2WrVqNUhNTeVm5MYIRowYCXv27OHtMP6AcQhLKTY2FiZOnMTVcN44f3Pp6NFfYcCAAVylQoUKLNZ0HUqUKAGMlOHs2bO8bvny5TBp0kSeV1pQnAhGjEmD23flPcghC0tD9y76AOF/92TDqqgMpefIgmoACVucoVpVFkUsQMIfNf64xeTs7MwCVdHQt29fscjkNS0tDTBYhUE+MVlDBGijefMWcOvWLdEcnDx5Epo18+R5JQR7EAFiw97WfLgdOnRgAcSDPK+UUBiIAOfapk1buHr1Kp82BlgxkNipUyde5uLiwu79TVnBTt6ogIKiRHDgUDaER8h7kBs3LAr//t6JDzc1VQcD/VMZiyvqoHD77dsWg8ilpt/eXMlI8PbuDImJibw0Lm479O7dm+fzE9g6GMaPHy+ptpYIMNKOEXcxseASLFoULGYtXhcvDgEWiBT0MFJ/6tSpPG3sQQTYaYMGDQEj55jQq2HLJihd2nJEX2gg85/CQgQ//bRD4jW5u7uDh4cHsCAln+n8+fNg3rx5PG8LQTEiYEFZ4UFmAW6L42S7JRD3ozPUrKF/Q69YnQF79392fS0a+EKFqMgy0LK5/CVC7dp1wHBL8NGjh4DsbC7l5uZC69ZtgMUWJGrWEkFMTAzMmDGT2yzIWwLJDElNTF999RUkJz8Ws/xqLyKYO3curFsXzfsNDQ2BadOm8bw5gQXUgAXaBJVKlSpB3bp1TaoXFiLALWHjLULDCeGWJ3oDln53hm2+RFaMCNZGZ0LCzixZYxjyd0eYOkm/vsWlxMixaSxwKav5Fyvh0gCXCHK33z08/gZPnjzh/cXGboV+/frxvLGAS4HJk6cACxoaVzH378vPEaCx9PQMcHNzk6x7fXx8YMuWzWZdxmfPnoGPTy+4c+cOH1P//v3ZGLfwvCjYiwgePXrM3N9GgKSJCb2CY8d+hcaNG4tDMXlFz8HX10/wIFAB19IPHtwHJye9Zyk2LCxEgONFUkRyNJUwLoDxAVsnRYgADw3h4SGDJXG+43Yp6wC74pyZK/g5QIiKGFzEIKM90uTAkjB8sKOsrvCgC9sF4LrlypWD3bt3mQygoV5oaJjkQA5vyARriQBtoWuPLr5hatKkCURFReWJF+BDhm7nwoULJV4NHkJKTDwPderUMTQjyPYiAuzM2CvAhzkiYgUMHz4cihYtKhkbO0cBuNxavXo1PH/+nNdVr/41XLt2jecNhcJEBBkZGcyz8QCcp2HCe3Xt2lUWU6liWGwTWREimDLzA5y/8PnUm6VRBs8rDT7d9QHCI8dyYNGSdEvNFKtHAtrFdipcXPRElJ9x40iwqOft7S28nV1dXSEzMxP2798veeOiXvHixYFt94hNFCEC3ODp06cvnDhxgtsVBXywMXiIDwC+OXE5wA5AidXCFXcb2CEfdrJvkKRczNiTCHAHpGvXrsLJTLF/vCIhtGzZknkMDeHdu/dw7949IXounqo01MW5DBky2LCIy4WJCHDQ+BJZuXIlHz8K/v7+bEdlvaTMVhmrieDU7zkwJ0jeg2wcIMzM0sEgFiB89drGawIj9Px8SsCC2ZaDU/hjZXu9cO7cOSML5rO4fMBI8O3bt7miEh4BGnv9+jX7gXwr8VR4J2YEJKbo6GgYOnRIvlr2JAIcBC5bhg4dChcuXMx3TKYqkNCCg4MAA6b5pcJGBNevX4dWrVpLppOUdFF44UgKbZSxmggGfZtq8ew/jh29vc0xTuBWW+/2/RibBTH/ybTR1MybjdvsDLVq6oOV+WnjeXU8Q49vfUsJXdqxY8cwdg8FLy9vidt6+/YtqFy5ch4Tcr41MG6Ebv+yZcthzZo1gGcdLCV0oePj4wGXEeaSn19vYVtS1Dl9+neL63ZRF6+4DFm7NooXRUevg4CAAJ43JSDZBgUFQUzMRv4thSk9sQzPNaxcGWFyeSbq4JUduhJIUyxLTdV/dyCWmbqOHj0aduzYyavYASjo1q0rz+cnsKPTMG7cOF49cWIgrFixguctCSEhoRAZGcnV8PsG/K7AXslqIsAH+Y/Lltf3/XuXgG4GZwZwgheSPsJmRga5+u12u8zb1dUBpgSWEg40ye0QdwFwSwe33e7evScEEUXXHx+wfv36CuvbqlU/75HjwRn8IWRn57BDI/0ZQYw12dXDh48gLCyULSM+gqNjCSaHQcWKFU3qGheyE4fsx5IAO3fuhEuXLgmkgAE0bI/ryoYNG7KlRB+2J91RWKoYtzfOow3s/8OHdOa2dxE+fsK3r9yE6/f58+czbJ5CvXr1YMmSMBYLKi2rOXoHGzduEoKGz549ZwemXgjLBNwZqFGjOlv2NIcOHdpL9tfNGT5y5KgQO8EA7ujR/4SBAweaU+d1d+/eZd7GImDHytkbuhXgR2ByEvuWgRFasED+VapUhvDwcNlr+zR2toKdHAS8iskW50RE26auVhOBKaNURggQAvIRQC8KvSkxdezYEX7++YCYtcuViMAuMFMnhIBpBDAIit7Aq1evuMLevXuhSxf9uQ9eYUOBiMCG4JJpQsASAsY7U/Xr12fB6f9ZaqZ4PRGB4pCSQUJAHgK4HYyxD8PDXlvYATHDD5HkWbJei4jAegzJAiHwRQjs27dP2AoWG+P/YPXnn5eF/7FILLPXlYjAXkhTP4SAEQJeXl6SMxRRUWth1KhRRlr2yRIR2Adn6oUQkCBw8WKSZCsUt53RG8DtXzUSEYEaqFOff3kEcJcAD6p9+PBBOD+C/9FN+/btVcOFiEA16KljQkA7CBARaOde0EgIAdUQICJQDXrqmBDQDgJEBNq5FzQSQkA1BIgIVIOeOiYEtIMAEYF27gWNhBBQDQEiAtWgp44JAe0gQESgnXtBIyEEVEOAiEA16KljQkA7CBARaOde0EgIAdUQICJQDXrqmBDQDgJEBNq5FzQSQkA1BIgIVIOeOiYEtIMAEYF27gWNhBBQDQEiAtWgp44JAe0gQESgnXtBIyEEVEOAiEA16KljQkA7CBARaOde0EgIAdUQICJQDXrqmBDQDgJEBNq5FzQSQkA1BIgIVIOeOiYEtIMAEYF27gWNhBBQDQEiAtWgp44JAe0gQESgnXtBIyEEVEOAiEA16KljQkA7CPwf71XE98lT7vwAAAAASUVORK5CYII=;rotation=-90;imageBorder=default;" vertex="1" parent="1">
          <mxGeometry x="430" y="234.03" width="170" height="61.94" as="geometry" />
        </mxCell>
        <mxCell id="8q4tUTvbmkVYXoXBBJad-47" value="&lt;b&gt;Blockchain &lt;br&gt;Integration&lt;/b&gt;" style="text;html=1;align=center;verticalAlign=middle;whiteSpace=wrap;rounded=0;" vertex="1" parent="1">
          <mxGeometry x="445" y="147" width="140" height="30" as="geometry" />
        </mxCell>
      </root>
    </mxGraphModel>
  </diagram>
  <diagram id="nxusTxMbNGLJw2PluvIc" name="Blockshield - Entities">
    <mxGraphModel dx="954" dy="581" grid="1" gridSize="10" guides="1" tooltips="1" connect="1" arrows="1" fold="1" page="1" pageScale="1" pageWidth="827" pageHeight="1169" math="0" shadow="0">
      <root>
        <mxCell id="0" />
        <mxCell id="1" parent="0" />
        <mxCell id="IuKjdmloEZk6Ut7e-16f-13" value="&lt;b&gt;Insurance Transaction&lt;/b&gt;" style="swimlane;fontStyle=0;childLayout=stackLayout;horizontal=1;startSize=26;fillColor=#fff2cc;horizontalStack=0;resizeParent=1;resizeParentMax=0;resizeLast=0;collapsible=1;marginBottom=0;whiteSpace=wrap;html=1;strokeColor=#d6b656;" vertex="1" parent="1">
          <mxGeometry x="80" y="40" width="210" height="182" as="geometry" />
        </mxCell>
        <mxCell id="IuKjdmloEZk6Ut7e-16f-14" value="+ id: ULID" style="text;strokeColor=#d6b656;fillColor=#fff2cc;align=left;verticalAlign=top;spacingLeft=4;spacingRight=4;overflow=hidden;rotatable=0;points=[[0,0.5],[1,0.5]];portConstraint=eastwest;whiteSpace=wrap;html=1;" vertex="1" parent="IuKjdmloEZk6Ut7e-16f-13">
          <mxGeometry y="26" width="210" height="26" as="geometry" />
        </mxCell>
        <mxCell id="IuKjdmloEZk6Ut7e-16f-15" value="+ created_at: Datetime" style="text;strokeColor=#d6b656;fillColor=#fff2cc;align=left;verticalAlign=top;spacingLeft=4;spacingRight=4;overflow=hidden;rotatable=0;points=[[0,0.5],[1,0.5]];portConstraint=eastwest;whiteSpace=wrap;html=1;" vertex="1" parent="IuKjdmloEZk6Ut7e-16f-13">
          <mxGeometry y="52" width="210" height="26" as="geometry" />
        </mxCell>
        <mxCell id="IuKjdmloEZk6Ut7e-16f-16" value="+ updated_at: Datetime" style="text;strokeColor=#d6b656;fillColor=#fff2cc;align=left;verticalAlign=top;spacingLeft=4;spacingRight=4;overflow=hidden;rotatable=0;points=[[0,0.5],[1,0.5]];portConstraint=eastwest;whiteSpace=wrap;html=1;" vertex="1" parent="IuKjdmloEZk6Ut7e-16f-13">
          <mxGeometry y="78" width="210" height="26" as="geometry" />
        </mxCell>
        <mxCell id="IuKjdmloEZk6Ut7e-16f-17" value="+ wallet: Wallet" style="text;strokeColor=#d6b656;fillColor=#fff2cc;align=left;verticalAlign=top;spacingLeft=4;spacingRight=4;overflow=hidden;rotatable=0;points=[[0,0.5],[1,0.5]];portConstraint=eastwest;whiteSpace=wrap;html=1;" vertex="1" parent="IuKjdmloEZk6Ut7e-16f-13">
          <mxGeometry y="104" width="210" height="26" as="geometry" />
        </mxCell>
        <mxCell id="IuKjdmloEZk6Ut7e-16f-18" value="+ hash: String" style="text;strokeColor=#d6b656;fillColor=#fff2cc;align=left;verticalAlign=top;spacingLeft=4;spacingRight=4;overflow=hidden;rotatable=0;points=[[0,0.5],[1,0.5]];portConstraint=eastwest;whiteSpace=wrap;html=1;" vertex="1" parent="IuKjdmloEZk6Ut7e-16f-13">
          <mxGeometry y="130" width="210" height="26" as="geometry" />
        </mxCell>
        <mxCell id="IuKjdmloEZk6Ut7e-16f-19" value="+ asset: Asset" style="text;strokeColor=#d6b656;fillColor=#fff2cc;align=left;verticalAlign=top;spacingLeft=4;spacingRight=4;overflow=hidden;rotatable=0;points=[[0,0.5],[1,0.5]];portConstraint=eastwest;whiteSpace=wrap;html=1;" vertex="1" parent="IuKjdmloEZk6Ut7e-16f-13">
          <mxGeometry y="156" width="210" height="26" as="geometry" />
        </mxCell>
        <mxCell id="IuKjdmloEZk6Ut7e-16f-25" style="edgeStyle=orthogonalEdgeStyle;rounded=0;orthogonalLoop=1;jettySize=auto;html=1;endArrow=diamond;endFill=1;exitX=0;exitY=0.5;exitDx=0;exitDy=0;" edge="1" parent="1" source="IuKjdmloEZk6Ut7e-16f-24" target="IuKjdmloEZk6Ut7e-16f-17">
          <mxGeometry relative="1" as="geometry" />
        </mxCell>
        <mxCell id="IuKjdmloEZk6Ut7e-16f-24" value="&lt;p style=&quot;margin:0px;margin-top:4px;text-align:center;text-decoration:underline;&quot;&gt;&lt;b&gt;Object:Wallet&lt;/b&gt;&lt;/p&gt;&lt;hr size=&quot;1&quot; style=&quot;border-style:solid;&quot;&gt;&lt;p style=&quot;margin:0px;margin-left:8px;&quot;&gt;address&lt;br&gt;balance&lt;/p&gt;" style="verticalAlign=top;align=left;overflow=fill;html=1;whiteSpace=wrap;fillColor=#ffe6cc;strokeColor=#d79b00;" vertex="1" parent="1">
          <mxGeometry x="440" y="40" width="160" height="70" as="geometry" />
        </mxCell>
        <mxCell id="IuKjdmloEZk6Ut7e-16f-27" style="edgeStyle=orthogonalEdgeStyle;rounded=0;orthogonalLoop=1;jettySize=auto;html=1;endArrow=diamond;endFill=1;" edge="1" parent="1" source="IuKjdmloEZk6Ut7e-16f-26" target="IuKjdmloEZk6Ut7e-16f-19">
          <mxGeometry relative="1" as="geometry" />
        </mxCell>
        <mxCell id="IuKjdmloEZk6Ut7e-16f-26" value="&lt;p style=&quot;margin:0px;margin-top:4px;text-align:center;text-decoration:underline;&quot;&gt;&lt;b&gt;Object:Asset&lt;/b&gt;&lt;/p&gt;&lt;hr size=&quot;1&quot; style=&quot;border-style:solid;&quot;&gt;&lt;p style=&quot;margin:0px;margin-left:8px;&quot;&gt;id&lt;br&gt;initial&lt;br&gt;quantity&lt;br&gt;amount&lt;/p&gt;" style="verticalAlign=top;align=left;overflow=fill;html=1;whiteSpace=wrap;fillColor=#ffe6cc;strokeColor=#d79b00;" vertex="1" parent="1">
          <mxGeometry x="440" y="164" width="160" height="90" as="geometry" />
        </mxCell>
        <mxCell id="IuKjdmloEZk6Ut7e-16f-28" value="&lt;b&gt;Asset&lt;/b&gt;" style="swimlane;fontStyle=0;childLayout=stackLayout;horizontal=1;startSize=26;fillColor=#fff2cc;horizontalStack=0;resizeParent=1;resizeParentMax=0;resizeLast=0;collapsible=1;marginBottom=0;whiteSpace=wrap;html=1;strokeColor=#d6b656;" vertex="1" parent="1">
          <mxGeometry x="80" y="320" width="210" height="338" as="geometry" />
        </mxCell>
        <mxCell id="IuKjdmloEZk6Ut7e-16f-29" value="+ id: ULID" style="text;strokeColor=#d6b656;fillColor=#fff2cc;align=left;verticalAlign=top;spacingLeft=4;spacingRight=4;overflow=hidden;rotatable=0;points=[[0,0.5],[1,0.5]];portConstraint=eastwest;whiteSpace=wrap;html=1;" vertex="1" parent="IuKjdmloEZk6Ut7e-16f-28">
          <mxGeometry y="26" width="210" height="26" as="geometry" />
        </mxCell>
        <mxCell id="IuKjdmloEZk6Ut7e-16f-30" value="+ created_at: Datetime" style="text;strokeColor=#d6b656;fillColor=#fff2cc;align=left;verticalAlign=top;spacingLeft=4;spacingRight=4;overflow=hidden;rotatable=0;points=[[0,0.5],[1,0.5]];portConstraint=eastwest;whiteSpace=wrap;html=1;" vertex="1" parent="IuKjdmloEZk6Ut7e-16f-28">
          <mxGeometry y="52" width="210" height="26" as="geometry" />
        </mxCell>
        <mxCell id="IuKjdmloEZk6Ut7e-16f-31" value="+ updated_at: Datetime" style="text;strokeColor=#d6b656;fillColor=#fff2cc;align=left;verticalAlign=top;spacingLeft=4;spacingRight=4;overflow=hidden;rotatable=0;points=[[0,0.5],[1,0.5]];portConstraint=eastwest;whiteSpace=wrap;html=1;" vertex="1" parent="IuKjdmloEZk6Ut7e-16f-28">
          <mxGeometry y="78" width="210" height="26" as="geometry" />
        </mxCell>
        <mxCell id="IuKjdmloEZk6Ut7e-16f-32" value="+ price: Price" style="text;strokeColor=#d6b656;fillColor=#fff2cc;align=left;verticalAlign=top;spacingLeft=4;spacingRight=4;overflow=hidden;rotatable=0;points=[[0,0.5],[1,0.5]];portConstraint=eastwest;whiteSpace=wrap;html=1;" vertex="1" parent="IuKjdmloEZk6Ut7e-16f-28">
          <mxGeometry y="104" width="210" height="26" as="geometry" />
        </mxCell>
        <mxCell id="IuKjdmloEZk6Ut7e-16f-33" value="+ active: Bool" style="text;strokeColor=#d6b656;fillColor=#fff2cc;align=left;verticalAlign=top;spacingLeft=4;spacingRight=4;overflow=hidden;rotatable=0;points=[[0,0.5],[1,0.5]];portConstraint=eastwest;whiteSpace=wrap;html=1;" vertex="1" parent="IuKjdmloEZk6Ut7e-16f-28">
          <mxGeometry y="130" width="210" height="26" as="geometry" />
        </mxCell>
        <mxCell id="IuKjdmloEZk6Ut7e-16f-34" value="+ validity: Validity" style="text;strokeColor=#d6b656;fillColor=#fff2cc;align=left;verticalAlign=top;spacingLeft=4;spacingRight=4;overflow=hidden;rotatable=0;points=[[0,0.5],[1,0.5]];portConstraint=eastwest;whiteSpace=wrap;html=1;" vertex="1" parent="IuKjdmloEZk6Ut7e-16f-28">
          <mxGeometry y="156" width="210" height="26" as="geometry" />
        </mxCell>
        <mxCell id="IuKjdmloEZk6Ut7e-16f-39" value="+ total_supply: BigDecimal" style="text;strokeColor=#d6b656;fillColor=#fff2cc;align=left;verticalAlign=top;spacingLeft=4;spacingRight=4;overflow=hidden;rotatable=0;points=[[0,0.5],[1,0.5]];portConstraint=eastwest;whiteSpace=wrap;html=1;" vertex="1" parent="IuKjdmloEZk6Ut7e-16f-28">
          <mxGeometry y="182" width="210" height="26" as="geometry" />
        </mxCell>
        <mxCell id="IuKjdmloEZk6Ut7e-16f-40" value="+ current_supply: BigDecimal" style="text;strokeColor=#d6b656;fillColor=#fff2cc;align=left;verticalAlign=top;spacingLeft=4;spacingRight=4;overflow=hidden;rotatable=0;points=[[0,0.5],[1,0.5]];portConstraint=eastwest;whiteSpace=wrap;html=1;" vertex="1" parent="IuKjdmloEZk6Ut7e-16f-28">
          <mxGeometry y="208" width="210" height="26" as="geometry" />
        </mxCell>
        <mxCell id="IuKjdmloEZk6Ut7e-16f-42" value="+ name: String" style="text;strokeColor=#d6b656;fillColor=#fff2cc;align=left;verticalAlign=top;spacingLeft=4;spacingRight=4;overflow=hidden;rotatable=0;points=[[0,0.5],[1,0.5]];portConstraint=eastwest;whiteSpace=wrap;html=1;" vertex="1" parent="IuKjdmloEZk6Ut7e-16f-28">
          <mxGeometry y="234" width="210" height="26" as="geometry" />
        </mxCell>
        <mxCell id="IuKjdmloEZk6Ut7e-16f-43" value="+ description: String" style="text;strokeColor=#d6b656;fillColor=#fff2cc;align=left;verticalAlign=top;spacingLeft=4;spacingRight=4;overflow=hidden;rotatable=0;points=[[0,0.5],[1,0.5]];portConstraint=eastwest;whiteSpace=wrap;html=1;" vertex="1" parent="IuKjdmloEZk6Ut7e-16f-28">
          <mxGeometry y="260" width="210" height="26" as="geometry" />
        </mxCell>
        <mxCell id="IuKjdmloEZk6Ut7e-16f-44" value="+ initial: String" style="text;strokeColor=#d6b656;fillColor=#fff2cc;align=left;verticalAlign=top;spacingLeft=4;spacingRight=4;overflow=hidden;rotatable=0;points=[[0,0.5],[1,0.5]];portConstraint=eastwest;whiteSpace=wrap;html=1;" vertex="1" parent="IuKjdmloEZk6Ut7e-16f-28">
          <mxGeometry y="286" width="210" height="26" as="geometry" />
        </mxCell>
        <mxCell id="IuKjdmloEZk6Ut7e-16f-45" value="+ rating: Number" style="text;strokeColor=#d6b656;fillColor=#fff2cc;align=left;verticalAlign=top;spacingLeft=4;spacingRight=4;overflow=hidden;rotatable=0;points=[[0,0.5],[1,0.5]];portConstraint=eastwest;whiteSpace=wrap;html=1;" vertex="1" parent="IuKjdmloEZk6Ut7e-16f-28">
          <mxGeometry y="312" width="210" height="26" as="geometry" />
        </mxCell>
        <mxCell id="IuKjdmloEZk6Ut7e-16f-35" style="edgeStyle=orthogonalEdgeStyle;rounded=0;orthogonalLoop=1;jettySize=auto;html=1;endArrow=diamond;endFill=1;exitX=0;exitY=0.5;exitDx=0;exitDy=0;" edge="1" parent="1" source="IuKjdmloEZk6Ut7e-16f-36" target="IuKjdmloEZk6Ut7e-16f-32">
          <mxGeometry relative="1" as="geometry" />
        </mxCell>
        <mxCell id="IuKjdmloEZk6Ut7e-16f-36" value="&lt;p style=&quot;margin:0px;margin-top:4px;text-align:center;text-decoration:underline;&quot;&gt;&lt;b&gt;Object:Price&lt;/b&gt;&lt;/p&gt;&lt;hr size=&quot;1&quot; style=&quot;border-style:solid;&quot;&gt;&lt;p style=&quot;margin:0px;margin-left:8px;&quot;&gt;value&lt;br&gt;currency&lt;/p&gt;" style="verticalAlign=top;align=left;overflow=fill;html=1;whiteSpace=wrap;fillColor=#ffe6cc;strokeColor=#d79b00;" vertex="1" parent="1">
          <mxGeometry x="440" y="320" width="160" height="70" as="geometry" />
        </mxCell>
        <mxCell id="IuKjdmloEZk6Ut7e-16f-37" style="edgeStyle=orthogonalEdgeStyle;rounded=0;orthogonalLoop=1;jettySize=auto;html=1;endArrow=diamond;endFill=1;" edge="1" parent="1" source="IuKjdmloEZk6Ut7e-16f-38" target="IuKjdmloEZk6Ut7e-16f-34">
          <mxGeometry relative="1" as="geometry" />
        </mxCell>
        <mxCell id="IuKjdmloEZk6Ut7e-16f-38" value="&lt;p style=&quot;margin:0px;margin-top:4px;text-align:center;text-decoration:underline;&quot;&gt;&lt;b&gt;Object:Validity&lt;/b&gt;&lt;/p&gt;&lt;hr size=&quot;1&quot; style=&quot;border-style:solid;&quot;&gt;&lt;p style=&quot;margin:0px;margin-left:8px;&quot;&gt;from&lt;br&gt;until&lt;br&gt;&lt;br&gt;&lt;/p&gt;" style="verticalAlign=top;align=left;overflow=fill;html=1;whiteSpace=wrap;fillColor=#ffe6cc;strokeColor=#d79b00;" vertex="1" parent="1">
          <mxGeometry x="440" y="410" width="160" height="66" as="geometry" />
        </mxCell>
      </root>
    </mxGraphModel>
  </diagram>
</mxfile>
